G04 Layer_Color=2752767*
%FSLAX25Y25*%
%MOIN*%
G70*
G01*
G75*
%ADD70C,0.00500*%
%ADD71C,0.00667*%
%ADD72C,0.00400*%
%ADD73C,0.01890*%
%ADD74C,0.01181*%
%ADD75C,0.00733*%
%ADD76C,0.00467*%
D70*
X45000Y318500D02*
Y322500D01*
X49000D01*
Y318500D01*
X45000D01*
X35000D02*
Y322500D01*
X39000D01*
Y318500D01*
X35000D01*
X25000D02*
Y322500D01*
X29000D01*
Y318500D01*
X25000D01*
X353425Y104500D02*
X351425Y108500D01*
X355425D01*
X353425Y104500D01*
X363425D02*
X361425Y108500D01*
X365425D01*
X363425Y104500D01*
X373425D02*
X371425Y108500D01*
X375425D01*
X373425Y104500D01*
X383425D02*
X381425Y108500D01*
X385425D01*
X383425Y104500D01*
X393425D02*
X391425Y108500D01*
X395425D01*
X393425Y104500D01*
X49500Y148500D02*
X50500Y149500D01*
X51500D01*
X50500Y150500D01*
X51500Y151500D01*
X50500D01*
X49500Y152500D01*
X48500Y151500D01*
X47500D01*
X48500Y150500D01*
X47500Y149500D01*
X48500D01*
X49500Y148500D01*
X69500D02*
X70500Y149500D01*
X71500D01*
X70500Y150500D01*
X71500Y151500D01*
X70500D01*
X69500Y152500D01*
X68500Y151500D01*
X67500D01*
X68500Y150500D01*
X67500Y149500D01*
X68500D01*
X69500Y148500D01*
X6000Y200000D02*
X4000Y204000D01*
X8000D01*
X6000Y200000D01*
X16000D02*
X14000Y204000D01*
X18000D01*
X16000Y200000D01*
X19500Y148500D02*
Y152500D01*
X23500D01*
Y148500D01*
X19500D01*
Y128500D02*
Y132500D01*
X23500D01*
Y128500D01*
X19500D01*
X19000Y234000D02*
Y238000D01*
X23000D01*
Y234000D01*
X19000D01*
Y224000D02*
Y228000D01*
X23000D01*
Y224000D01*
X19000D01*
X433000Y323500D02*
X431000Y327500D01*
X435000D01*
X433000Y323500D01*
X423000D02*
X421000Y327500D01*
X425000D01*
X423000Y323500D01*
X413000D02*
X411000Y327500D01*
X415000D01*
X413000Y323500D01*
X403000D02*
X401000Y327500D01*
X405000D01*
X403000Y323500D01*
X393000D02*
X391000Y327500D01*
X395000D01*
X393000Y323500D01*
X383000D02*
X381000Y327500D01*
X385000D01*
X383000Y323500D01*
X373000D02*
X371000Y327500D01*
X375000D01*
X373000Y323500D01*
X363000D02*
X361000Y327500D01*
X365000D01*
X363000Y323500D01*
X353000D02*
X351000Y327500D01*
X355000D01*
X353000Y323500D01*
X343000D02*
X341000Y327500D01*
X345000D01*
X343000Y323500D01*
X433000Y293500D02*
X431000Y297500D01*
X435000D01*
X433000Y293500D01*
X423000D02*
X421000Y297500D01*
X425000D01*
X423000Y293500D01*
X413000D02*
X411000Y297500D01*
X415000D01*
X413000Y293500D01*
X403000D02*
X401000Y297500D01*
X405000D01*
X403000Y293500D01*
X393000D02*
X391000Y297500D01*
X395000D01*
X393000Y293500D01*
X383000D02*
X381000Y297500D01*
X385000D01*
X383000Y293500D01*
X373000D02*
X371000Y297500D01*
X375000D01*
X373000Y293500D01*
X363000D02*
X361000Y297500D01*
X365000D01*
X363000Y293500D01*
X353000D02*
X351000Y297500D01*
X355000D01*
X353000Y293500D01*
X343000D02*
X341000Y297500D01*
X345000D01*
X343000Y293500D01*
X88000Y257000D02*
X86000Y261000D01*
X90000D01*
X88000Y257000D01*
X98000D02*
X96000Y261000D01*
X100000D01*
X98000Y257000D01*
X108000D02*
X106000Y261000D01*
X110000D01*
X108000Y257000D01*
X118000D02*
X116000Y261000D01*
X120000D01*
X118000Y257000D01*
X128000D02*
X126000Y261000D01*
X130000D01*
X128000Y257000D01*
X138000D02*
X136000Y261000D01*
X140000D01*
X138000Y257000D01*
X148000D02*
X146000Y261000D01*
X150000D01*
X148000Y257000D01*
X158000D02*
X156000Y261000D01*
X160000D01*
X158000Y257000D01*
X88000Y287000D02*
X86000Y291000D01*
X90000D01*
X88000Y287000D01*
X98000D02*
X96000Y291000D01*
X100000D01*
X98000Y287000D01*
X108000D02*
X106000Y291000D01*
X110000D01*
X108000Y287000D01*
X118000D02*
X116000Y291000D01*
X120000D01*
X118000Y287000D01*
X128000D02*
X126000Y291000D01*
X130000D01*
X128000Y287000D01*
X138000D02*
X136000Y291000D01*
X140000D01*
X138000Y287000D01*
X148000D02*
X146000Y291000D01*
X150000D01*
X148000Y287000D01*
X158000D02*
X156000Y291000D01*
X160000D01*
X158000Y287000D01*
X163669Y-6921D02*
X164669Y-4921D01*
X163669Y-2921D01*
X165669Y-3921D01*
X167669Y-2921D01*
X166669Y-4921D01*
X167669Y-6921D01*
X165669Y-5921D01*
X163669Y-6921D01*
X203039D02*
X204039Y-4921D01*
X203039Y-2921D01*
X205039Y-3921D01*
X207039Y-2921D01*
X206039Y-4921D01*
X207039Y-6921D01*
X205039Y-5921D01*
X203039Y-6921D01*
X193197D02*
X194197Y-4921D01*
X193197Y-2921D01*
X195197Y-3921D01*
X197197Y-2921D01*
X196197Y-4921D01*
X197197Y-6921D01*
X195197Y-5921D01*
X193197Y-6921D01*
X173512D02*
X174512Y-4921D01*
X173512Y-2921D01*
X175512Y-3921D01*
X177512Y-2921D01*
X176512Y-4921D01*
X177512Y-6921D01*
X175512Y-5921D01*
X173512Y-6921D01*
X183354Y32449D02*
X184354Y34449D01*
X183354Y36449D01*
X185354Y35449D01*
X187354Y36449D01*
X186354Y34449D01*
X187354Y32449D01*
X185354Y33449D01*
X183354Y32449D01*
X163669Y42291D02*
X164669Y44291D01*
X163669Y46291D01*
X165669Y45291D01*
X167669Y46291D01*
X166669Y44291D01*
X167669Y42291D01*
X165669Y43291D01*
X163669Y42291D01*
X153827Y32449D02*
X154827Y34449D01*
X153827Y36449D01*
X155827Y35449D01*
X157827Y36449D01*
X156827Y34449D01*
X157827Y32449D01*
X155827Y33449D01*
X153827Y32449D01*
X212882D02*
X213882Y34449D01*
X212882Y36449D01*
X214882Y35449D01*
X216882Y36449D01*
X215882Y34449D01*
X216882Y32449D01*
X214882Y33449D01*
X212882Y32449D01*
X203039Y42291D02*
X204039Y44291D01*
X203039Y46291D01*
X205039Y45291D01*
X207039Y46291D01*
X206039Y44291D01*
X207039Y42291D01*
X205039Y43291D01*
X203039Y42291D01*
X154354Y13449D02*
Y12449D01*
X156354D01*
Y13449D01*
X157354D01*
Y15449D01*
X156354D01*
Y16449D01*
X154354D01*
Y15449D01*
X153354D01*
Y13449D01*
X154354D01*
X214354D02*
Y12449D01*
X216354D01*
Y13449D01*
X217354D01*
Y15449D01*
X216354D01*
Y16449D01*
X214354D01*
Y15449D01*
X213354D01*
Y13449D01*
X214354D01*
X133354D02*
Y12449D01*
X135354D01*
Y13449D01*
X136354D01*
Y15449D01*
X135354D01*
Y16449D01*
X133354D01*
Y15449D01*
X132354D01*
Y13449D01*
X133354D01*
X73354D02*
Y12449D01*
X75354D01*
Y13449D01*
X76354D01*
Y15449D01*
X75354D01*
Y16449D01*
X73354D01*
Y15449D01*
X72354D01*
Y13449D01*
X73354D01*
X122039Y42291D02*
X123039Y44291D01*
X122039Y46291D01*
X124039Y45291D01*
X126039Y46291D01*
X125039Y44291D01*
X126039Y42291D01*
X124039Y43291D01*
X122039Y42291D01*
X131882Y32449D02*
X132882Y34449D01*
X131882Y36449D01*
X133882Y35449D01*
X135882Y36449D01*
X134882Y34449D01*
X135882Y32449D01*
X133882Y33449D01*
X131882Y32449D01*
X72827D02*
X73827Y34449D01*
X72827Y36449D01*
X74827Y35449D01*
X76827Y36449D01*
X75827Y34449D01*
X76827Y32449D01*
X74827Y33449D01*
X72827Y32449D01*
X82669Y42291D02*
X83669Y44291D01*
X82669Y46291D01*
X84669Y45291D01*
X86669Y46291D01*
X85669Y44291D01*
X86669Y42291D01*
X84669Y43291D01*
X82669Y42291D01*
X102354Y32449D02*
X103354Y34449D01*
X102354Y36449D01*
X104354Y35449D01*
X106354Y36449D01*
X105354Y34449D01*
X106354Y32449D01*
X104354Y33449D01*
X102354Y32449D01*
X92512Y-6921D02*
X93512Y-4921D01*
X92512Y-2921D01*
X94512Y-3921D01*
X96512Y-2921D01*
X95512Y-4921D01*
X96512Y-6921D01*
X94512Y-5921D01*
X92512Y-6921D01*
X112197D02*
X113197Y-4921D01*
X112197Y-2921D01*
X114197Y-3921D01*
X116197Y-2921D01*
X115197Y-4921D01*
X116197Y-6921D01*
X114197Y-5921D01*
X112197Y-6921D01*
X122039D02*
X123039Y-4921D01*
X122039Y-2921D01*
X124039Y-3921D01*
X126039Y-2921D01*
X125039Y-4921D01*
X126039Y-6921D01*
X124039Y-5921D01*
X122039Y-6921D01*
X82669D02*
X83669Y-4921D01*
X82669Y-2921D01*
X84669Y-3921D01*
X86669Y-2921D01*
X85669Y-4921D01*
X86669Y-6921D01*
X84669Y-5921D01*
X82669Y-6921D01*
X175854Y191779D02*
X173854Y195780D01*
X177854D01*
X175854Y191779D01*
X185854D02*
X183854Y195780D01*
X187854D01*
X185854Y191779D01*
X195854D02*
X193854Y195780D01*
X197854D01*
X195854Y191779D01*
X175854Y201780D02*
X173854Y205780D01*
X177854D01*
X175854Y201780D01*
X185854D02*
X183854Y205780D01*
X187854D01*
X185854Y201780D01*
X195854D02*
X193854Y205780D01*
X197854D01*
X195854Y201780D01*
X175854Y211779D02*
X173854Y215779D01*
X177854D01*
X175854Y211779D01*
X185854D02*
X183854Y215779D01*
X187854D01*
X185854Y211779D01*
X195854D02*
X193854Y215779D01*
X197854D01*
X195854Y211779D01*
X175854Y221779D02*
X173854Y225780D01*
X177854D01*
X175854Y221779D01*
X185854D02*
X183854Y225780D01*
X187854D01*
X185854Y221779D01*
X195854D02*
X193854Y225780D01*
X197854D01*
X195854Y221779D01*
X175854Y231780D02*
X173854Y235780D01*
X177854D01*
X175854Y231780D01*
X185854D02*
X183854Y235780D01*
X187854D01*
X185854Y231780D01*
X195854D02*
X193854Y235780D01*
X197854D01*
X195854Y231780D01*
X175854Y241779D02*
X173854Y245779D01*
X177854D01*
X175854Y241779D01*
X185854D02*
X183854Y245779D01*
X187854D01*
X185854Y241779D01*
X195854D02*
X193854Y245779D01*
X197854D01*
X195854Y241779D01*
X205854D02*
X203854Y245779D01*
X207854D01*
X205854Y241779D01*
X175854Y171780D02*
X173854Y175779D01*
X177854D01*
X175854Y171780D01*
X185854D02*
X183854Y175779D01*
X187854D01*
X185854Y171780D01*
X195854D02*
X193854Y175779D01*
X197854D01*
X195854Y171780D01*
X205854D02*
X203854Y175779D01*
X207854D01*
X205854Y171780D01*
X215854D02*
X213854Y175779D01*
X217854D01*
X215854Y171780D01*
X225854D02*
X223854Y175779D01*
X227854D01*
X225854Y171780D01*
X235854D02*
X233854Y175779D01*
X237854D01*
X235854Y171780D01*
X245854D02*
X243854Y175779D01*
X247854D01*
X245854Y171780D01*
X255854D02*
X253854Y175779D01*
X257854D01*
X255854Y171780D01*
X265854D02*
X263854Y175779D01*
X267854D01*
X265854Y171780D01*
X275854D02*
X273854Y175779D01*
X277854D01*
X275854Y171780D01*
X285854D02*
X283854Y175779D01*
X287854D01*
X285854Y171780D01*
X295854D02*
X293854Y175779D01*
X297854D01*
X295854Y171780D01*
X305854D02*
X303854Y175779D01*
X307854D01*
X305854Y171780D01*
X315854D02*
X313854Y175779D01*
X317854D01*
X315854Y171780D01*
X325854D02*
X323854Y175779D01*
X327854D01*
X325854Y171780D01*
X335854D02*
X333854Y175779D01*
X337854D01*
X335854Y171780D01*
X345854D02*
X343854Y175779D01*
X347854D01*
X345854Y171780D01*
X355854D02*
X353854Y175779D01*
X357854D01*
X355854Y171780D01*
X365854D02*
X363854Y175779D01*
X367854D01*
X365854Y171780D01*
X375854D02*
X373854Y175779D01*
X377854D01*
X375854Y171780D01*
X385854D02*
X383854Y175779D01*
X387854D01*
X385854Y171780D01*
X395854D02*
X393854Y175779D01*
X397854D01*
X395854Y171780D01*
X405854D02*
X403854Y175779D01*
X407854D01*
X405854Y171780D01*
X415854D02*
X413854Y175779D01*
X417854D01*
X415854Y171780D01*
X425854D02*
X423854Y175779D01*
X427854D01*
X425854Y171780D01*
X435854D02*
X433854Y175779D01*
X437854D01*
X435854Y171780D01*
X175854Y261779D02*
X173854Y265779D01*
X177854D01*
X175854Y261779D01*
X185854D02*
X183854Y265779D01*
X187854D01*
X185854Y261779D01*
X195854D02*
X193854Y265779D01*
X197854D01*
X195854Y261779D01*
X205854D02*
X203854Y265779D01*
X207854D01*
X205854Y261779D01*
X215854D02*
X213854Y265779D01*
X217854D01*
X215854Y261779D01*
X225854D02*
X223854Y265779D01*
X227854D01*
X225854Y261779D01*
X235854D02*
X233854Y265779D01*
X237854D01*
X235854Y261779D01*
X245854D02*
X243854Y265779D01*
X247854D01*
X245854Y261779D01*
X255854D02*
X253854Y265779D01*
X257854D01*
X255854Y261779D01*
X265854D02*
X263854Y265779D01*
X267854D01*
X265854Y261779D01*
X275854D02*
X273854Y265779D01*
X277854D01*
X275854Y261779D01*
X285854D02*
X283854Y265779D01*
X287854D01*
X285854Y261779D01*
X295854D02*
X293854Y265779D01*
X297854D01*
X295854Y261779D01*
X305854D02*
X303854Y265779D01*
X307854D01*
X305854Y261779D01*
X315854D02*
X313854Y265779D01*
X317854D01*
X315854Y261779D01*
X325854D02*
X323854Y265779D01*
X327854D01*
X325854Y261779D01*
X335854D02*
X333854Y265779D01*
X337854D01*
X335854Y261779D01*
X345854D02*
X343854Y265779D01*
X347854D01*
X345854Y261779D01*
X355854D02*
X353854Y265779D01*
X357854D01*
X355854Y261779D01*
X365854D02*
X363854Y265779D01*
X367854D01*
X365854Y261779D01*
X375854D02*
X373854Y265779D01*
X377854D01*
X375854Y261779D01*
X385854D02*
X383854Y265779D01*
X387854D01*
X385854Y261779D01*
X395854D02*
X393854Y265779D01*
X397854D01*
X395854Y261779D01*
X405854D02*
X403854Y265779D01*
X407854D01*
X405854Y261779D01*
X415854D02*
X413854Y265779D01*
X417854D01*
X415854Y261779D01*
X425854D02*
X423854Y265779D01*
X427854D01*
X425854Y261779D01*
X435854D02*
X433854Y265779D01*
X437854D01*
X435854Y261779D01*
X445854Y181780D02*
X443854Y185780D01*
X447854D01*
X445854Y181780D01*
Y191779D02*
X443854Y195780D01*
X447854D01*
X445854Y191779D01*
Y201780D02*
X443854Y205780D01*
X447854D01*
X445854Y201780D01*
Y211779D02*
X443854Y215779D01*
X447854D01*
X445854Y211779D01*
Y221779D02*
X443854Y225780D01*
X447854D01*
X445854Y221779D01*
Y231780D02*
X443854Y235780D01*
X447854D01*
X445854Y231780D01*
Y241779D02*
X443854Y245779D01*
X447854D01*
X445854Y241779D01*
Y251780D02*
X443854Y255780D01*
X447854D01*
X445854Y251780D01*
X157047Y360500D02*
X155047Y364500D01*
X159047D01*
X157047Y360500D01*
Y350500D02*
X155047Y354500D01*
X159047D01*
X157047Y350500D01*
X147047Y360500D02*
X145047Y364500D01*
X149047D01*
X147047Y360500D01*
Y350500D02*
X145047Y354500D01*
X149047D01*
X147047Y350500D01*
X137047Y360500D02*
X135047Y364500D01*
X139047D01*
X137047Y360500D01*
Y350500D02*
X135047Y354500D01*
X139047D01*
X137047Y350500D01*
X127047Y360500D02*
X125047Y364500D01*
X129047D01*
X127047Y360500D01*
Y350500D02*
X125047Y354500D01*
X129047D01*
X127047Y350500D01*
X117047Y360500D02*
X115047Y364500D01*
X119047D01*
X117047Y360500D01*
Y350500D02*
X115047Y354500D01*
X119047D01*
X117047Y350500D01*
X107047Y360500D02*
X105047Y364500D01*
X109047D01*
X107047Y360500D01*
Y350500D02*
X105047Y354500D01*
X109047D01*
X107047Y350500D01*
X97047Y360500D02*
X95047Y364500D01*
X99047D01*
X97047Y360500D01*
Y350500D02*
X95047Y354500D01*
X99047D01*
X97047Y350500D01*
X87047Y360500D02*
X85047Y364500D01*
X89047D01*
X87047Y360500D01*
Y350500D02*
X85047Y354500D01*
X89047D01*
X87047Y350500D01*
X183386Y133500D02*
X181386Y137500D01*
X185386D01*
X183386Y133500D01*
Y123500D02*
X181386Y127500D01*
X185386D01*
X183386Y123500D01*
X173386Y133500D02*
X171386Y137500D01*
X175386D01*
X173386Y133500D01*
Y123500D02*
X171386Y127500D01*
X175386D01*
X173386Y123500D01*
X163386Y133500D02*
X161386Y137500D01*
X165386D01*
X163386Y133500D01*
Y123500D02*
X161386Y127500D01*
X165386D01*
X163386Y123500D01*
X153386Y133500D02*
X151386Y137500D01*
X155386D01*
X153386Y133500D01*
Y123500D02*
X151386Y127500D01*
X155386D01*
X153386Y123500D01*
X143386Y133500D02*
X141386Y137500D01*
X145386D01*
X143386Y133500D01*
Y123500D02*
X141386Y127500D01*
X145386D01*
X143386Y123500D01*
X353500D02*
X351500Y127500D01*
X355500D01*
X353500Y123500D01*
Y133500D02*
X351500Y137500D01*
X355500D01*
X353500Y133500D01*
X363500Y123500D02*
X361500Y127500D01*
X365500D01*
X363500Y123500D01*
Y133500D02*
X361500Y137500D01*
X365500D01*
X363500Y133500D01*
X373500Y123500D02*
X371500Y127500D01*
X375500D01*
X373500Y123500D01*
Y133500D02*
X371500Y137500D01*
X375500D01*
X373500Y133500D01*
X383500Y123500D02*
X381500Y127500D01*
X385500D01*
X383500Y123500D01*
Y133500D02*
X381500Y137500D01*
X385500D01*
X383500Y133500D01*
X393500Y123500D02*
X391500Y127500D01*
X395500D01*
X393500Y123500D01*
Y133500D02*
X391500Y137500D01*
X395500D01*
X393500Y133500D01*
X403500Y123500D02*
X401500Y127500D01*
X405500D01*
X403500Y123500D01*
Y133500D02*
X401500Y137500D01*
X405500D01*
X403500Y133500D01*
X413500Y123500D02*
X411500Y127500D01*
X415500D01*
X413500Y123500D01*
Y133500D02*
X411500Y137500D01*
X415500D01*
X413500Y133500D01*
X423500Y123500D02*
X421500Y127500D01*
X425500D01*
X423500Y123500D01*
Y133500D02*
X421500Y137500D01*
X425500D01*
X423500Y133500D01*
X433500Y123500D02*
X431500Y127500D01*
X435500D01*
X433500Y123500D01*
Y133500D02*
X431500Y137500D01*
X435500D01*
X433500Y133500D01*
X443500Y123500D02*
X441500Y127500D01*
X445500D01*
X443500Y123500D01*
Y133500D02*
X441500Y137500D01*
X445500D01*
X443500Y133500D01*
X293000Y137500D02*
X291000Y141500D01*
X295000D01*
X293000Y137500D01*
X303000D02*
X301000Y141500D01*
X305000D01*
X303000Y137500D01*
X313000D02*
X311000Y141500D01*
X315000D01*
X313000Y137500D01*
X323000D02*
X321000Y141500D01*
X325000D01*
X323000Y137500D01*
X98000Y223500D02*
X96000Y227500D01*
X100000D01*
X98000Y223500D01*
Y213500D02*
X96000Y217500D01*
X100000D01*
X98000Y213500D01*
Y203500D02*
X96000Y207500D01*
X100000D01*
X98000Y203500D01*
X38038Y57971D02*
X36038Y61971D01*
X40038D01*
X38038Y57971D01*
X48038D02*
X46038Y61971D01*
X50038D01*
X48038Y57971D01*
X455500Y82000D02*
X453500Y86000D01*
X457500D01*
X455500Y82000D01*
Y72000D02*
X453500Y76000D01*
X457500D01*
X455500Y72000D01*
X90000Y95354D02*
X88000Y99354D01*
X92000D01*
X90000Y95354D01*
Y64646D02*
X88000Y68646D01*
X92000D01*
X90000Y64646D01*
X429500Y95476D02*
X427500Y99476D01*
X431500D01*
X429500Y95476D01*
Y67524D02*
X427500Y71524D01*
X431500D01*
X429500Y67524D01*
X149500Y66500D02*
X147500Y70500D01*
X151500D01*
X149500Y66500D01*
Y76500D02*
X147500Y80500D01*
X151500D01*
X149500Y76500D01*
Y86500D02*
X147500Y90500D01*
X151500D01*
X149500Y86500D01*
Y96500D02*
X147500Y100500D01*
X151500D01*
X149500Y96500D01*
X119500Y66500D02*
X117500Y70500D01*
X121500D01*
X119500Y66500D01*
Y76500D02*
X117500Y80500D01*
X121500D01*
X119500Y76500D01*
Y86500D02*
X117500Y90500D01*
X121500D01*
X119500Y86500D01*
Y96500D02*
X117500Y100500D01*
X121500D01*
X119500Y96500D01*
X455992Y20835D02*
X456992D01*
X457992Y21835D01*
X458992Y20835D01*
X459992D01*
Y21835D01*
X458992Y22835D01*
X459992Y23835D01*
Y24835D01*
X458992D01*
X457992Y23835D01*
X456992Y24835D01*
X455992D01*
Y23835D01*
X456992Y22835D01*
X455992Y21835D01*
Y20835D01*
X393984D02*
X394984D01*
X395984Y21835D01*
X396984Y20835D01*
X397984D01*
Y21835D01*
X396984Y22835D01*
X397984Y23835D01*
Y24835D01*
X396984D01*
X395984Y23835D01*
X394984Y24835D01*
X393984D01*
Y23835D01*
X394984Y22835D01*
X393984Y21835D01*
Y20835D01*
X444488Y42843D02*
X442488Y46843D01*
X446488D01*
X444488Y42843D01*
X414488D02*
X412488Y46843D01*
X416488D01*
X414488Y42843D01*
X409488Y32842D02*
X407488Y36843D01*
X411488D01*
X409488Y32842D01*
X439488D02*
X437488Y36843D01*
X441488D01*
X439488Y32842D01*
X434488Y42843D02*
X432488Y46843D01*
X436488D01*
X434488Y42843D01*
X424488D02*
X422488Y46843D01*
X426488D01*
X424488Y42843D01*
X429488Y32842D02*
X427488Y36843D01*
X431488D01*
X429488Y32842D01*
X419488D02*
X417488Y36843D01*
X421488D01*
X419488Y32842D01*
X402488Y9843D02*
X404488Y11842D01*
X406488Y9843D01*
X404488Y7842D01*
X402488Y9843D01*
X447488D02*
X449488Y11842D01*
X451488Y9843D01*
X449488Y7842D01*
X447488Y9843D01*
X400906Y-8142D02*
X401905Y-7142D01*
X402906D01*
X401905Y-6142D01*
X402906Y-5142D01*
X401905D01*
X400906Y-4142D01*
X399905Y-5142D01*
X398905D01*
X399905Y-6142D01*
X398905Y-7142D01*
X399905D01*
X400906Y-8142D01*
X410906D02*
X411905Y-7142D01*
X412906D01*
X411905Y-6142D01*
X412906Y-5142D01*
X411905D01*
X410906Y-4142D01*
X409905Y-5142D01*
X408906D01*
X409905Y-6142D01*
X408906Y-7142D01*
X409905D01*
X410906Y-8142D01*
X443071D02*
X444071Y-7142D01*
X445071D01*
X444071Y-6142D01*
X445071Y-5142D01*
X444071D01*
X443071Y-4142D01*
X442071Y-5142D01*
X441071D01*
X442071Y-6142D01*
X441071Y-7142D01*
X442071D01*
X443071Y-8142D01*
X453071D02*
X454071Y-7142D01*
X455071D01*
X454071Y-6142D01*
X455071Y-5142D01*
X454071D01*
X453071Y-4142D01*
X452071Y-5142D01*
X451071D01*
X452071Y-6142D01*
X451071Y-7142D01*
X452071D01*
X453071Y-8142D01*
X56000Y346000D02*
X57000Y347000D01*
X58000D01*
X57000Y348000D01*
X58000Y349000D01*
X57000D01*
X56000Y350000D01*
X55000Y349000D01*
X54000D01*
X55000Y348000D01*
X54000Y347000D01*
X55000D01*
X56000Y346000D01*
X36000D02*
X37000Y347000D01*
X38000D01*
X37000Y348000D01*
X38000Y349000D01*
X37000D01*
X36000Y350000D01*
X35000Y349000D01*
X34000D01*
X35000Y348000D01*
X34000Y347000D01*
X35000D01*
X36000Y346000D01*
X46000Y366000D02*
X47000Y367000D01*
X48000D01*
X47000Y368000D01*
X48000Y369000D01*
X47000D01*
X46000Y370000D01*
X45000Y369000D01*
X44000D01*
X45000Y368000D01*
X44000Y367000D01*
X45000D01*
X46000Y366000D01*
X57500Y81500D02*
Y85500D01*
X61500D01*
Y81500D01*
X57500D01*
X58300Y82300D02*
Y84700D01*
X60700D01*
Y82300D01*
X58300D01*
X57500Y101500D02*
Y105500D01*
X61500D01*
Y101500D01*
X57500D01*
X58300Y102300D02*
Y104700D01*
X60700D01*
Y102300D01*
X58300D01*
X37500Y101500D02*
Y105500D01*
X41500D01*
Y101500D01*
X37500D01*
X38300Y102300D02*
Y104700D01*
X40700D01*
Y102300D01*
X38300D01*
X37500Y81500D02*
Y85500D01*
X41500D01*
Y81500D01*
X37500D01*
X38300Y82300D02*
Y84700D01*
X40700D01*
Y82300D01*
X38300D01*
X9154Y23051D02*
X7153Y27051D01*
X11153D01*
X9154Y23051D01*
Y23851D02*
X7954Y26251D01*
X10353D01*
X9154Y23851D01*
X27933Y33720D02*
X28933Y34721D01*
X29933D01*
X28933Y35721D01*
X29933Y36720D01*
X28933D01*
X27933Y37721D01*
X26933Y36720D01*
X25933D01*
X26933Y35721D01*
X25933Y34721D01*
X26933D01*
X27933Y33720D01*
Y34521D02*
X28533Y35120D01*
X29133D01*
X28533Y35721D01*
X29133Y36320D01*
X28533D01*
X27933Y36920D01*
X27333Y36320D01*
X26733D01*
X27333Y35721D01*
X26733Y35120D01*
X27333D01*
X27933Y34521D01*
X37776Y33720D02*
X38776Y34721D01*
X39776D01*
X38776Y35721D01*
X39776Y36720D01*
X38776D01*
X37776Y37721D01*
X36776Y36720D01*
X35776D01*
X36776Y35721D01*
X35776Y34721D01*
X36776D01*
X37776Y33720D01*
Y34521D02*
X38376Y35120D01*
X38976D01*
X38376Y35721D01*
X38976Y36320D01*
X38376D01*
X37776Y36920D01*
X37176Y36320D01*
X36576D01*
X37176Y35721D01*
X36576Y35120D01*
X37176D01*
X37776Y34521D01*
X27933Y41594D02*
X28933Y42595D01*
X29933D01*
X28933Y43595D01*
X29933Y44594D01*
X28933D01*
X27933Y45594D01*
X26933Y44594D01*
X25933D01*
X26933Y43595D01*
X25933Y42595D01*
X26933D01*
X27933Y41594D01*
Y42395D02*
X28533Y42994D01*
X29133D01*
X28533Y43595D01*
X29133Y44194D01*
X28533D01*
X27933Y44794D01*
X27333Y44194D01*
X26733D01*
X27333Y43595D01*
X26733Y42994D01*
X27333D01*
X27933Y42395D01*
X37776Y41594D02*
X38776Y42595D01*
X39776D01*
X38776Y43595D01*
X39776Y44594D01*
X38776D01*
X37776Y45594D01*
X36776Y44594D01*
X35776D01*
X36776Y43595D01*
X35776Y42595D01*
X36776D01*
X37776Y41594D01*
Y42395D02*
X38376Y42994D01*
X38976D01*
X38376Y43595D01*
X38976Y44194D01*
X38376D01*
X37776Y44794D01*
X37176Y44194D01*
X36576D01*
X37176Y43595D01*
X36576Y42994D01*
X37176D01*
X37776Y42395D01*
X56555Y23051D02*
X54555Y27051D01*
X58555D01*
X56555Y23051D01*
Y23851D02*
X55355Y26251D01*
X57755D01*
X56555Y23851D01*
X380500Y81500D02*
X378500Y85500D01*
X382500D01*
X380500Y81500D01*
X370500D02*
X368500Y85500D01*
X372500D01*
X370500Y81500D01*
X158000Y236500D02*
Y240500D01*
X162000D01*
Y236500D01*
X158000D01*
Y246500D02*
Y250500D01*
X162000D01*
Y246500D01*
X158000D01*
X330000Y313500D02*
Y317500D01*
X334000D01*
Y313500D01*
X330000D01*
Y323500D02*
Y327500D01*
X334000D01*
Y323500D01*
X330000D01*
X112500Y213500D02*
X110500Y217500D01*
X114500D01*
X112500Y213500D01*
Y223500D02*
X110500Y227500D01*
X114500D01*
X112500Y223500D01*
X1500Y81500D02*
X-500Y85500D01*
X3500D01*
X1500Y81500D01*
Y91500D02*
X-500Y95500D01*
X3500D01*
X1500Y91500D01*
X19000Y245500D02*
Y249500D01*
X23000D01*
Y245500D01*
X19000D01*
Y255500D02*
Y259500D01*
X23000D01*
Y255500D01*
X19000D01*
X6000Y285500D02*
X4000Y289500D01*
X8000D01*
X6000Y285500D01*
X16000D02*
X14000Y289500D01*
X18000D01*
X16000Y285500D01*
X196000Y366000D02*
X197000Y367000D01*
X198000D01*
X197000Y368000D01*
X198000Y369000D01*
X197000D01*
X196000Y370000D01*
X195000Y369000D01*
X194000D01*
X195000Y368000D01*
X194000Y367000D01*
X195000D01*
X196000Y366000D01*
X186000Y346000D02*
X187000Y347000D01*
X188000D01*
X187000Y348000D01*
X188000Y349000D01*
X187000D01*
X186000Y350000D01*
X185000Y349000D01*
X184000D01*
X185000Y348000D01*
X184000Y347000D01*
X185000D01*
X186000Y346000D01*
X206000D02*
X207000Y347000D01*
X208000D01*
X207000Y348000D01*
X208000Y349000D01*
X207000D01*
X206000Y350000D01*
X205000Y349000D01*
X204000D01*
X205000Y348000D01*
X204000Y347000D01*
X205000D01*
X206000Y346000D01*
X149000Y234500D02*
X147000Y238500D01*
X151000D01*
X149000Y234500D01*
Y244500D02*
X147000Y248500D01*
X151000D01*
X149000Y244500D01*
X98000Y244000D02*
X96000Y248000D01*
X100000D01*
X98000Y244000D01*
X108000D02*
X106000Y248000D01*
X110000D01*
X108000Y244000D01*
X118000D02*
X116000Y248000D01*
X120000D01*
X118000Y244000D01*
X128000D02*
X126000Y248000D01*
X130000D01*
X128000Y244000D01*
X138000D02*
X136000Y248000D01*
X140000D01*
X138000Y244000D01*
X157047Y324500D02*
X155047Y328500D01*
X159047D01*
X157047Y324500D01*
Y314500D02*
X155047Y318500D01*
X159047D01*
X157047Y314500D01*
X147047Y324500D02*
X145047Y328500D01*
X149047D01*
X147047Y324500D01*
Y314500D02*
X145047Y318500D01*
X149047D01*
X147047Y314500D01*
X137047Y324500D02*
X135047Y328500D01*
X139047D01*
X137047Y324500D01*
Y314500D02*
X135047Y318500D01*
X139047D01*
X137047Y314500D01*
X127047Y324500D02*
X125047Y328500D01*
X129047D01*
X127047Y324500D01*
Y314500D02*
X125047Y318500D01*
X129047D01*
X127047Y314500D01*
X117047Y324500D02*
X115047Y328500D01*
X119047D01*
X117047Y324500D01*
Y314500D02*
X115047Y318500D01*
X119047D01*
X117047Y314500D01*
X107047Y324500D02*
X105047Y328500D01*
X109047D01*
X107047Y324500D01*
Y314500D02*
X105047Y318500D01*
X109047D01*
X107047Y314500D01*
X97047Y324500D02*
X95047Y328500D01*
X99047D01*
X97047Y324500D01*
Y314500D02*
X95047Y318500D01*
X99047D01*
X97047Y314500D01*
X87047Y324500D02*
X85047Y328500D01*
X89047D01*
X87047Y324500D01*
Y314500D02*
X85047Y318500D01*
X89047D01*
X87047Y314500D01*
X264500Y133500D02*
X262500Y137500D01*
X266500D01*
X264500Y133500D01*
Y123500D02*
X262500Y127500D01*
X266500D01*
X264500Y123500D01*
X254500Y133500D02*
X252500Y137500D01*
X256500D01*
X254500Y133500D01*
Y123500D02*
X252500Y127500D01*
X256500D01*
X254500Y123500D01*
X244500Y133500D02*
X242500Y137500D01*
X246500D01*
X244500Y133500D01*
Y123500D02*
X242500Y127500D01*
X246500D01*
X244500Y123500D01*
X234500Y133500D02*
X232500Y137500D01*
X236500D01*
X234500Y133500D01*
Y123500D02*
X232500Y127500D01*
X236500D01*
X234500Y123500D01*
X224500Y133500D02*
X222500Y137500D01*
X226500D01*
X224500Y133500D01*
Y123500D02*
X222500Y127500D01*
X226500D01*
X224500Y123500D01*
X276354Y11634D02*
X274354Y15634D01*
X278354D01*
X276354Y11634D01*
X266354D02*
X264354Y15634D01*
X268354D01*
X266354Y11634D01*
X256354D02*
X254354Y15634D01*
X258354D01*
X256354Y11634D01*
X94354D02*
X92354Y15634D01*
X96354D01*
X94354Y11634D01*
X104354D02*
X102354Y15634D01*
X106354D01*
X104354Y11634D01*
X114354D02*
X112354Y15634D01*
X116354D01*
X114354Y11634D01*
X195354Y12634D02*
X193354Y16634D01*
X197354D01*
X195354Y12634D01*
X185354D02*
X183354Y16634D01*
X187354D01*
X185354Y12634D01*
X175354D02*
X173354Y16634D01*
X177354D01*
X175354Y12634D01*
X337354Y11134D02*
X335354Y15134D01*
X339354D01*
X337354Y11134D01*
X347354D02*
X345354Y15134D01*
X349354D01*
X347354Y11134D01*
X357354D02*
X355354Y15134D01*
X359354D01*
X357354Y11134D01*
X225000Y94854D02*
X223000Y98854D01*
X227000D01*
X225000Y94854D01*
Y64146D02*
X223000Y68146D01*
X227000D01*
X225000Y64146D01*
X325669Y-6921D02*
X326669Y-4921D01*
X325669Y-2921D01*
X327669Y-3921D01*
X329669Y-2921D01*
X328669Y-4921D01*
X329669Y-6921D01*
X327669Y-5921D01*
X325669Y-6921D01*
X365039D02*
X366039Y-4921D01*
X365039Y-2921D01*
X367039Y-3921D01*
X369039Y-2921D01*
X368039Y-4921D01*
X369039Y-6921D01*
X367039Y-5921D01*
X365039Y-6921D01*
X355197D02*
X356197Y-4921D01*
X355197Y-2921D01*
X357197Y-3921D01*
X359197Y-2921D01*
X358197Y-4921D01*
X359197Y-6921D01*
X357197Y-5921D01*
X355197Y-6921D01*
X335512D02*
X336512Y-4921D01*
X335512Y-2921D01*
X337512Y-3921D01*
X339512Y-2921D01*
X338512Y-4921D01*
X339512Y-6921D01*
X337512Y-5921D01*
X335512Y-6921D01*
X345354Y32449D02*
X346354Y34449D01*
X345354Y36449D01*
X347354Y35449D01*
X349354Y36449D01*
X348354Y34449D01*
X349354Y32449D01*
X347354Y33449D01*
X345354Y32449D01*
X325669Y42291D02*
X326669Y44291D01*
X325669Y46291D01*
X327669Y45291D01*
X329669Y46291D01*
X328669Y44291D01*
X329669Y42291D01*
X327669Y43291D01*
X325669Y42291D01*
X315827Y32449D02*
X316827Y34449D01*
X315827Y36449D01*
X317827Y35449D01*
X319827Y36449D01*
X318827Y34449D01*
X319827Y32449D01*
X317827Y33449D01*
X315827Y32449D01*
X374882D02*
X375882Y34449D01*
X374882Y36449D01*
X376882Y35449D01*
X378882Y36449D01*
X377882Y34449D01*
X378882Y32449D01*
X376882Y33449D01*
X374882Y32449D01*
X365039Y42291D02*
X366039Y44291D01*
X365039Y46291D01*
X367039Y45291D01*
X369039Y46291D01*
X368039Y44291D01*
X369039Y42291D01*
X367039Y43291D01*
X365039Y42291D01*
X316354Y13449D02*
Y12449D01*
X318354D01*
Y13449D01*
X319354D01*
Y15449D01*
X318354D01*
Y16449D01*
X316354D01*
Y15449D01*
X315354D01*
Y13449D01*
X316354D01*
X376354D02*
Y12449D01*
X378354D01*
Y13449D01*
X379354D01*
Y15449D01*
X378354D01*
Y16449D01*
X376354D01*
Y15449D01*
X375354D01*
Y13449D01*
X376354D01*
X295354D02*
Y12449D01*
X297354D01*
Y13449D01*
X298354D01*
Y15449D01*
X297354D01*
Y16449D01*
X295354D01*
Y15449D01*
X294354D01*
Y13449D01*
X295354D01*
X235354D02*
Y12449D01*
X237354D01*
Y13449D01*
X238354D01*
Y15449D01*
X237354D01*
Y16449D01*
X235354D01*
Y15449D01*
X234354D01*
Y13449D01*
X235354D01*
X284039Y42291D02*
X285039Y44291D01*
X284039Y46291D01*
X286039Y45291D01*
X288039Y46291D01*
X287039Y44291D01*
X288039Y42291D01*
X286039Y43291D01*
X284039Y42291D01*
X293882Y32449D02*
X294882Y34449D01*
X293882Y36449D01*
X295882Y35449D01*
X297882Y36449D01*
X296882Y34449D01*
X297882Y32449D01*
X295882Y33449D01*
X293882Y32449D01*
X234827D02*
X235827Y34449D01*
X234827Y36449D01*
X236827Y35449D01*
X238827Y36449D01*
X237827Y34449D01*
X238827Y32449D01*
X236827Y33449D01*
X234827Y32449D01*
X244669Y42291D02*
X245669Y44291D01*
X244669Y46291D01*
X246669Y45291D01*
X248669Y46291D01*
X247669Y44291D01*
X248669Y42291D01*
X246669Y43291D01*
X244669Y42291D01*
X264354Y32449D02*
X265354Y34449D01*
X264354Y36449D01*
X266354Y35449D01*
X268354Y36449D01*
X267354Y34449D01*
X268354Y32449D01*
X266354Y33449D01*
X264354Y32449D01*
X254512Y-6921D02*
X255512Y-4921D01*
X254512Y-2921D01*
X256512Y-3921D01*
X258512Y-2921D01*
X257512Y-4921D01*
X258512Y-6921D01*
X256512Y-5921D01*
X254512Y-6921D01*
X274197D02*
X275197Y-4921D01*
X274197Y-2921D01*
X276197Y-3921D01*
X278197Y-2921D01*
X277197Y-4921D01*
X278197Y-6921D01*
X276197Y-5921D01*
X274197Y-6921D01*
X284039D02*
X285039Y-4921D01*
X284039Y-2921D01*
X286039Y-3921D01*
X288039Y-2921D01*
X287039Y-4921D01*
X288039Y-6921D01*
X286039Y-5921D01*
X284039Y-6921D01*
X244669D02*
X245669Y-4921D01*
X244669Y-2921D01*
X246669Y-3921D01*
X248669Y-2921D01*
X247669Y-4921D01*
X248669Y-6921D01*
X246669Y-5921D01*
X244669Y-6921D01*
X259500Y98000D02*
X257500Y102000D01*
X261500D01*
X259500Y98000D01*
Y88000D02*
X257500Y92000D01*
X261500D01*
X259500Y88000D01*
Y78000D02*
X257500Y82000D01*
X261500D01*
X259500Y78000D01*
Y68000D02*
X257500Y72000D01*
X261500D01*
X259500Y68000D01*
X289500Y98000D02*
X287500Y102000D01*
X291500D01*
X289500Y98000D01*
Y88000D02*
X287500Y92000D01*
X291500D01*
X289500Y88000D01*
Y78000D02*
X287500Y82000D01*
X291500D01*
X289500Y78000D01*
Y68000D02*
X287500Y72000D01*
X291500D01*
X289500Y68000D01*
X437323Y361268D02*
X435323Y365268D01*
X439323D01*
X437323Y361268D01*
Y351268D02*
X435323Y355268D01*
X439323D01*
X437323Y351268D01*
X427323Y361268D02*
X425323Y365268D01*
X429323D01*
X427323Y361268D01*
Y351268D02*
X425323Y355268D01*
X429323D01*
X427323Y351268D01*
X417323Y361268D02*
X415323Y365268D01*
X419323D01*
X417323Y361268D01*
Y351268D02*
X415323Y355268D01*
X419323D01*
X417323Y351268D01*
X407323Y361268D02*
X405323Y365268D01*
X409323D01*
X407323Y361268D01*
Y351268D02*
X405323Y355268D01*
X409323D01*
X407323Y351268D01*
X397323Y361268D02*
X395323Y365268D01*
X399323D01*
X397323Y361268D01*
Y351268D02*
X395323Y355268D01*
X399323D01*
X397323Y351268D01*
X356614Y361268D02*
X354614Y365268D01*
X358614D01*
X356614Y361268D01*
Y351268D02*
X354614Y355268D01*
X358614D01*
X356614Y351268D01*
X346614Y361268D02*
X344614Y365268D01*
X348614D01*
X346614Y361268D01*
Y351268D02*
X344614Y355268D01*
X348614D01*
X346614Y351268D01*
X336614Y361268D02*
X334614Y365268D01*
X338614D01*
X336614Y361268D01*
Y351268D02*
X334614Y355268D01*
X338614D01*
X336614Y351268D01*
X326614Y361268D02*
X324614Y365268D01*
X328614D01*
X326614Y361268D01*
Y351268D02*
X324614Y355268D01*
X328614D01*
X326614Y351268D01*
X316614Y361268D02*
X314614Y365268D01*
X318614D01*
X316614Y361268D01*
Y351268D02*
X314614Y355268D01*
X318614D01*
X316614Y351268D01*
X305827Y317961D02*
X303827Y321961D01*
X307827D01*
X305827Y317961D01*
Y307961D02*
X303827Y311961D01*
X307827D01*
X305827Y307961D01*
X295827Y317961D02*
X293827Y321961D01*
X297827D01*
X295827Y317961D01*
Y307961D02*
X293827Y311961D01*
X297827D01*
X295827Y307961D01*
X285827Y317961D02*
X283827Y321961D01*
X287827D01*
X285827Y317961D01*
Y307961D02*
X283827Y311961D01*
X287827D01*
X285827Y307961D01*
X275827Y317961D02*
X273827Y321961D01*
X277827D01*
X275827Y317961D01*
Y307961D02*
X273827Y311961D01*
X277827D01*
X275827Y307961D01*
X265827Y317961D02*
X263827Y321961D01*
X267827D01*
X265827Y317961D01*
Y307961D02*
X263827Y311961D01*
X267827D01*
X265827Y307961D01*
X275905Y361268D02*
X273905Y365268D01*
X277906D01*
X275905Y361268D01*
Y351268D02*
X273905Y355268D01*
X277906D01*
X275905Y351268D01*
X265905Y361268D02*
X263906Y365268D01*
X267905D01*
X265905Y361268D01*
Y351268D02*
X263906Y355268D01*
X267905D01*
X265905Y351268D01*
X255906Y361268D02*
X253906Y365268D01*
X257906D01*
X255906Y361268D01*
Y351268D02*
X253906Y355268D01*
X257906D01*
X255906Y351268D01*
X245905Y361268D02*
X243905Y365268D01*
X247905D01*
X245905Y361268D01*
Y351268D02*
X243905Y355268D01*
X247905D01*
X245905Y351268D01*
X235906Y361268D02*
X233906Y365268D01*
X237906D01*
X235906Y361268D01*
Y351268D02*
X233906Y355268D01*
X237906D01*
X235906Y351268D01*
X138000Y206976D02*
X136000Y210976D01*
X140000D01*
X138000Y206976D01*
X148000D02*
X146000Y210976D01*
X150000D01*
X148000Y206976D01*
X138000Y196976D02*
X136000Y200976D01*
X140000D01*
X138000Y196976D01*
X148000D02*
X146000Y200976D01*
X150000D01*
X148000Y196976D01*
X138000Y186976D02*
X136000Y190976D01*
X140000D01*
X138000Y186976D01*
X148000D02*
X146000Y190976D01*
X150000D01*
X148000Y186976D01*
X138000Y176976D02*
X136000Y180976D01*
X140000D01*
X138000Y176976D01*
X148000D02*
X146000Y180976D01*
X150000D01*
X148000Y176976D01*
X138000Y166976D02*
X136000Y170976D01*
X140000D01*
X138000Y166976D01*
X148000D02*
X146000Y170976D01*
X150000D01*
X148000Y166976D01*
X186500Y299500D02*
X184500Y303500D01*
X188500D01*
X186500Y299500D01*
X196500D02*
X194500Y303500D01*
X198500D01*
X196500Y299500D01*
X206500D02*
X204500Y303500D01*
X208500D01*
X206500Y299500D01*
X216500D02*
X214500Y303500D01*
X218500D01*
X216500Y299500D01*
X-2000Y-2000D02*
X-1000Y0D01*
X-2000Y2000D01*
X0Y1000D01*
X2000Y2000D01*
X1000Y0D01*
X2000Y-2000D01*
X0Y-1000D01*
X-2000Y-2000D01*
X-1200Y-1200D02*
X-600Y0D01*
X-1200Y1200D01*
X0Y600D01*
X1200Y1200D01*
X600Y0D01*
X1200Y-1200D01*
X0Y-600D01*
X-1200Y-1200D01*
X16354Y63500D02*
Y62500D01*
X18354D01*
Y63500D01*
X19354D01*
Y65500D01*
X18354D01*
Y66500D01*
X16354D01*
Y65500D01*
X15354D01*
Y63500D01*
X16354D01*
X373104D02*
Y62500D01*
X375104D01*
Y63500D01*
X376104D01*
Y65500D01*
X375104D01*
Y66500D01*
X373104D01*
Y65500D01*
X372104D01*
Y63500D01*
X373104D01*
X10811Y313961D02*
Y312961D01*
X12811D01*
Y313961D01*
X13811D01*
Y315961D01*
X12811D01*
Y316961D01*
X10811D01*
Y315961D01*
X9811D01*
Y313961D01*
X10811D01*
X449787D02*
Y312961D01*
X451787D01*
Y313961D01*
X452787D01*
Y315961D01*
X451787D01*
Y316961D01*
X449787D01*
Y315961D01*
X448787D01*
Y313961D01*
X449787D01*
X170000Y159500D02*
Y158500D01*
X172000D01*
Y159500D01*
X173000D01*
Y161500D01*
X172000D01*
Y162500D01*
X170000D01*
Y161500D01*
X169000D01*
Y159500D01*
X170000D01*
X170400Y159900D02*
Y159300D01*
X171600D01*
Y159900D01*
X172200D01*
Y161100D01*
X171600D01*
Y161700D01*
X170400D01*
Y161100D01*
X169800D01*
Y159900D01*
X170400D01*
X161500Y214000D02*
Y213000D01*
X163500D01*
Y214000D01*
X164500D01*
Y216000D01*
X163500D01*
Y217000D01*
X161500D01*
Y216000D01*
X160500D01*
Y214000D01*
X161500D01*
X161900Y214400D02*
Y213800D01*
X163100D01*
Y214400D01*
X163700D01*
Y215600D01*
X163100D01*
Y216200D01*
X161900D01*
Y215600D01*
X161300D01*
Y214400D01*
X161900D01*
X30531Y649473D02*
Y648373D01*
X32730D01*
Y649473D01*
X33830D01*
Y651673D01*
X32730D01*
Y652773D01*
X30531D01*
Y651673D01*
X29430D01*
Y649473D01*
X30531D01*
X30931Y649873D02*
Y649173D01*
X32331D01*
Y649873D01*
X33031D01*
Y651273D01*
X32331D01*
Y651973D01*
X30931D01*
Y651273D01*
X30231D01*
Y649873D01*
X30931D01*
X29430Y636562D02*
Y640962D01*
X33830D01*
Y636562D01*
X29430D01*
Y624751D02*
Y629151D01*
X33830D01*
Y624751D01*
X29430D01*
X30231Y625551D02*
Y628351D01*
X33031D01*
Y625551D01*
X30231D01*
X31631Y601129D02*
X29430Y605529D01*
X33830D01*
X31631Y601129D01*
Y589318D02*
X32730Y590418D01*
X33830D01*
X32730Y591518D01*
X33830Y592618D01*
X32730D01*
X31631Y593718D01*
X30531Y592618D01*
X29430D01*
X30531Y591518D01*
X29430Y590418D01*
X30531D01*
X31631Y589318D01*
Y590118D02*
X32331Y590818D01*
X33031D01*
X32331Y591518D01*
X33031Y592218D01*
X32331D01*
X31631Y592918D01*
X30931Y592218D01*
X30231D01*
X30931Y591518D01*
X30231Y590818D01*
X30931D01*
X31631Y590118D01*
X29430Y577507D02*
X30531Y579707D01*
X29430Y581907D01*
X31631Y580807D01*
X33830Y581907D01*
X32730Y579707D01*
X33830Y577507D01*
X31631Y578607D01*
X29430Y577507D01*
X30231Y578307D02*
X30931Y579707D01*
X30231Y581107D01*
X31631Y580407D01*
X33031Y581107D01*
X32331Y579707D01*
X33031Y578307D01*
X31631Y579007D01*
X30231Y578307D01*
X31631Y565696D02*
X32730Y566796D01*
X33830D01*
X32730Y567896D01*
X33830Y568996D01*
X32730D01*
X31631Y570096D01*
X30531Y568996D01*
X29430D01*
X30531Y567896D01*
X29430Y566796D01*
X30531D01*
X31631Y565696D01*
X29430Y542074D02*
X30531Y544274D01*
X29430Y546474D01*
X31631Y545374D01*
X33830Y546474D01*
X32730Y544274D01*
X33830Y542074D01*
X31631Y543174D01*
X29430Y542074D01*
Y530263D02*
X30531D01*
X31631Y531363D01*
X32730Y530263D01*
X33830D01*
Y531363D01*
X32730Y532463D01*
X33830Y533563D01*
Y534663D01*
X32730D01*
X31631Y533563D01*
X30531Y534663D01*
X29430D01*
Y533563D01*
X30531Y532463D01*
X29430Y531363D01*
Y530263D01*
X31631Y518452D02*
X29430Y522852D01*
X33830D01*
X31631Y518452D01*
Y519252D02*
X30231Y522052D01*
X33031D01*
X31631Y519252D01*
X30531Y507741D02*
Y506641D01*
X32730D01*
Y507741D01*
X33830D01*
Y509941D01*
X32730D01*
Y511041D01*
X30531D01*
Y509941D01*
X29430D01*
Y507741D01*
X30531D01*
X29430Y497030D02*
X31631Y499230D01*
X33830Y497030D01*
X31631Y494830D01*
X29430Y497030D01*
D71*
X8299Y170500D02*
G03*
X8299Y170500I-2000J0D01*
G01*
Y160500D02*
G03*
X8299Y160500I-2000J0D01*
G01*
Y150500D02*
G03*
X8299Y150500I-2000J0D01*
G01*
X419000Y99500D02*
G03*
X419000Y99500I-2000J0D01*
G01*
Y69500D02*
G03*
X419000Y69500I-2000J0D01*
G01*
X8299Y233177D02*
G03*
X8299Y233177I-2000J0D01*
G01*
Y243177D02*
G03*
X8299Y243177I-2000J0D01*
G01*
Y253177D02*
G03*
X8299Y253177I-2000J0D01*
G01*
X60000Y329000D02*
G03*
X60000Y329000I-2000J0D01*
G01*
Y299000D02*
G03*
X60000Y299000I-2000J0D01*
G01*
X77000Y289000D02*
G03*
X77000Y289000I-2000J0D01*
G01*
Y259000D02*
G03*
X77000Y259000I-2000J0D01*
G01*
X243000Y97000D02*
G03*
X243000Y97000I-2000J0D01*
G01*
Y67000D02*
G03*
X243000Y67000I-2000J0D01*
G01*
X361000Y67500D02*
G03*
X361000Y67500I-2000J0D01*
G01*
Y97500D02*
G03*
X361000Y97500I-2000J0D01*
G01*
X336500Y98500D02*
G03*
X336500Y98500I-2000J0D01*
G01*
Y68500D02*
G03*
X336500Y68500I-2000J0D01*
G01*
X310500Y68000D02*
G03*
X310500Y68000I-2000J0D01*
G01*
Y98000D02*
G03*
X310500Y98000I-2000J0D01*
G01*
X322000Y99000D02*
G03*
X322000Y99000I-2000J0D01*
G01*
Y69000D02*
G03*
X322000Y69000I-2000J0D01*
G01*
X207000Y68000D02*
G03*
X207000Y68000I-2000J0D01*
G01*
Y98000D02*
G03*
X207000Y98000I-2000J0D01*
G01*
X194500D02*
G03*
X194500Y98000I-2000J0D01*
G01*
Y68000D02*
G03*
X194500Y68000I-2000J0D01*
G01*
X168500D02*
G03*
X168500Y68000I-2000J0D01*
G01*
Y98000D02*
G03*
X168500Y98000I-2000J0D01*
G01*
X182000D02*
G03*
X182000Y98000I-2000J0D01*
G01*
Y68000D02*
G03*
X182000Y68000I-2000J0D01*
G01*
X104500Y97500D02*
G03*
X104500Y97500I-2000J0D01*
G01*
Y67500D02*
G03*
X104500Y67500I-2000J0D01*
G01*
X192000Y316000D02*
G03*
X192000Y316000I-2000J0D01*
G01*
X222000D02*
G03*
X222000Y316000I-2000J0D01*
G01*
X192000Y328000D02*
G03*
X192000Y328000I-2000J0D01*
G01*
X222000D02*
G03*
X222000Y328000I-2000J0D01*
G01*
X298000Y112000D02*
G03*
X298000Y112000I-2000J0D01*
G01*
X328000D02*
G03*
X328000Y112000I-2000J0D01*
G01*
X297500Y124500D02*
G03*
X297500Y124500I-2000J0D01*
G01*
X327500D02*
G03*
X327500Y124500I-2000J0D01*
G01*
D72*
X418200Y99500D02*
G03*
X418200Y99500I-1200J0D01*
G01*
Y69500D02*
G03*
X418200Y69500I-1200J0D01*
G01*
X59200Y329000D02*
G03*
X59200Y329000I-1200J0D01*
G01*
Y299000D02*
G03*
X59200Y299000I-1200J0D01*
G01*
X76200Y289000D02*
G03*
X76200Y289000I-1200J0D01*
G01*
Y259000D02*
G03*
X76200Y259000I-1200J0D01*
G01*
X242200Y97000D02*
G03*
X242200Y97000I-1200J0D01*
G01*
Y67000D02*
G03*
X242200Y67000I-1200J0D01*
G01*
X360200Y67500D02*
G03*
X360200Y67500I-1200J0D01*
G01*
Y97500D02*
G03*
X360200Y97500I-1200J0D01*
G01*
X335700Y98500D02*
G03*
X335700Y98500I-1200J0D01*
G01*
Y68500D02*
G03*
X335700Y68500I-1200J0D01*
G01*
X309700Y68000D02*
G03*
X309700Y68000I-1200J0D01*
G01*
Y98000D02*
G03*
X309700Y98000I-1200J0D01*
G01*
X321200Y99000D02*
G03*
X321200Y99000I-1200J0D01*
G01*
Y69000D02*
G03*
X321200Y69000I-1200J0D01*
G01*
X206200Y68000D02*
G03*
X206200Y68000I-1200J0D01*
G01*
Y98000D02*
G03*
X206200Y98000I-1200J0D01*
G01*
X193700D02*
G03*
X193700Y98000I-1200J0D01*
G01*
Y68000D02*
G03*
X193700Y68000I-1200J0D01*
G01*
X167700D02*
G03*
X167700Y68000I-1200J0D01*
G01*
Y98000D02*
G03*
X167700Y98000I-1200J0D01*
G01*
X181200D02*
G03*
X181200Y98000I-1200J0D01*
G01*
Y68000D02*
G03*
X181200Y68000I-1200J0D01*
G01*
X103700Y97500D02*
G03*
X103700Y97500I-1200J0D01*
G01*
Y67500D02*
G03*
X103700Y67500I-1200J0D01*
G01*
X191200Y316000D02*
G03*
X191200Y316000I-1200J0D01*
G01*
X221200D02*
G03*
X221200Y316000I-1200J0D01*
G01*
X191200Y328000D02*
G03*
X191200Y328000I-1200J0D01*
G01*
X221200D02*
G03*
X221200Y328000I-1200J0D01*
G01*
X297200Y112000D02*
G03*
X297200Y112000I-1200J0D01*
G01*
X327200D02*
G03*
X327200Y112000I-1200J0D01*
G01*
X296700Y124500D02*
G03*
X296700Y124500I-1200J0D01*
G01*
X326700D02*
G03*
X326700Y124500I-1200J0D01*
G01*
D73*
X34154Y667867D02*
X33479Y668542D01*
X32467Y668879D01*
X31117D01*
X30105Y668542D01*
X29430Y667867D01*
Y667192D01*
X29768Y666517D01*
X30105Y666180D01*
X30780Y665842D01*
X32804Y665168D01*
X33479Y664830D01*
X33816Y664493D01*
X34154Y663818D01*
Y662806D01*
X33479Y662131D01*
X32467Y661794D01*
X31117D01*
X30105Y662131D01*
X29430Y662806D01*
X36077Y666517D02*
X38101Y661794D01*
X40126Y666517D02*
X38101Y661794D01*
X37426Y660444D01*
X36752Y659769D01*
X36077Y659432D01*
X35740D01*
X41306Y666517D02*
Y661794D01*
Y665168D02*
X42319Y666180D01*
X42993Y666517D01*
X44006D01*
X44680Y666180D01*
X45018Y665168D01*
Y661794D01*
Y665168D02*
X46030Y666180D01*
X46705Y666517D01*
X47717D01*
X48392Y666180D01*
X48729Y665168D01*
Y661794D01*
X50956Y668879D02*
Y661794D01*
Y665505D02*
X51630Y666180D01*
X52305Y666517D01*
X53317D01*
X53992Y666180D01*
X54667Y665505D01*
X55004Y664493D01*
Y663818D01*
X54667Y662806D01*
X53992Y662131D01*
X53317Y661794D01*
X52305D01*
X51630Y662131D01*
X50956Y662806D01*
X58210Y666517D02*
X57535Y666180D01*
X56860Y665505D01*
X56523Y664493D01*
Y663818D01*
X56860Y662806D01*
X57535Y662131D01*
X58210Y661794D01*
X59222D01*
X59896Y662131D01*
X60571Y662806D01*
X60909Y663818D01*
Y664493D01*
X60571Y665505D01*
X59896Y666180D01*
X59222Y666517D01*
X58210D01*
X62461Y668879D02*
Y661794D01*
X75216Y668879D02*
Y661794D01*
X79940Y668879D02*
Y661794D01*
X75216Y665505D02*
X79940D01*
X82571Y668879D02*
X82909Y668542D01*
X83246Y668879D01*
X82909Y669216D01*
X82571Y668879D01*
X82909Y666517D02*
Y661794D01*
X85507Y668879D02*
Y663143D01*
X85844Y662131D01*
X86519Y661794D01*
X87194D01*
X84495Y666517D02*
X86856D01*
X98833Y667192D02*
X98496Y667867D01*
X97821Y668542D01*
X97146Y668879D01*
X95797D01*
X95122Y668542D01*
X94447Y667867D01*
X94110Y667192D01*
X93773Y666180D01*
Y664493D01*
X94110Y663481D01*
X94447Y662806D01*
X95122Y662131D01*
X95797Y661794D01*
X97146D01*
X97821Y662131D01*
X98496Y662806D01*
X98833Y663481D01*
X102511Y666517D02*
X101836Y666180D01*
X101161Y665505D01*
X100824Y664493D01*
Y663818D01*
X101161Y662806D01*
X101836Y662131D01*
X102511Y661794D01*
X103523D01*
X104198Y662131D01*
X104873Y662806D01*
X105210Y663818D01*
Y664493D01*
X104873Y665505D01*
X104198Y666180D01*
X103523Y666517D01*
X102511D01*
X106762D02*
Y663143D01*
X107099Y662131D01*
X107774Y661794D01*
X108786D01*
X109461Y662131D01*
X110473Y663143D01*
Y666517D02*
Y661794D01*
X112329Y666517D02*
Y661794D01*
Y665168D02*
X113341Y666180D01*
X114016Y666517D01*
X115028D01*
X115703Y666180D01*
X116040Y665168D01*
Y661794D01*
X118908Y668879D02*
Y663143D01*
X119245Y662131D01*
X119920Y661794D01*
X120595D01*
X117896Y666517D02*
X120257D01*
X133351Y668879D02*
Y661794D01*
Y668879D02*
X137737D01*
X133351Y665505D02*
X136050D01*
X139221Y668879D02*
X139558Y668542D01*
X139896Y668879D01*
X139558Y669216D01*
X139221Y668879D01*
X139558Y666517D02*
Y661794D01*
X141144Y666517D02*
Y661794D01*
Y665168D02*
X142156Y666180D01*
X142831Y666517D01*
X143843D01*
X144518Y666180D01*
X144855Y665168D01*
Y661794D01*
X147386Y668879D02*
X147723Y668542D01*
X148061Y668879D01*
X147723Y669216D01*
X147386Y668879D01*
X147723Y666517D02*
Y661794D01*
X153020Y665505D02*
X152683Y666180D01*
X151671Y666517D01*
X150659D01*
X149646Y666180D01*
X149309Y665505D01*
X149646Y664830D01*
X150321Y664493D01*
X152008Y664156D01*
X152683Y663818D01*
X153020Y663143D01*
Y662806D01*
X152683Y662131D01*
X151671Y661794D01*
X150659D01*
X149646Y662131D01*
X149309Y662806D01*
X154505Y668879D02*
Y661794D01*
Y665168D02*
X155517Y666180D01*
X156192Y666517D01*
X157204D01*
X157878Y666180D01*
X158216Y665168D01*
Y661794D01*
X160072Y664493D02*
X164120D01*
Y665168D01*
X163783Y665842D01*
X163445Y666180D01*
X162771Y666517D01*
X161758D01*
X161084Y666180D01*
X160409Y665505D01*
X160072Y664493D01*
Y663818D01*
X160409Y662806D01*
X161084Y662131D01*
X161758Y661794D01*
X162771D01*
X163445Y662131D01*
X164120Y662806D01*
X169687Y668879D02*
Y661794D01*
Y665505D02*
X169012Y666180D01*
X168338Y666517D01*
X167325D01*
X166651Y666180D01*
X165976Y665505D01*
X165638Y664493D01*
Y663818D01*
X165976Y662806D01*
X166651Y662131D01*
X167325Y661794D01*
X168338D01*
X169012Y662131D01*
X169687Y662806D01*
X177143Y668879D02*
Y661794D01*
X181867Y668879D02*
Y661794D01*
X177143Y665505D02*
X181867D01*
X185510Y666517D02*
X184836Y666180D01*
X184161Y665505D01*
X183824Y664493D01*
Y663818D01*
X184161Y662806D01*
X184836Y662131D01*
X185510Y661794D01*
X186523D01*
X187197Y662131D01*
X187872Y662806D01*
X188209Y663818D01*
Y664493D01*
X187872Y665505D01*
X187197Y666180D01*
X186523Y666517D01*
X185510D01*
X189761Y668879D02*
Y661794D01*
X191246Y664493D02*
X195295D01*
Y665168D01*
X194957Y665842D01*
X194620Y666180D01*
X193945Y666517D01*
X192933D01*
X192258Y666180D01*
X191583Y665505D01*
X191246Y664493D01*
Y663818D01*
X191583Y662806D01*
X192258Y662131D01*
X192933Y661794D01*
X193945D01*
X194620Y662131D01*
X195295Y662806D01*
X207103Y667867D02*
X206428Y668542D01*
X205416Y668879D01*
X204067D01*
X203054Y668542D01*
X202380Y667867D01*
Y667192D01*
X202717Y666517D01*
X203054Y666180D01*
X203729Y665842D01*
X205753Y665168D01*
X206428Y664830D01*
X206766Y664493D01*
X207103Y663818D01*
Y662806D01*
X206428Y662131D01*
X205416Y661794D01*
X204067D01*
X203054Y662131D01*
X202380Y662806D01*
X209364Y668879D02*
X209701Y668542D01*
X210038Y668879D01*
X209701Y669216D01*
X209364Y668879D01*
X209701Y666517D02*
Y661794D01*
X214998Y666517D02*
X211287Y661794D01*
Y666517D02*
X214998D01*
X211287Y661794D02*
X214998D01*
X216482Y664493D02*
X220531D01*
Y665168D01*
X220194Y665842D01*
X219856Y666180D01*
X219181Y666517D01*
X218169D01*
X217495Y666180D01*
X216820Y665505D01*
X216482Y664493D01*
Y663818D01*
X216820Y662806D01*
X217495Y662131D01*
X218169Y661794D01*
X219181D01*
X219856Y662131D01*
X220531Y662806D01*
X233287Y665168D02*
X236323D01*
X237335Y665505D01*
X237673Y665842D01*
X238010Y666517D01*
Y667529D01*
X237673Y668204D01*
X237335Y668542D01*
X236323Y668879D01*
X233287D01*
Y661794D01*
X239596Y668879D02*
Y661794D01*
X245129Y666517D02*
Y661794D01*
Y665505D02*
X244454Y666180D01*
X243780Y666517D01*
X242767D01*
X242093Y666180D01*
X241418Y665505D01*
X241080Y664493D01*
Y663818D01*
X241418Y662806D01*
X242093Y662131D01*
X242767Y661794D01*
X243780D01*
X244454Y662131D01*
X245129Y662806D01*
X248031Y668879D02*
Y663143D01*
X248368Y662131D01*
X249043Y661794D01*
X249718D01*
X247019Y666517D02*
X249380D01*
X250730Y664493D02*
X254778D01*
Y665168D01*
X254441Y665842D01*
X254104Y666180D01*
X253429Y666517D01*
X252417D01*
X251742Y666180D01*
X251067Y665505D01*
X250730Y664493D01*
Y663818D01*
X251067Y662806D01*
X251742Y662131D01*
X252417Y661794D01*
X253429D01*
X254104Y662131D01*
X254778Y662806D01*
X260345Y668879D02*
Y661794D01*
Y665505D02*
X259670Y666180D01*
X258996Y666517D01*
X257983D01*
X257309Y666180D01*
X256634Y665505D01*
X256297Y664493D01*
Y663818D01*
X256634Y662806D01*
X257309Y662131D01*
X257983Y661794D01*
X258996D01*
X259670Y662131D01*
X260345Y662806D01*
X273101Y668879D02*
Y661794D01*
X277824Y668879D02*
Y661794D01*
X273101Y665505D02*
X277824D01*
X281468Y666517D02*
X280793Y666180D01*
X280119Y665505D01*
X279781Y664493D01*
Y663818D01*
X280119Y662806D01*
X280793Y662131D01*
X281468Y661794D01*
X282480D01*
X283155Y662131D01*
X283830Y662806D01*
X284167Y663818D01*
Y664493D01*
X283830Y665505D01*
X283155Y666180D01*
X282480Y666517D01*
X281468D01*
X285719Y668879D02*
Y661794D01*
X287204Y664493D02*
X291252D01*
Y665168D01*
X290915Y665842D01*
X290578Y666180D01*
X289903Y666517D01*
X288891D01*
X288216Y666180D01*
X287541Y665505D01*
X287204Y664493D01*
Y663818D01*
X287541Y662806D01*
X288216Y662131D01*
X288891Y661794D01*
X289903D01*
X290578Y662131D01*
X291252Y662806D01*
X300699Y668879D02*
Y661794D01*
X298338Y668879D02*
X303061D01*
X304242Y666517D02*
X306266Y661794D01*
X308290Y666517D02*
X306266Y661794D01*
X305591Y660444D01*
X304917Y659769D01*
X304242Y659432D01*
X303904D01*
X309471Y666517D02*
Y659432D01*
Y665505D02*
X310146Y666180D01*
X310821Y666517D01*
X311833D01*
X312508Y666180D01*
X313182Y665505D01*
X313520Y664493D01*
Y663818D01*
X313182Y662806D01*
X312508Y662131D01*
X311833Y661794D01*
X310821D01*
X310146Y662131D01*
X309471Y662806D01*
X315038Y664493D02*
X319087D01*
Y665168D01*
X318749Y665842D01*
X318412Y666180D01*
X317737Y666517D01*
X316725D01*
X316050Y666180D01*
X315375Y665505D01*
X315038Y664493D01*
Y663818D01*
X315375Y662806D01*
X316050Y662131D01*
X316725Y661794D01*
X317737D01*
X318412Y662131D01*
X319087Y662806D01*
X20454Y672424D02*
X331843D01*
X20454Y656479D02*
X331843D01*
X20454Y672424D02*
Y479314D01*
X331843Y672424D02*
Y479314D01*
X70728Y672424D02*
Y479314D01*
X128862Y672424D02*
Y479314D01*
X228799Y672424D02*
Y479314D01*
X268613Y672424D02*
Y479314D01*
X20454Y491125D02*
X331843D01*
X20454Y479314D02*
X331843D01*
D74*
X75498Y652119D02*
Y652400D01*
X75779Y652963D01*
X76060Y653244D01*
X76622Y653525D01*
X77747D01*
X78309Y653244D01*
X78590Y652963D01*
X78871Y652400D01*
Y651838D01*
X78590Y651276D01*
X78028Y650432D01*
X75216Y647621D01*
X79153D01*
X133351Y652400D02*
X133913Y652681D01*
X134756Y653525D01*
Y647621D01*
X138243Y653525D02*
X141335D01*
X139648Y651276D01*
X140492D01*
X141054Y650994D01*
X141335Y650713D01*
X141617Y649870D01*
Y649308D01*
X141335Y648464D01*
X140773Y647902D01*
X139930Y647621D01*
X139086D01*
X138243Y647902D01*
X137962Y648183D01*
X137680Y648745D01*
X143219Y648183D02*
X142938Y647902D01*
X143219Y647621D01*
X143500Y647902D01*
X143219Y648183D01*
X148730Y653525D02*
X145918Y647621D01*
X144794Y653525D02*
X148730D01*
X151457D02*
X150613Y653244D01*
X150332Y652681D01*
Y652119D01*
X150613Y651557D01*
X151176Y651276D01*
X152300Y650994D01*
X153144Y650713D01*
X153706Y650151D01*
X153987Y649589D01*
Y648745D01*
X153706Y648183D01*
X153425Y647902D01*
X152582Y647621D01*
X151457D01*
X150613Y647902D01*
X150332Y648183D01*
X150051Y648745D01*
Y649589D01*
X150332Y650151D01*
X150895Y650713D01*
X151738Y650994D01*
X152863Y651276D01*
X153425Y651557D01*
X153706Y652119D01*
Y652681D01*
X153425Y653244D01*
X152582Y653525D01*
X151457D01*
X155309Y651557D02*
Y647621D01*
Y650432D02*
X156152Y651276D01*
X156715Y651557D01*
X157558D01*
X158120Y651276D01*
X158402Y650432D01*
Y647621D01*
Y650432D02*
X159245Y651276D01*
X159807Y651557D01*
X160651D01*
X161213Y651276D01*
X161494Y650432D01*
Y647621D01*
X163912Y653525D02*
X164193Y653244D01*
X164474Y653525D01*
X164193Y653806D01*
X163912Y653525D01*
X164193Y651557D02*
Y647621D01*
X165515Y653525D02*
Y647621D01*
X173359Y654649D02*
X172797Y654087D01*
X172234Y653244D01*
X171672Y652119D01*
X171391Y650713D01*
Y649589D01*
X171672Y648183D01*
X172234Y647058D01*
X172797Y646215D01*
X173359Y645653D01*
X172797Y654087D02*
X172234Y652963D01*
X171953Y652119D01*
X171672Y650713D01*
Y649589D01*
X171953Y648183D01*
X172234Y647339D01*
X172797Y646215D01*
X176171Y653525D02*
X175327Y653244D01*
X174765Y652400D01*
X174484Y650994D01*
Y650151D01*
X174765Y648745D01*
X175327Y647902D01*
X176171Y647621D01*
X176733D01*
X177576Y647902D01*
X178138Y648745D01*
X178420Y650151D01*
Y650994D01*
X178138Y652400D01*
X177576Y653244D01*
X176733Y653525D01*
X176171D01*
X180022Y648183D02*
X179741Y647902D01*
X180022Y647621D01*
X180303Y647902D01*
X180022Y648183D01*
X182159Y653525D02*
X185252D01*
X183565Y651276D01*
X184408D01*
X184971Y650994D01*
X185252Y650713D01*
X185533Y649870D01*
Y649308D01*
X185252Y648464D01*
X184689Y647902D01*
X183846Y647621D01*
X183002D01*
X182159Y647902D01*
X181878Y648183D01*
X181597Y648745D01*
X190228Y653525D02*
X187417D01*
X187136Y650994D01*
X187417Y651276D01*
X188260Y651557D01*
X189104D01*
X189947Y651276D01*
X190509Y650713D01*
X190790Y649870D01*
Y649308D01*
X190509Y648464D01*
X189947Y647902D01*
X189104Y647621D01*
X188260D01*
X187417Y647902D01*
X187136Y648183D01*
X186854Y648745D01*
X192112Y651557D02*
Y647621D01*
Y650432D02*
X192955Y651276D01*
X193518Y651557D01*
X194361D01*
X194923Y651276D01*
X195205Y650432D01*
Y647621D01*
Y650432D02*
X196048Y651276D01*
X196610Y651557D01*
X197454D01*
X198016Y651276D01*
X198297Y650432D01*
Y647621D01*
X200153Y651557D02*
Y647621D01*
Y650432D02*
X200996Y651276D01*
X201559Y651557D01*
X202402D01*
X202964Y651276D01*
X203246Y650432D01*
Y647621D01*
Y650432D02*
X204089Y651276D01*
X204651Y651557D01*
X205495D01*
X206057Y651276D01*
X206338Y650432D01*
Y647621D01*
X208194Y654649D02*
X208756Y654087D01*
X209319Y653244D01*
X209881Y652119D01*
X210162Y650713D01*
Y649589D01*
X209881Y648183D01*
X209319Y647058D01*
X208756Y646215D01*
X208194Y645653D01*
X208756Y654087D02*
X209319Y652963D01*
X209600Y652119D01*
X209881Y650713D01*
Y649589D01*
X209600Y648183D01*
X209319Y647339D01*
X208756Y646215D01*
X233287Y650432D02*
X235817D01*
X236661Y650713D01*
X236942Y650994D01*
X237223Y651557D01*
Y652400D01*
X236942Y652963D01*
X236661Y653244D01*
X235817Y653525D01*
X233287D01*
Y647621D01*
X240513Y653525D02*
Y647621D01*
X238545Y653525D02*
X242481D01*
X243183D02*
Y647621D01*
X247120Y653525D02*
Y647621D01*
X243183Y650713D02*
X247120D01*
X273101Y653525D02*
Y647621D01*
Y653525D02*
X275631D01*
X276475Y653244D01*
X276756Y652963D01*
X277037Y652400D01*
Y651838D01*
X276756Y651276D01*
X276475Y650994D01*
X275631Y650713D01*
X273101D01*
X275069D02*
X277037Y647621D01*
X279764Y651557D02*
X279202Y651276D01*
X278640Y650713D01*
X278359Y649870D01*
Y649308D01*
X278640Y648464D01*
X279202Y647902D01*
X279764Y647621D01*
X280608D01*
X281170Y647902D01*
X281733Y648464D01*
X282014Y649308D01*
Y649870D01*
X281733Y650713D01*
X281170Y651276D01*
X280608Y651557D01*
X279764D01*
X283307D02*
Y648745D01*
X283588Y647902D01*
X284151Y647621D01*
X284994D01*
X285556Y647902D01*
X286400Y648745D01*
Y651557D02*
Y647621D01*
X287946Y651557D02*
Y647621D01*
Y650432D02*
X288790Y651276D01*
X289352Y651557D01*
X290195D01*
X290758Y651276D01*
X291039Y650432D01*
Y647621D01*
X295959Y653525D02*
Y647621D01*
Y650713D02*
X295397Y651276D01*
X294834Y651557D01*
X293991D01*
X293429Y651276D01*
X292866Y650713D01*
X292585Y649870D01*
Y649308D01*
X292866Y648464D01*
X293429Y647902D01*
X293991Y647621D01*
X294834D01*
X295397Y647902D01*
X295959Y648464D01*
X75216Y640589D02*
X75779Y640870D01*
X76622Y641714D01*
Y635810D01*
X80108Y641714D02*
X83201D01*
X81514Y639465D01*
X82358D01*
X82920Y639184D01*
X83201Y638902D01*
X83482Y638059D01*
Y637497D01*
X83201Y636653D01*
X82639Y636091D01*
X81795Y635810D01*
X80952D01*
X80108Y636091D01*
X79827Y636372D01*
X79546Y636934D01*
X133632Y640308D02*
Y640589D01*
X133913Y641152D01*
X134194Y641433D01*
X134756Y641714D01*
X135881D01*
X136443Y641433D01*
X136724Y641152D01*
X137006Y640589D01*
Y640027D01*
X136724Y639465D01*
X136162Y638621D01*
X133351Y635810D01*
X137287D01*
X142544Y641714D02*
X139733Y635810D01*
X138608Y641714D02*
X142544D01*
X144147Y636372D02*
X143866Y636091D01*
X144147Y635810D01*
X144428Y636091D01*
X144147Y636372D01*
X149095Y641714D02*
X146284D01*
X146003Y639184D01*
X146284Y639465D01*
X147127Y639746D01*
X147971D01*
X148814Y639465D01*
X149376Y638902D01*
X149658Y638059D01*
Y637497D01*
X149376Y636653D01*
X148814Y636091D01*
X147971Y635810D01*
X147127D01*
X146284Y636091D01*
X146003Y636372D01*
X145721Y636934D01*
X154353Y641714D02*
X151541D01*
X151260Y639184D01*
X151541Y639465D01*
X152385Y639746D01*
X153228D01*
X154072Y639465D01*
X154634Y638902D01*
X154915Y638059D01*
Y637497D01*
X154634Y636653D01*
X154072Y636091D01*
X153228Y635810D01*
X152385D01*
X151541Y636091D01*
X151260Y636372D01*
X150979Y636934D01*
X159892Y639746D02*
X159610Y638902D01*
X159048Y638340D01*
X158205Y638059D01*
X157923D01*
X157080Y638340D01*
X156518Y638902D01*
X156237Y639746D01*
Y640027D01*
X156518Y640870D01*
X157080Y641433D01*
X157923Y641714D01*
X158205D01*
X159048Y641433D01*
X159610Y640870D01*
X159892Y639746D01*
Y638340D01*
X159610Y636934D01*
X159048Y636091D01*
X158205Y635810D01*
X157642D01*
X156799Y636091D01*
X156518Y636653D01*
X161494Y639746D02*
Y635810D01*
Y638621D02*
X162338Y639465D01*
X162900Y639746D01*
X163743D01*
X164306Y639465D01*
X164587Y638621D01*
Y635810D01*
Y638621D02*
X165430Y639465D01*
X165993Y639746D01*
X166836D01*
X167398Y639465D01*
X167680Y638621D01*
Y635810D01*
X170097Y641714D02*
X170379Y641433D01*
X170660Y641714D01*
X170379Y641995D01*
X170097Y641714D01*
X170379Y639746D02*
Y635810D01*
X171700Y641714D02*
Y635810D01*
X179544Y642838D02*
X178982Y642276D01*
X178420Y641433D01*
X177857Y640308D01*
X177576Y638902D01*
Y637778D01*
X177857Y636372D01*
X178420Y635247D01*
X178982Y634404D01*
X179544Y633842D01*
X178982Y642276D02*
X178420Y641152D01*
X178138Y640308D01*
X177857Y638902D01*
Y637778D01*
X178138Y636372D01*
X178420Y635529D01*
X178982Y634404D01*
X182356Y641714D02*
X181512Y641433D01*
X180950Y640589D01*
X180669Y639184D01*
Y638340D01*
X180950Y636934D01*
X181512Y636091D01*
X182356Y635810D01*
X182918D01*
X183762Y636091D01*
X184324Y636934D01*
X184605Y638340D01*
Y639184D01*
X184324Y640589D01*
X183762Y641433D01*
X182918Y641714D01*
X182356D01*
X186208Y636372D02*
X185926Y636091D01*
X186208Y635810D01*
X186489Y636091D01*
X186208Y636372D01*
X191718Y641714D02*
X188907Y635810D01*
X187782Y641714D02*
X191718D01*
X193040Y639746D02*
Y635810D01*
Y638621D02*
X193883Y639465D01*
X194446Y639746D01*
X195289D01*
X195851Y639465D01*
X196132Y638621D01*
Y635810D01*
Y638621D02*
X196976Y639465D01*
X197538Y639746D01*
X198382D01*
X198944Y639465D01*
X199225Y638621D01*
Y635810D01*
X201081Y639746D02*
Y635810D01*
Y638621D02*
X201924Y639465D01*
X202486Y639746D01*
X203330D01*
X203892Y639465D01*
X204173Y638621D01*
Y635810D01*
Y638621D02*
X205017Y639465D01*
X205579Y639746D01*
X206423D01*
X206985Y639465D01*
X207266Y638621D01*
Y635810D01*
X209122Y642838D02*
X209684Y642276D01*
X210246Y641433D01*
X210809Y640308D01*
X211090Y638902D01*
Y637778D01*
X210809Y636372D01*
X210246Y635247D01*
X209684Y634404D01*
X209122Y633842D01*
X209684Y642276D02*
X210246Y641152D01*
X210527Y640308D01*
X210809Y638902D01*
Y637778D01*
X210527Y636372D01*
X210246Y635529D01*
X209684Y634404D01*
X233287Y638621D02*
X235817D01*
X236661Y638902D01*
X236942Y639184D01*
X237223Y639746D01*
Y640589D01*
X236942Y641152D01*
X236661Y641433D01*
X235817Y641714D01*
X233287D01*
Y635810D01*
X240513Y641714D02*
Y635810D01*
X238545Y641714D02*
X242481D01*
X243183D02*
Y635810D01*
X247120Y641714D02*
Y635810D01*
X243183Y638902D02*
X247120D01*
X273101Y641714D02*
Y635810D01*
Y641714D02*
X275631D01*
X276475Y641433D01*
X276756Y641152D01*
X277037Y640589D01*
Y640027D01*
X276756Y639465D01*
X276475Y639184D01*
X275631Y638902D01*
X273101D01*
X275069D02*
X277037Y635810D01*
X279764Y639746D02*
X279202Y639465D01*
X278640Y638902D01*
X278359Y638059D01*
Y637497D01*
X278640Y636653D01*
X279202Y636091D01*
X279764Y635810D01*
X280608D01*
X281170Y636091D01*
X281733Y636653D01*
X282014Y637497D01*
Y638059D01*
X281733Y638902D01*
X281170Y639465D01*
X280608Y639746D01*
X279764D01*
X283307D02*
Y636934D01*
X283588Y636091D01*
X284151Y635810D01*
X284994D01*
X285556Y636091D01*
X286400Y636934D01*
Y639746D02*
Y635810D01*
X287946Y639746D02*
Y635810D01*
Y638621D02*
X288790Y639465D01*
X289352Y639746D01*
X290195D01*
X290758Y639465D01*
X291039Y638621D01*
Y635810D01*
X295959Y641714D02*
Y635810D01*
Y638902D02*
X295397Y639465D01*
X294834Y639746D01*
X293991D01*
X293429Y639465D01*
X292866Y638902D01*
X292585Y638059D01*
Y637497D01*
X292866Y636653D01*
X293429Y636091D01*
X293991Y635810D01*
X294834D01*
X295397Y636091D01*
X295959Y636653D01*
X78028Y629903D02*
X75216Y625967D01*
X79434D01*
X78028Y629903D02*
Y623999D01*
X133913Y629903D02*
X137006D01*
X135319Y627654D01*
X136162D01*
X136724Y627373D01*
X137006Y627091D01*
X137287Y626248D01*
Y625686D01*
X137006Y624842D01*
X136443Y624280D01*
X135600Y623999D01*
X134756D01*
X133913Y624280D01*
X133632Y624561D01*
X133351Y625123D01*
X140295Y629903D02*
X139452Y629622D01*
X138889Y628778D01*
X138608Y627373D01*
Y626529D01*
X138889Y625123D01*
X139452Y624280D01*
X140295Y623999D01*
X140857D01*
X141701Y624280D01*
X142263Y625123D01*
X142544Y626529D01*
Y627373D01*
X142263Y628778D01*
X141701Y629622D01*
X140857Y629903D01*
X140295D01*
X143866Y627935D02*
Y623999D01*
Y626810D02*
X144709Y627654D01*
X145272Y627935D01*
X146115D01*
X146677Y627654D01*
X146958Y626810D01*
Y623999D01*
Y626810D02*
X147802Y627654D01*
X148364Y627935D01*
X149208D01*
X149770Y627654D01*
X150051Y626810D01*
Y623999D01*
X152469Y629903D02*
X152750Y629622D01*
X153031Y629903D01*
X152750Y630184D01*
X152469Y629903D01*
X152750Y627935D02*
Y623999D01*
X154072Y629903D02*
Y623999D01*
X161916Y631028D02*
X161354Y630465D01*
X160791Y629622D01*
X160229Y628497D01*
X159948Y627091D01*
Y625967D01*
X160229Y624561D01*
X160791Y623436D01*
X161354Y622593D01*
X161916Y622030D01*
X161354Y630465D02*
X160791Y629341D01*
X160510Y628497D01*
X160229Y627091D01*
Y625967D01*
X160510Y624561D01*
X160791Y623717D01*
X161354Y622593D01*
X164727Y629903D02*
X163884Y629622D01*
X163322Y628778D01*
X163040Y627373D01*
Y626529D01*
X163322Y625123D01*
X163884Y624280D01*
X164727Y623999D01*
X165290D01*
X166133Y624280D01*
X166696Y625123D01*
X166977Y626529D01*
Y627373D01*
X166696Y628778D01*
X166133Y629622D01*
X165290Y629903D01*
X164727D01*
X168579Y624561D02*
X168298Y624280D01*
X168579Y623999D01*
X168860Y624280D01*
X168579Y624561D01*
X174090Y629903D02*
X171278Y623999D01*
X170154Y629903D02*
X174090D01*
X178785Y629059D02*
X178504Y629622D01*
X177661Y629903D01*
X177098D01*
X176255Y629622D01*
X175692Y628778D01*
X175411Y627373D01*
Y625967D01*
X175692Y624842D01*
X176255Y624280D01*
X177098Y623999D01*
X177379D01*
X178223Y624280D01*
X178785Y624842D01*
X179066Y625686D01*
Y625967D01*
X178785Y626810D01*
X178223Y627373D01*
X177379Y627654D01*
X177098D01*
X176255Y627373D01*
X175692Y626810D01*
X175411Y625967D01*
X180641Y628497D02*
Y628778D01*
X180922Y629341D01*
X181203Y629622D01*
X181765Y629903D01*
X182890D01*
X183452Y629622D01*
X183733Y629341D01*
X184015Y628778D01*
Y628216D01*
X183733Y627654D01*
X183171Y626810D01*
X180360Y623999D01*
X184296D01*
X185617Y627935D02*
Y623999D01*
Y626810D02*
X186461Y627654D01*
X187023Y627935D01*
X187866D01*
X188429Y627654D01*
X188710Y626810D01*
Y623999D01*
Y626810D02*
X189553Y627654D01*
X190116Y627935D01*
X190959D01*
X191522Y627654D01*
X191803Y626810D01*
Y623999D01*
X193658Y627935D02*
Y623999D01*
Y626810D02*
X194502Y627654D01*
X195064Y627935D01*
X195907D01*
X196470Y627654D01*
X196751Y626810D01*
Y623999D01*
Y626810D02*
X197594Y627654D01*
X198157Y627935D01*
X199000D01*
X199563Y627654D01*
X199844Y626810D01*
Y623999D01*
X201699Y631028D02*
X202262Y630465D01*
X202824Y629622D01*
X203386Y628497D01*
X203667Y627091D01*
Y625967D01*
X203386Y624561D01*
X202824Y623436D01*
X202262Y622593D01*
X201699Y622030D01*
X202262Y630465D02*
X202824Y629341D01*
X203105Y628497D01*
X203386Y627091D01*
Y625967D01*
X203105Y624561D01*
X202824Y623717D01*
X202262Y622593D01*
X233287Y626810D02*
X235817D01*
X236661Y627091D01*
X236942Y627373D01*
X237223Y627935D01*
Y628778D01*
X236942Y629341D01*
X236661Y629622D01*
X235817Y629903D01*
X233287D01*
Y623999D01*
X240513Y629903D02*
Y623999D01*
X238545Y629903D02*
X242481D01*
X243183D02*
Y623999D01*
X247120Y629903D02*
Y623999D01*
X243183Y627091D02*
X247120D01*
X273101Y629903D02*
Y623999D01*
Y629903D02*
X275631D01*
X276475Y629622D01*
X276756Y629341D01*
X277037Y628778D01*
Y628216D01*
X276756Y627654D01*
X276475Y627373D01*
X275631Y627091D01*
X273101D01*
X275069D02*
X277037Y623999D01*
X279764Y627935D02*
X279202Y627654D01*
X278640Y627091D01*
X278359Y626248D01*
Y625686D01*
X278640Y624842D01*
X279202Y624280D01*
X279764Y623999D01*
X280608D01*
X281170Y624280D01*
X281733Y624842D01*
X282014Y625686D01*
Y626248D01*
X281733Y627091D01*
X281170Y627654D01*
X280608Y627935D01*
X279764D01*
X283307D02*
Y625123D01*
X283588Y624280D01*
X284151Y623999D01*
X284994D01*
X285556Y624280D01*
X286400Y625123D01*
Y627935D02*
Y623999D01*
X287946Y627935D02*
Y623999D01*
Y626810D02*
X288790Y627654D01*
X289352Y627935D01*
X290195D01*
X290758Y627654D01*
X291039Y626810D01*
Y623999D01*
X295959Y629903D02*
Y623999D01*
Y627091D02*
X295397Y627654D01*
X294834Y627935D01*
X293991D01*
X293429Y627654D01*
X292866Y627091D01*
X292585Y626248D01*
Y625686D01*
X292866Y624842D01*
X293429Y624280D01*
X293991Y623999D01*
X294834D01*
X295397Y624280D01*
X295959Y624842D01*
X75779Y618092D02*
X78871D01*
X77184Y615843D01*
X78028D01*
X78590Y615561D01*
X78871Y615280D01*
X79153Y614437D01*
Y613874D01*
X78871Y613031D01*
X78309Y612469D01*
X77466Y612188D01*
X76622D01*
X75779Y612469D01*
X75498Y612750D01*
X75216Y613312D01*
X83285Y618092D02*
X80474Y614156D01*
X84691D01*
X83285Y618092D02*
Y612188D01*
X133913Y618092D02*
X137006D01*
X135319Y615843D01*
X136162D01*
X136724Y615561D01*
X137006Y615280D01*
X137287Y614437D01*
Y613874D01*
X137006Y613031D01*
X136443Y612469D01*
X135600Y612188D01*
X134756D01*
X133913Y612469D01*
X133632Y612750D01*
X133351Y613312D01*
X139171Y618092D02*
X142263D01*
X140576Y615843D01*
X141420D01*
X141982Y615561D01*
X142263Y615280D01*
X142544Y614437D01*
Y613874D01*
X142263Y613031D01*
X141701Y612469D01*
X140857Y612188D01*
X140014D01*
X139171Y612469D01*
X138889Y612750D01*
X138608Y613312D01*
X144147Y612750D02*
X143866Y612469D01*
X144147Y612188D01*
X144428Y612469D01*
X144147Y612750D01*
X148533Y618092D02*
X145721Y614156D01*
X149939D01*
X148533Y618092D02*
Y612188D01*
X154353Y617248D02*
X154072Y617811D01*
X153228Y618092D01*
X152666D01*
X151822Y617811D01*
X151260Y616967D01*
X150979Y615561D01*
Y614156D01*
X151260Y613031D01*
X151822Y612469D01*
X152666Y612188D01*
X152947D01*
X153791Y612469D01*
X154353Y613031D01*
X154634Y613874D01*
Y614156D01*
X154353Y614999D01*
X153791Y615561D01*
X152947Y615843D01*
X152666D01*
X151822Y615561D01*
X151260Y614999D01*
X150979Y614156D01*
X159301Y618092D02*
X156490D01*
X156209Y615561D01*
X156490Y615843D01*
X157333Y616124D01*
X158177D01*
X159020Y615843D01*
X159582Y615280D01*
X159863Y614437D01*
Y613874D01*
X159582Y613031D01*
X159020Y612469D01*
X158177Y612188D01*
X157333D01*
X156490Y612469D01*
X156209Y612750D01*
X155927Y613312D01*
X161185Y616124D02*
Y612188D01*
Y614999D02*
X162028Y615843D01*
X162591Y616124D01*
X163434D01*
X163997Y615843D01*
X164278Y614999D01*
Y612188D01*
Y614999D02*
X165121Y615843D01*
X165683Y616124D01*
X166527D01*
X167089Y615843D01*
X167370Y614999D01*
Y612188D01*
X169788Y618092D02*
X170069Y617811D01*
X170351Y618092D01*
X170069Y618373D01*
X169788Y618092D01*
X170069Y616124D02*
Y612188D01*
X171391Y618092D02*
Y612188D01*
X179235Y619216D02*
X178673Y618654D01*
X178110Y617811D01*
X177548Y616686D01*
X177267Y615280D01*
Y614156D01*
X177548Y612750D01*
X178110Y611625D01*
X178673Y610782D01*
X179235Y610219D01*
X178673Y618654D02*
X178110Y617529D01*
X177829Y616686D01*
X177548Y615280D01*
Y614156D01*
X177829Y612750D01*
X178110Y611906D01*
X178673Y610782D01*
X182047Y618092D02*
X181203Y617811D01*
X180641Y616967D01*
X180360Y615561D01*
Y614718D01*
X180641Y613312D01*
X181203Y612469D01*
X182047Y612188D01*
X182609D01*
X183452Y612469D01*
X184015Y613312D01*
X184296Y614718D01*
Y615561D01*
X184015Y616967D01*
X183452Y617811D01*
X182609Y618092D01*
X182047D01*
X185898Y612750D02*
X185617Y612469D01*
X185898Y612188D01*
X186180Y612469D01*
X185898Y612750D01*
X188879Y618092D02*
X188035Y617811D01*
X187754Y617248D01*
Y616686D01*
X188035Y616124D01*
X188598Y615843D01*
X189722Y615561D01*
X190566Y615280D01*
X191128Y614718D01*
X191409Y614156D01*
Y613312D01*
X191128Y612750D01*
X190847Y612469D01*
X190003Y612188D01*
X188879D01*
X188035Y612469D01*
X187754Y612750D01*
X187473Y613312D01*
Y614156D01*
X187754Y614718D01*
X188316Y615280D01*
X189160Y615561D01*
X190284Y615843D01*
X190847Y616124D01*
X191128Y616686D01*
Y617248D01*
X190847Y617811D01*
X190003Y618092D01*
X188879D01*
X196104D02*
X193293D01*
X193012Y615561D01*
X193293Y615843D01*
X194136Y616124D01*
X194980D01*
X195823Y615843D01*
X196386Y615280D01*
X196667Y614437D01*
Y613874D01*
X196386Y613031D01*
X195823Y612469D01*
X194980Y612188D01*
X194136D01*
X193293Y612469D01*
X193012Y612750D01*
X192730Y613312D01*
X197988Y616124D02*
Y612188D01*
Y614999D02*
X198831Y615843D01*
X199394Y616124D01*
X200237D01*
X200800Y615843D01*
X201081Y614999D01*
Y612188D01*
Y614999D02*
X201924Y615843D01*
X202486Y616124D01*
X203330D01*
X203892Y615843D01*
X204173Y614999D01*
Y612188D01*
X206029Y616124D02*
Y612188D01*
Y614999D02*
X206873Y615843D01*
X207435Y616124D01*
X208278D01*
X208841Y615843D01*
X209122Y614999D01*
Y612188D01*
Y614999D02*
X209965Y615843D01*
X210527Y616124D01*
X211371D01*
X211933Y615843D01*
X212214Y614999D01*
Y612188D01*
X214070Y619216D02*
X214632Y618654D01*
X215195Y617811D01*
X215757Y616686D01*
X216038Y615280D01*
Y614156D01*
X215757Y612750D01*
X215195Y611625D01*
X214632Y610782D01*
X214070Y610219D01*
X214632Y618654D02*
X215195Y617529D01*
X215476Y616686D01*
X215757Y615280D01*
Y614156D01*
X215476Y612750D01*
X215195Y611906D01*
X214632Y610782D01*
X233287Y614999D02*
X235817D01*
X236661Y615280D01*
X236942Y615561D01*
X237223Y616124D01*
Y616967D01*
X236942Y617529D01*
X236661Y617811D01*
X235817Y618092D01*
X233287D01*
Y612188D01*
X240513Y618092D02*
Y612188D01*
X238545Y618092D02*
X242481D01*
X243183D02*
Y612188D01*
X247120Y618092D02*
Y612188D01*
X243183Y615280D02*
X247120D01*
X273101Y618092D02*
Y612188D01*
Y618092D02*
X275631D01*
X276475Y617811D01*
X276756Y617529D01*
X277037Y616967D01*
Y616405D01*
X276756Y615843D01*
X276475Y615561D01*
X275631Y615280D01*
X273101D01*
X275069D02*
X277037Y612188D01*
X279764Y616124D02*
X279202Y615843D01*
X278640Y615280D01*
X278359Y614437D01*
Y613874D01*
X278640Y613031D01*
X279202Y612469D01*
X279764Y612188D01*
X280608D01*
X281170Y612469D01*
X281733Y613031D01*
X282014Y613874D01*
Y614437D01*
X281733Y615280D01*
X281170Y615843D01*
X280608Y616124D01*
X279764D01*
X283307D02*
Y613312D01*
X283588Y612469D01*
X284151Y612188D01*
X284994D01*
X285556Y612469D01*
X286400Y613312D01*
Y616124D02*
Y612188D01*
X287946Y616124D02*
Y612188D01*
Y614999D02*
X288790Y615843D01*
X289352Y616124D01*
X290195D01*
X290758Y615843D01*
X291039Y614999D01*
Y612188D01*
X295959Y618092D02*
Y612188D01*
Y615280D02*
X295397Y615843D01*
X294834Y616124D01*
X293991D01*
X293429Y615843D01*
X292866Y615280D01*
X292585Y614437D01*
Y613874D01*
X292866Y613031D01*
X293429Y612469D01*
X293991Y612188D01*
X294834D01*
X295397Y612469D01*
X295959Y613031D01*
X75779Y606281D02*
X78871D01*
X77184Y604032D01*
X78028D01*
X78590Y603750D01*
X78871Y603469D01*
X79153Y602626D01*
Y602064D01*
X78871Y601220D01*
X78309Y600658D01*
X77466Y600377D01*
X76622D01*
X75779Y600658D01*
X75498Y600939D01*
X75216Y601501D01*
X80474Y605156D02*
X81036Y605437D01*
X81880Y606281D01*
Y600377D01*
X86209Y606281D02*
X85366Y606000D01*
X85085Y605437D01*
Y604875D01*
X85366Y604313D01*
X85928Y604032D01*
X87053Y603750D01*
X87897Y603469D01*
X88459Y602907D01*
X88740Y602345D01*
Y601501D01*
X88459Y600939D01*
X88178Y600658D01*
X87334Y600377D01*
X86209D01*
X85366Y600658D01*
X85085Y600939D01*
X84804Y601501D01*
Y602345D01*
X85085Y602907D01*
X85647Y603469D01*
X86491Y603750D01*
X87615Y604032D01*
X88178Y604313D01*
X88459Y604875D01*
Y605437D01*
X88178Y606000D01*
X87334Y606281D01*
X86209D01*
X133913D02*
X137006D01*
X135319Y604032D01*
X136162D01*
X136724Y603750D01*
X137006Y603469D01*
X137287Y602626D01*
Y602064D01*
X137006Y601220D01*
X136443Y600658D01*
X135600Y600377D01*
X134756D01*
X133913Y600658D01*
X133632Y600939D01*
X133351Y601501D01*
X141982Y606281D02*
X139171D01*
X138889Y603750D01*
X139171Y604032D01*
X140014Y604313D01*
X140857D01*
X141701Y604032D01*
X142263Y603469D01*
X142544Y602626D01*
Y602064D01*
X142263Y601220D01*
X141701Y600658D01*
X140857Y600377D01*
X140014D01*
X139171Y600658D01*
X138889Y600939D01*
X138608Y601501D01*
X144147Y600939D02*
X143866Y600658D01*
X144147Y600377D01*
X144428Y600658D01*
X144147Y600939D01*
X148533Y606281D02*
X145721Y602345D01*
X149939D01*
X148533Y606281D02*
Y600377D01*
X151541Y606281D02*
X154634D01*
X152947Y604032D01*
X153791D01*
X154353Y603750D01*
X154634Y603469D01*
X154915Y602626D01*
Y602064D01*
X154634Y601220D01*
X154072Y600658D01*
X153228Y600377D01*
X152385D01*
X151541Y600658D01*
X151260Y600939D01*
X150979Y601501D01*
X156799Y606281D02*
X159892D01*
X158205Y604032D01*
X159048D01*
X159610Y603750D01*
X159892Y603469D01*
X160173Y602626D01*
Y602064D01*
X159892Y601220D01*
X159329Y600658D01*
X158486Y600377D01*
X157642D01*
X156799Y600658D01*
X156518Y600939D01*
X156237Y601501D01*
X161494Y604313D02*
Y600377D01*
Y603188D02*
X162338Y604032D01*
X162900Y604313D01*
X163743D01*
X164306Y604032D01*
X164587Y603188D01*
Y600377D01*
Y603188D02*
X165430Y604032D01*
X165993Y604313D01*
X166836D01*
X167398Y604032D01*
X167680Y603188D01*
Y600377D01*
X170097Y606281D02*
X170379Y606000D01*
X170660Y606281D01*
X170379Y606562D01*
X170097Y606281D01*
X170379Y604313D02*
Y600377D01*
X171700Y606281D02*
Y600377D01*
X179544Y607405D02*
X178982Y606843D01*
X178420Y606000D01*
X177857Y604875D01*
X177576Y603469D01*
Y602345D01*
X177857Y600939D01*
X178420Y599814D01*
X178982Y598971D01*
X179544Y598409D01*
X178982Y606843D02*
X178420Y605719D01*
X178138Y604875D01*
X177857Y603469D01*
Y602345D01*
X178138Y600939D01*
X178420Y600095D01*
X178982Y598971D01*
X182356Y606281D02*
X181512Y606000D01*
X180950Y605156D01*
X180669Y603750D01*
Y602907D01*
X180950Y601501D01*
X181512Y600658D01*
X182356Y600377D01*
X182918D01*
X183762Y600658D01*
X184324Y601501D01*
X184605Y602907D01*
Y603750D01*
X184324Y605156D01*
X183762Y606000D01*
X182918Y606281D01*
X182356D01*
X186208Y600939D02*
X185926Y600658D01*
X186208Y600377D01*
X186489Y600658D01*
X186208Y600939D01*
X191437Y604313D02*
X191156Y603469D01*
X190594Y602907D01*
X189750Y602626D01*
X189469D01*
X188626Y602907D01*
X188063Y603469D01*
X187782Y604313D01*
Y604594D01*
X188063Y605437D01*
X188626Y606000D01*
X189469Y606281D01*
X189750D01*
X190594Y606000D01*
X191156Y605437D01*
X191437Y604313D01*
Y602907D01*
X191156Y601501D01*
X190594Y600658D01*
X189750Y600377D01*
X189188D01*
X188345Y600658D01*
X188063Y601220D01*
X193040Y604313D02*
Y600377D01*
Y603188D02*
X193883Y604032D01*
X194446Y604313D01*
X195289D01*
X195851Y604032D01*
X196132Y603188D01*
Y600377D01*
Y603188D02*
X196976Y604032D01*
X197538Y604313D01*
X198382D01*
X198944Y604032D01*
X199225Y603188D01*
Y600377D01*
X201081Y604313D02*
Y600377D01*
Y603188D02*
X201924Y604032D01*
X202486Y604313D01*
X203330D01*
X203892Y604032D01*
X204173Y603188D01*
Y600377D01*
Y603188D02*
X205017Y604032D01*
X205579Y604313D01*
X206423D01*
X206985Y604032D01*
X207266Y603188D01*
Y600377D01*
X209122Y607405D02*
X209684Y606843D01*
X210246Y606000D01*
X210809Y604875D01*
X211090Y603469D01*
Y602345D01*
X210809Y600939D01*
X210246Y599814D01*
X209684Y598971D01*
X209122Y598409D01*
X209684Y606843D02*
X210246Y605719D01*
X210527Y604875D01*
X210809Y603469D01*
Y602345D01*
X210527Y600939D01*
X210246Y600095D01*
X209684Y598971D01*
X233287Y603188D02*
X235817D01*
X236661Y603469D01*
X236942Y603750D01*
X237223Y604313D01*
Y605156D01*
X236942Y605719D01*
X236661Y606000D01*
X235817Y606281D01*
X233287D01*
Y600377D01*
X240513Y606281D02*
Y600377D01*
X238545Y606281D02*
X242481D01*
X243183D02*
Y600377D01*
X247120Y606281D02*
Y600377D01*
X243183Y603469D02*
X247120D01*
X273101Y606281D02*
Y600377D01*
Y606281D02*
X275631D01*
X276475Y606000D01*
X276756Y605719D01*
X277037Y605156D01*
Y604594D01*
X276756Y604032D01*
X276475Y603750D01*
X275631Y603469D01*
X273101D01*
X275069D02*
X277037Y600377D01*
X279764Y604313D02*
X279202Y604032D01*
X278640Y603469D01*
X278359Y602626D01*
Y602064D01*
X278640Y601220D01*
X279202Y600658D01*
X279764Y600377D01*
X280608D01*
X281170Y600658D01*
X281733Y601220D01*
X282014Y602064D01*
Y602626D01*
X281733Y603469D01*
X281170Y604032D01*
X280608Y604313D01*
X279764D01*
X283307D02*
Y601501D01*
X283588Y600658D01*
X284151Y600377D01*
X284994D01*
X285556Y600658D01*
X286400Y601501D01*
Y604313D02*
Y600377D01*
X287946Y604313D02*
Y600377D01*
Y603188D02*
X288790Y604032D01*
X289352Y604313D01*
X290195D01*
X290758Y604032D01*
X291039Y603188D01*
Y600377D01*
X295959Y606281D02*
Y600377D01*
Y603469D02*
X295397Y604032D01*
X294834Y604313D01*
X293991D01*
X293429Y604032D01*
X292866Y603469D01*
X292585Y602626D01*
Y602064D01*
X292866Y601220D01*
X293429Y600658D01*
X293991Y600377D01*
X294834D01*
X295397Y600658D01*
X295959Y601220D01*
X78028Y594470D02*
X75216Y590534D01*
X79434D01*
X78028Y594470D02*
Y588565D01*
X133913Y594470D02*
X137006D01*
X135319Y592221D01*
X136162D01*
X136724Y591939D01*
X137006Y591658D01*
X137287Y590815D01*
Y590252D01*
X137006Y589409D01*
X136443Y588847D01*
X135600Y588565D01*
X134756D01*
X133913Y588847D01*
X133632Y589128D01*
X133351Y589690D01*
X141982Y593626D02*
X141701Y594189D01*
X140857Y594470D01*
X140295D01*
X139452Y594189D01*
X138889Y593345D01*
X138608Y591939D01*
Y590534D01*
X138889Y589409D01*
X139452Y588847D01*
X140295Y588565D01*
X140576D01*
X141420Y588847D01*
X141982Y589409D01*
X142263Y590252D01*
Y590534D01*
X141982Y591377D01*
X141420Y591939D01*
X140576Y592221D01*
X140295D01*
X139452Y591939D01*
X138889Y591377D01*
X138608Y590534D01*
X143838Y589128D02*
X143556Y588847D01*
X143838Y588565D01*
X144119Y588847D01*
X143838Y589128D01*
X145693Y593064D02*
Y593345D01*
X145975Y593907D01*
X146256Y594189D01*
X146818Y594470D01*
X147942D01*
X148505Y594189D01*
X148786Y593907D01*
X149067Y593345D01*
Y592783D01*
X148786Y592221D01*
X148224Y591377D01*
X145412Y588565D01*
X149348D01*
X150951Y593064D02*
Y593345D01*
X151232Y593907D01*
X151513Y594189D01*
X152076Y594470D01*
X153200D01*
X153762Y594189D01*
X154044Y593907D01*
X154325Y593345D01*
Y592783D01*
X154044Y592221D01*
X153481Y591377D01*
X150670Y588565D01*
X154606D01*
X155927Y593345D02*
X156490Y593626D01*
X157333Y594470D01*
Y588565D01*
X160257Y592502D02*
Y588565D01*
Y591377D02*
X161101Y592221D01*
X161663Y592502D01*
X162506D01*
X163069Y592221D01*
X163350Y591377D01*
Y588565D01*
Y591377D02*
X164193Y592221D01*
X164756Y592502D01*
X165599D01*
X166161Y592221D01*
X166443Y591377D01*
Y588565D01*
X168860Y594470D02*
X169142Y594189D01*
X169423Y594470D01*
X169142Y594751D01*
X168860Y594470D01*
X169142Y592502D02*
Y588565D01*
X170463Y594470D02*
Y588565D01*
X178307Y595594D02*
X177745Y595032D01*
X177183Y594189D01*
X176620Y593064D01*
X176339Y591658D01*
Y590534D01*
X176620Y589128D01*
X177183Y588003D01*
X177745Y587160D01*
X178307Y586597D01*
X177745Y595032D02*
X177183Y593907D01*
X176901Y593064D01*
X176620Y591658D01*
Y590534D01*
X176901Y589128D01*
X177183Y588284D01*
X177745Y587160D01*
X181119Y594470D02*
X180275Y594189D01*
X179713Y593345D01*
X179432Y591939D01*
Y591096D01*
X179713Y589690D01*
X180275Y588847D01*
X181119Y588565D01*
X181681D01*
X182525Y588847D01*
X183087Y589690D01*
X183368Y591096D01*
Y591939D01*
X183087Y593345D01*
X182525Y594189D01*
X181681Y594470D01*
X181119D01*
X184971Y589128D02*
X184689Y588847D01*
X184971Y588565D01*
X185252Y588847D01*
X184971Y589128D01*
X190200Y592502D02*
X189919Y591658D01*
X189357Y591096D01*
X188513Y590815D01*
X188232D01*
X187389Y591096D01*
X186826Y591658D01*
X186545Y592502D01*
Y592783D01*
X186826Y593626D01*
X187389Y594189D01*
X188232Y594470D01*
X188513D01*
X189357Y594189D01*
X189919Y593626D01*
X190200Y592502D01*
Y591096D01*
X189919Y589690D01*
X189357Y588847D01*
X188513Y588565D01*
X187951D01*
X187107Y588847D01*
X186826Y589409D01*
X192084Y593064D02*
Y593345D01*
X192365Y593907D01*
X192646Y594189D01*
X193208Y594470D01*
X194333D01*
X194895Y594189D01*
X195176Y593907D01*
X195458Y593345D01*
Y592783D01*
X195176Y592221D01*
X194614Y591377D01*
X191803Y588565D01*
X195739D01*
X197060Y592502D02*
Y588565D01*
Y591377D02*
X197904Y592221D01*
X198466Y592502D01*
X199310D01*
X199872Y592221D01*
X200153Y591377D01*
Y588565D01*
Y591377D02*
X200996Y592221D01*
X201559Y592502D01*
X202402D01*
X202964Y592221D01*
X203246Y591377D01*
Y588565D01*
X205101Y592502D02*
Y588565D01*
Y591377D02*
X205945Y592221D01*
X206507Y592502D01*
X207350D01*
X207913Y592221D01*
X208194Y591377D01*
Y588565D01*
Y591377D02*
X209037Y592221D01*
X209600Y592502D01*
X210443D01*
X211005Y592221D01*
X211287Y591377D01*
Y588565D01*
X213142Y595594D02*
X213705Y595032D01*
X214267Y594189D01*
X214829Y593064D01*
X215110Y591658D01*
Y590534D01*
X214829Y589128D01*
X214267Y588003D01*
X213705Y587160D01*
X213142Y586597D01*
X213705Y595032D02*
X214267Y593907D01*
X214548Y593064D01*
X214829Y591658D01*
Y590534D01*
X214548Y589128D01*
X214267Y588284D01*
X213705Y587160D01*
X233287Y591377D02*
X235817D01*
X236661Y591658D01*
X236942Y591939D01*
X237223Y592502D01*
Y593345D01*
X236942Y593907D01*
X236661Y594189D01*
X235817Y594470D01*
X233287D01*
Y588565D01*
X240513Y594470D02*
Y588565D01*
X238545Y594470D02*
X242481D01*
X243183D02*
Y588565D01*
X247120Y594470D02*
Y588565D01*
X243183Y591658D02*
X247120D01*
X273101Y594470D02*
Y588565D01*
Y594470D02*
X275631D01*
X276475Y594189D01*
X276756Y593907D01*
X277037Y593345D01*
Y592783D01*
X276756Y592221D01*
X276475Y591939D01*
X275631Y591658D01*
X273101D01*
X275069D02*
X277037Y588565D01*
X279764Y592502D02*
X279202Y592221D01*
X278640Y591658D01*
X278359Y590815D01*
Y590252D01*
X278640Y589409D01*
X279202Y588847D01*
X279764Y588565D01*
X280608D01*
X281170Y588847D01*
X281733Y589409D01*
X282014Y590252D01*
Y590815D01*
X281733Y591658D01*
X281170Y592221D01*
X280608Y592502D01*
X279764D01*
X283307D02*
Y589690D01*
X283588Y588847D01*
X284151Y588565D01*
X284994D01*
X285556Y588847D01*
X286400Y589690D01*
Y592502D02*
Y588565D01*
X287946Y592502D02*
Y588565D01*
Y591377D02*
X288790Y592221D01*
X289352Y592502D01*
X290195D01*
X290758Y592221D01*
X291039Y591377D01*
Y588565D01*
X295959Y594470D02*
Y588565D01*
Y591658D02*
X295397Y592221D01*
X294834Y592502D01*
X293991D01*
X293429Y592221D01*
X292866Y591658D01*
X292585Y590815D01*
Y590252D01*
X292866Y589409D01*
X293429Y588847D01*
X293991Y588565D01*
X294834D01*
X295397Y588847D01*
X295959Y589409D01*
X75216Y581534D02*
X75779Y581815D01*
X76622Y582659D01*
Y576755D01*
X133913Y582659D02*
X137006D01*
X135319Y580409D01*
X136162D01*
X136724Y580128D01*
X137006Y579847D01*
X137287Y579004D01*
Y578441D01*
X137006Y577598D01*
X136443Y577036D01*
X135600Y576755D01*
X134756D01*
X133913Y577036D01*
X133632Y577317D01*
X133351Y577879D01*
X142263Y580691D02*
X141982Y579847D01*
X141420Y579285D01*
X140576Y579004D01*
X140295D01*
X139452Y579285D01*
X138889Y579847D01*
X138608Y580691D01*
Y580972D01*
X138889Y581815D01*
X139452Y582378D01*
X140295Y582659D01*
X140576D01*
X141420Y582378D01*
X141982Y581815D01*
X142263Y580691D01*
Y579285D01*
X141982Y577879D01*
X141420Y577036D01*
X140576Y576755D01*
X140014D01*
X139171Y577036D01*
X138889Y577598D01*
X144147Y577317D02*
X143866Y577036D01*
X144147Y576755D01*
X144428Y577036D01*
X144147Y577317D01*
X146284Y582659D02*
X149376D01*
X147689Y580409D01*
X148533D01*
X149095Y580128D01*
X149376Y579847D01*
X149658Y579004D01*
Y578441D01*
X149376Y577598D01*
X148814Y577036D01*
X147971Y576755D01*
X147127D01*
X146284Y577036D01*
X146003Y577317D01*
X145721Y577879D01*
X154915Y582659D02*
X152104Y576755D01*
X150979Y582659D02*
X154915D01*
X156237Y580691D02*
Y576755D01*
Y579566D02*
X157080Y580409D01*
X157642Y580691D01*
X158486D01*
X159048Y580409D01*
X159329Y579566D01*
Y576755D01*
Y579566D02*
X160173Y580409D01*
X160735Y580691D01*
X161579D01*
X162141Y580409D01*
X162422Y579566D01*
Y576755D01*
X164840Y582659D02*
X165121Y582378D01*
X165402Y582659D01*
X165121Y582940D01*
X164840Y582659D01*
X165121Y580691D02*
Y576755D01*
X166443Y582659D02*
Y576755D01*
X174287Y583783D02*
X173724Y583221D01*
X173162Y582378D01*
X172600Y581253D01*
X172319Y579847D01*
Y578723D01*
X172600Y577317D01*
X173162Y576192D01*
X173724Y575349D01*
X174287Y574786D01*
X173724Y583221D02*
X173162Y582096D01*
X172881Y581253D01*
X172600Y579847D01*
Y578723D01*
X172881Y577317D01*
X173162Y576473D01*
X173724Y575349D01*
X175411Y581534D02*
X175974Y581815D01*
X176817Y582659D01*
Y576755D01*
X179741Y580691D02*
Y576755D01*
Y579566D02*
X180585Y580409D01*
X181147Y580691D01*
X181990D01*
X182553Y580409D01*
X182834Y579566D01*
Y576755D01*
Y579566D02*
X183677Y580409D01*
X184240Y580691D01*
X185083D01*
X185645Y580409D01*
X185926Y579566D01*
Y576755D01*
X187782Y580691D02*
Y576755D01*
Y579566D02*
X188626Y580409D01*
X189188Y580691D01*
X190031D01*
X190594Y580409D01*
X190875Y579566D01*
Y576755D01*
Y579566D02*
X191718Y580409D01*
X192281Y580691D01*
X193124D01*
X193686Y580409D01*
X193967Y579566D01*
Y576755D01*
X195823Y583783D02*
X196386Y583221D01*
X196948Y582378D01*
X197510Y581253D01*
X197791Y579847D01*
Y578723D01*
X197510Y577317D01*
X196948Y576192D01*
X196386Y575349D01*
X195823Y574786D01*
X196386Y583221D02*
X196948Y582096D01*
X197229Y581253D01*
X197510Y579847D01*
Y578723D01*
X197229Y577317D01*
X196948Y576473D01*
X196386Y575349D01*
X233287Y582659D02*
Y576755D01*
Y582659D02*
X237223Y576755D01*
Y582659D02*
Y576755D01*
X238854Y579566D02*
X241384D01*
X242228Y579847D01*
X242509Y580128D01*
X242790Y580691D01*
Y581534D01*
X242509Y582096D01*
X242228Y582378D01*
X241384Y582659D01*
X238854D01*
Y576755D01*
X246079Y582659D02*
Y576755D01*
X244111Y582659D02*
X248047D01*
X248750D02*
Y576755D01*
X252687Y582659D02*
Y576755D01*
X248750Y579847D02*
X252687D01*
X273101Y582659D02*
Y576755D01*
Y582659D02*
X275631D01*
X276475Y582378D01*
X276756Y582096D01*
X277037Y581534D01*
Y580972D01*
X276756Y580409D01*
X276475Y580128D01*
X275631Y579847D01*
X273101D01*
X275069D02*
X277037Y576755D01*
X279764Y580691D02*
X279202Y580409D01*
X278640Y579847D01*
X278359Y579004D01*
Y578441D01*
X278640Y577598D01*
X279202Y577036D01*
X279764Y576755D01*
X280608D01*
X281170Y577036D01*
X281733Y577598D01*
X282014Y578441D01*
Y579004D01*
X281733Y579847D01*
X281170Y580409D01*
X280608Y580691D01*
X279764D01*
X283307D02*
Y577879D01*
X283588Y577036D01*
X284151Y576755D01*
X284994D01*
X285556Y577036D01*
X286400Y577879D01*
Y580691D02*
Y576755D01*
X287946Y580691D02*
Y576755D01*
Y579566D02*
X288790Y580409D01*
X289352Y580691D01*
X290195D01*
X290758Y580409D01*
X291039Y579566D01*
Y576755D01*
X295959Y582659D02*
Y576755D01*
Y579847D02*
X295397Y580409D01*
X294834Y580691D01*
X293991D01*
X293429Y580409D01*
X292866Y579847D01*
X292585Y579004D01*
Y578441D01*
X292866Y577598D01*
X293429Y577036D01*
X293991Y576755D01*
X294834D01*
X295397Y577036D01*
X295959Y577598D01*
X75216Y569723D02*
X75779Y570004D01*
X76622Y570848D01*
Y564944D01*
X79827Y569442D02*
Y569723D01*
X80108Y570285D01*
X80390Y570567D01*
X80952Y570848D01*
X82077D01*
X82639Y570567D01*
X82920Y570285D01*
X83201Y569723D01*
Y569161D01*
X82920Y568599D01*
X82358Y567755D01*
X79546Y564944D01*
X83482D01*
X133913Y570848D02*
X137006D01*
X135319Y568599D01*
X136162D01*
X136724Y568317D01*
X137006Y568036D01*
X137287Y567193D01*
Y566630D01*
X137006Y565787D01*
X136443Y565225D01*
X135600Y564944D01*
X134756D01*
X133913Y565225D01*
X133632Y565506D01*
X133351Y566068D01*
X142263Y568880D02*
X141982Y568036D01*
X141420Y567474D01*
X140576Y567193D01*
X140295D01*
X139452Y567474D01*
X138889Y568036D01*
X138608Y568880D01*
Y569161D01*
X138889Y570004D01*
X139452Y570567D01*
X140295Y570848D01*
X140576D01*
X141420Y570567D01*
X141982Y570004D01*
X142263Y568880D01*
Y567474D01*
X141982Y566068D01*
X141420Y565225D01*
X140576Y564944D01*
X140014D01*
X139171Y565225D01*
X138889Y565787D01*
X144147Y565506D02*
X143866Y565225D01*
X144147Y564944D01*
X144428Y565225D01*
X144147Y565506D01*
X146284Y570848D02*
X149376D01*
X147689Y568599D01*
X148533D01*
X149095Y568317D01*
X149376Y568036D01*
X149658Y567193D01*
Y566630D01*
X149376Y565787D01*
X148814Y565225D01*
X147971Y564944D01*
X147127D01*
X146284Y565225D01*
X146003Y565506D01*
X145721Y566068D01*
X154915Y570848D02*
X152104Y564944D01*
X150979Y570848D02*
X154915D01*
X156237Y568880D02*
Y564944D01*
Y567755D02*
X157080Y568599D01*
X157642Y568880D01*
X158486D01*
X159048Y568599D01*
X159329Y567755D01*
Y564944D01*
Y567755D02*
X160173Y568599D01*
X160735Y568880D01*
X161579D01*
X162141Y568599D01*
X162422Y567755D01*
Y564944D01*
X164840Y570848D02*
X165121Y570567D01*
X165402Y570848D01*
X165121Y571129D01*
X164840Y570848D01*
X165121Y568880D02*
Y564944D01*
X166443Y570848D02*
Y564944D01*
X174287Y571972D02*
X173724Y571410D01*
X173162Y570567D01*
X172600Y569442D01*
X172319Y568036D01*
Y566912D01*
X172600Y565506D01*
X173162Y564381D01*
X173724Y563538D01*
X174287Y562975D01*
X173724Y571410D02*
X173162Y570285D01*
X172881Y569442D01*
X172600Y568036D01*
Y566912D01*
X172881Y565506D01*
X173162Y564662D01*
X173724Y563538D01*
X175411Y569723D02*
X175974Y570004D01*
X176817Y570848D01*
Y564944D01*
X179741Y568880D02*
Y564944D01*
Y567755D02*
X180585Y568599D01*
X181147Y568880D01*
X181990D01*
X182553Y568599D01*
X182834Y567755D01*
Y564944D01*
Y567755D02*
X183677Y568599D01*
X184240Y568880D01*
X185083D01*
X185645Y568599D01*
X185926Y567755D01*
Y564944D01*
X187782Y568880D02*
Y564944D01*
Y567755D02*
X188626Y568599D01*
X189188Y568880D01*
X190031D01*
X190594Y568599D01*
X190875Y567755D01*
Y564944D01*
Y567755D02*
X191718Y568599D01*
X192281Y568880D01*
X193124D01*
X193686Y568599D01*
X193967Y567755D01*
Y564944D01*
X195823Y571972D02*
X196386Y571410D01*
X196948Y570567D01*
X197510Y569442D01*
X197791Y568036D01*
Y566912D01*
X197510Y565506D01*
X196948Y564381D01*
X196386Y563538D01*
X195823Y562975D01*
X196386Y571410D02*
X196948Y570285D01*
X197229Y569442D01*
X197510Y568036D01*
Y566912D01*
X197229Y565506D01*
X196948Y564662D01*
X196386Y563538D01*
X233287Y567755D02*
X235817D01*
X236661Y568036D01*
X236942Y568317D01*
X237223Y568880D01*
Y569723D01*
X236942Y570285D01*
X236661Y570567D01*
X235817Y570848D01*
X233287D01*
Y564944D01*
X240513Y570848D02*
Y564944D01*
X238545Y570848D02*
X242481D01*
X243183D02*
Y564944D01*
X247120Y570848D02*
Y564944D01*
X243183Y568036D02*
X247120D01*
X273101Y570848D02*
Y564944D01*
Y570848D02*
X275631D01*
X276475Y570567D01*
X276756Y570285D01*
X277037Y569723D01*
Y569161D01*
X276756Y568599D01*
X276475Y568317D01*
X275631Y568036D01*
X273101D01*
X275069D02*
X277037Y564944D01*
X279764Y568880D02*
X279202Y568599D01*
X278640Y568036D01*
X278359Y567193D01*
Y566630D01*
X278640Y565787D01*
X279202Y565225D01*
X279764Y564944D01*
X280608D01*
X281170Y565225D01*
X281733Y565787D01*
X282014Y566630D01*
Y567193D01*
X281733Y568036D01*
X281170Y568599D01*
X280608Y568880D01*
X279764D01*
X283307D02*
Y566068D01*
X283588Y565225D01*
X284151Y564944D01*
X284994D01*
X285556Y565225D01*
X286400Y566068D01*
Y568880D02*
Y564944D01*
X287946Y568880D02*
Y564944D01*
Y567755D02*
X288790Y568599D01*
X289352Y568880D01*
X290195D01*
X290758Y568599D01*
X291039Y567755D01*
Y564944D01*
X295959Y570848D02*
Y564944D01*
Y568036D02*
X295397Y568599D01*
X294834Y568880D01*
X293991D01*
X293429Y568599D01*
X292866Y568036D01*
X292585Y567193D01*
Y566630D01*
X292866Y565787D01*
X293429Y565225D01*
X293991Y564944D01*
X294834D01*
X295397Y565225D01*
X295959Y565787D01*
X78590Y558193D02*
X78309Y558756D01*
X77466Y559037D01*
X76903D01*
X76060Y558756D01*
X75498Y557912D01*
X75216Y556506D01*
Y555101D01*
X75498Y553976D01*
X76060Y553414D01*
X76903Y553132D01*
X77184D01*
X78028Y553414D01*
X78590Y553976D01*
X78871Y554819D01*
Y555101D01*
X78590Y555944D01*
X78028Y556506D01*
X77184Y556787D01*
X76903D01*
X76060Y556506D01*
X75498Y555944D01*
X75216Y555101D01*
X136162Y559037D02*
X133351Y555101D01*
X137568D01*
X136162Y559037D02*
Y553132D01*
X139171Y559037D02*
X142263D01*
X140576Y556787D01*
X141420D01*
X141982Y556506D01*
X142263Y556225D01*
X142544Y555382D01*
Y554819D01*
X142263Y553976D01*
X141701Y553414D01*
X140857Y553132D01*
X140014D01*
X139171Y553414D01*
X138889Y553695D01*
X138608Y554257D01*
X144147Y553695D02*
X143866Y553414D01*
X144147Y553132D01*
X144428Y553414D01*
X144147Y553695D01*
X146284Y559037D02*
X149376D01*
X147689Y556787D01*
X148533D01*
X149095Y556506D01*
X149376Y556225D01*
X149658Y555382D01*
Y554819D01*
X149376Y553976D01*
X148814Y553414D01*
X147971Y553132D01*
X147127D01*
X146284Y553414D01*
X146003Y553695D01*
X145721Y554257D01*
X152666Y559037D02*
X151822Y558756D01*
X151260Y557912D01*
X150979Y556506D01*
Y555663D01*
X151260Y554257D01*
X151822Y553414D01*
X152666Y553132D01*
X153228D01*
X154072Y553414D01*
X154634Y554257D01*
X154915Y555663D01*
Y556506D01*
X154634Y557912D01*
X154072Y558756D01*
X153228Y559037D01*
X152666D01*
X160173D02*
X157361Y553132D01*
X156237Y559037D02*
X160173D01*
X161494Y557069D02*
Y553132D01*
Y555944D02*
X162338Y556787D01*
X162900Y557069D01*
X163743D01*
X164306Y556787D01*
X164587Y555944D01*
Y553132D01*
Y555944D02*
X165430Y556787D01*
X165993Y557069D01*
X166836D01*
X167398Y556787D01*
X167680Y555944D01*
Y553132D01*
X170097Y559037D02*
X170379Y558756D01*
X170660Y559037D01*
X170379Y559318D01*
X170097Y559037D01*
X170379Y557069D02*
Y553132D01*
X171700Y559037D02*
Y553132D01*
X179544Y560161D02*
X178982Y559599D01*
X178420Y558756D01*
X177857Y557631D01*
X177576Y556225D01*
Y555101D01*
X177857Y553695D01*
X178420Y552570D01*
X178982Y551727D01*
X179544Y551164D01*
X178982Y559599D02*
X178420Y558474D01*
X178138Y557631D01*
X177857Y556225D01*
Y555101D01*
X178138Y553695D01*
X178420Y552851D01*
X178982Y551727D01*
X180669Y557912D02*
X181231Y558193D01*
X182075Y559037D01*
Y553132D01*
X185280Y553695D02*
X184999Y553414D01*
X185280Y553132D01*
X185561Y553414D01*
X185280Y553695D01*
X186854Y557912D02*
X187417Y558193D01*
X188260Y559037D01*
Y553132D01*
X191184Y557069D02*
Y553132D01*
Y555944D02*
X192028Y556787D01*
X192590Y557069D01*
X193433D01*
X193996Y556787D01*
X194277Y555944D01*
Y553132D01*
Y555944D02*
X195120Y556787D01*
X195683Y557069D01*
X196526D01*
X197088Y556787D01*
X197370Y555944D01*
Y553132D01*
X199225Y557069D02*
Y553132D01*
Y555944D02*
X200069Y556787D01*
X200631Y557069D01*
X201474D01*
X202037Y556787D01*
X202318Y555944D01*
Y553132D01*
Y555944D02*
X203161Y556787D01*
X203724Y557069D01*
X204567D01*
X205129Y556787D01*
X205411Y555944D01*
Y553132D01*
X207266Y560161D02*
X207828Y559599D01*
X208391Y558756D01*
X208953Y557631D01*
X209234Y556225D01*
Y555101D01*
X208953Y553695D01*
X208391Y552570D01*
X207828Y551727D01*
X207266Y551164D01*
X207828Y559599D02*
X208391Y558474D01*
X208672Y557631D01*
X208953Y556225D01*
Y555101D01*
X208672Y553695D01*
X208391Y552851D01*
X207828Y551727D01*
X233287Y555944D02*
X235817D01*
X236661Y556225D01*
X236942Y556506D01*
X237223Y557069D01*
Y557912D01*
X236942Y558474D01*
X236661Y558756D01*
X235817Y559037D01*
X233287D01*
Y553132D01*
X240513Y559037D02*
Y553132D01*
X238545Y559037D02*
X242481D01*
X243183D02*
Y553132D01*
X247120Y559037D02*
Y553132D01*
X243183Y556225D02*
X247120D01*
X273101Y559037D02*
Y553132D01*
Y559037D02*
X275631D01*
X276475Y558756D01*
X276756Y558474D01*
X277037Y557912D01*
Y557350D01*
X276756Y556787D01*
X276475Y556506D01*
X275631Y556225D01*
X273101D01*
X275069D02*
X277037Y553132D01*
X279764Y557069D02*
X279202Y556787D01*
X278640Y556225D01*
X278359Y555382D01*
Y554819D01*
X278640Y553976D01*
X279202Y553414D01*
X279764Y553132D01*
X280608D01*
X281170Y553414D01*
X281733Y553976D01*
X282014Y554819D01*
Y555382D01*
X281733Y556225D01*
X281170Y556787D01*
X280608Y557069D01*
X279764D01*
X283307D02*
Y554257D01*
X283588Y553414D01*
X284151Y553132D01*
X284994D01*
X285556Y553414D01*
X286400Y554257D01*
Y557069D02*
Y553132D01*
X287946Y557069D02*
Y553132D01*
Y555944D02*
X288790Y556787D01*
X289352Y557069D01*
X290195D01*
X290758Y556787D01*
X291039Y555944D01*
Y553132D01*
X295959Y559037D02*
Y553132D01*
Y556225D02*
X295397Y556787D01*
X294834Y557069D01*
X293991D01*
X293429Y556787D01*
X292866Y556225D01*
X292585Y555382D01*
Y554819D01*
X292866Y553976D01*
X293429Y553414D01*
X293991Y553132D01*
X294834D01*
X295397Y553414D01*
X295959Y553976D01*
X75779Y547226D02*
X78871D01*
X77184Y544977D01*
X78028D01*
X78590Y544695D01*
X78871Y544414D01*
X79153Y543571D01*
Y543008D01*
X78871Y542165D01*
X78309Y541603D01*
X77466Y541322D01*
X76622D01*
X75779Y541603D01*
X75498Y541884D01*
X75216Y542446D01*
X83848Y546382D02*
X83567Y546945D01*
X82723Y547226D01*
X82161D01*
X81317Y546945D01*
X80755Y546101D01*
X80474Y544695D01*
Y543290D01*
X80755Y542165D01*
X81317Y541603D01*
X82161Y541322D01*
X82442D01*
X83285Y541603D01*
X83848Y542165D01*
X84129Y543008D01*
Y543290D01*
X83848Y544133D01*
X83285Y544695D01*
X82442Y544977D01*
X82161D01*
X81317Y544695D01*
X80755Y544133D01*
X80474Y543290D01*
X136724Y547226D02*
X133913D01*
X133632Y544695D01*
X133913Y544977D01*
X134756Y545258D01*
X135600D01*
X136443Y544977D01*
X137006Y544414D01*
X137287Y543571D01*
Y543008D01*
X137006Y542165D01*
X136443Y541603D01*
X135600Y541322D01*
X134756D01*
X133913Y541603D01*
X133632Y541884D01*
X133351Y542446D01*
X138608Y546101D02*
X139171Y546382D01*
X140014Y547226D01*
Y541322D01*
X143219Y541884D02*
X142938Y541603D01*
X143219Y541322D01*
X143500Y541603D01*
X143219Y541884D01*
X144794Y546101D02*
X145356Y546382D01*
X146199Y547226D01*
Y541322D01*
X150529Y547226D02*
X149686Y546945D01*
X149405Y546382D01*
Y545820D01*
X149686Y545258D01*
X150248Y544977D01*
X151373Y544695D01*
X152216Y544414D01*
X152778Y543852D01*
X153059Y543290D01*
Y542446D01*
X152778Y541884D01*
X152497Y541603D01*
X151654Y541322D01*
X150529D01*
X149686Y541603D01*
X149405Y541884D01*
X149123Y542446D01*
Y543290D01*
X149405Y543852D01*
X149967Y544414D01*
X150810Y544695D01*
X151935Y544977D01*
X152497Y545258D01*
X152778Y545820D01*
Y546382D01*
X152497Y546945D01*
X151654Y547226D01*
X150529D01*
X154381Y546101D02*
X154943Y546382D01*
X155787Y547226D01*
Y541322D01*
X158711Y545258D02*
Y541322D01*
Y544133D02*
X159554Y544977D01*
X160117Y545258D01*
X160960D01*
X161522Y544977D01*
X161803Y544133D01*
Y541322D01*
Y544133D02*
X162647Y544977D01*
X163209Y545258D01*
X164053D01*
X164615Y544977D01*
X164896Y544133D01*
Y541322D01*
X167314Y547226D02*
X167595Y546945D01*
X167876Y547226D01*
X167595Y547507D01*
X167314Y547226D01*
X167595Y545258D02*
Y541322D01*
X168917Y547226D02*
Y541322D01*
X176761Y548350D02*
X176199Y547788D01*
X175636Y546945D01*
X175074Y545820D01*
X174793Y544414D01*
Y543290D01*
X175074Y541884D01*
X175636Y540759D01*
X176199Y539916D01*
X176761Y539353D01*
X176199Y547788D02*
X175636Y546663D01*
X175355Y545820D01*
X175074Y544414D01*
Y543290D01*
X175355Y541884D01*
X175636Y541040D01*
X176199Y539916D01*
X177885Y546101D02*
X178448Y546382D01*
X179291Y547226D01*
Y541322D01*
X182496Y541884D02*
X182215Y541603D01*
X182496Y541322D01*
X182778Y541603D01*
X182496Y541884D01*
X184633Y547226D02*
X187726D01*
X186039Y544977D01*
X186882D01*
X187445Y544695D01*
X187726Y544414D01*
X188007Y543571D01*
Y543008D01*
X187726Y542165D01*
X187164Y541603D01*
X186320Y541322D01*
X185477D01*
X184633Y541603D01*
X184352Y541884D01*
X184071Y542446D01*
X189329Y545258D02*
Y541322D01*
Y544133D02*
X190172Y544977D01*
X190734Y545258D01*
X191578D01*
X192140Y544977D01*
X192421Y544133D01*
Y541322D01*
Y544133D02*
X193265Y544977D01*
X193827Y545258D01*
X194670D01*
X195233Y544977D01*
X195514Y544133D01*
Y541322D01*
X197370Y545258D02*
Y541322D01*
Y544133D02*
X198213Y544977D01*
X198775Y545258D01*
X199619D01*
X200181Y544977D01*
X200462Y544133D01*
Y541322D01*
Y544133D02*
X201306Y544977D01*
X201868Y545258D01*
X202711D01*
X203274Y544977D01*
X203555Y544133D01*
Y541322D01*
X205411Y548350D02*
X205973Y547788D01*
X206535Y546945D01*
X207098Y545820D01*
X207379Y544414D01*
Y543290D01*
X207098Y541884D01*
X206535Y540759D01*
X205973Y539916D01*
X205411Y539353D01*
X205973Y547788D02*
X206535Y546663D01*
X206816Y545820D01*
X207098Y544414D01*
Y543290D01*
X206816Y541884D01*
X206535Y541040D01*
X205973Y539916D01*
X233287Y544133D02*
X235817D01*
X236661Y544414D01*
X236942Y544695D01*
X237223Y545258D01*
Y546101D01*
X236942Y546663D01*
X236661Y546945D01*
X235817Y547226D01*
X233287D01*
Y541322D01*
X240513Y547226D02*
Y541322D01*
X238545Y547226D02*
X242481D01*
X243183D02*
Y541322D01*
X247120Y547226D02*
Y541322D01*
X243183Y544414D02*
X247120D01*
X273101Y547226D02*
Y541322D01*
Y547226D02*
X275631D01*
X276475Y546945D01*
X276756Y546663D01*
X277037Y546101D01*
Y545539D01*
X276756Y544977D01*
X276475Y544695D01*
X275631Y544414D01*
X273101D01*
X275069D02*
X277037Y541322D01*
X279764Y545258D02*
X279202Y544977D01*
X278640Y544414D01*
X278359Y543571D01*
Y543008D01*
X278640Y542165D01*
X279202Y541603D01*
X279764Y541322D01*
X280608D01*
X281170Y541603D01*
X281733Y542165D01*
X282014Y543008D01*
Y543571D01*
X281733Y544414D01*
X281170Y544977D01*
X280608Y545258D01*
X279764D01*
X283307D02*
Y542446D01*
X283588Y541603D01*
X284151Y541322D01*
X284994D01*
X285556Y541603D01*
X286400Y542446D01*
Y545258D02*
Y541322D01*
X287946Y545258D02*
Y541322D01*
Y544133D02*
X288790Y544977D01*
X289352Y545258D01*
X290195D01*
X290758Y544977D01*
X291039Y544133D01*
Y541322D01*
X295959Y547226D02*
Y541322D01*
Y544414D02*
X295397Y544977D01*
X294834Y545258D01*
X293991D01*
X293429Y544977D01*
X292866Y544414D01*
X292585Y543571D01*
Y543008D01*
X292866Y542165D01*
X293429Y541603D01*
X293991Y541322D01*
X294834D01*
X295397Y541603D01*
X295959Y542165D01*
X75498Y534009D02*
Y534290D01*
X75779Y534852D01*
X76060Y535134D01*
X76622Y535415D01*
X77747D01*
X78309Y535134D01*
X78590Y534852D01*
X78871Y534290D01*
Y533728D01*
X78590Y533165D01*
X78028Y532322D01*
X75216Y529510D01*
X79153D01*
X136724Y534571D02*
X136443Y535134D01*
X135600Y535415D01*
X135038D01*
X134194Y535134D01*
X133632Y534290D01*
X133351Y532884D01*
Y531479D01*
X133632Y530354D01*
X134194Y529792D01*
X135038Y529510D01*
X135319D01*
X136162Y529792D01*
X136724Y530354D01*
X137006Y531197D01*
Y531479D01*
X136724Y532322D01*
X136162Y532884D01*
X135319Y533165D01*
X135038D01*
X134194Y532884D01*
X133632Y532322D01*
X133351Y531479D01*
X138580Y534009D02*
Y534290D01*
X138861Y534852D01*
X139142Y535134D01*
X139705Y535415D01*
X140829D01*
X141392Y535134D01*
X141673Y534852D01*
X141954Y534290D01*
Y533728D01*
X141673Y533165D01*
X141111Y532322D01*
X138299Y529510D01*
X142235D01*
X143838Y530073D02*
X143556Y529792D01*
X143838Y529510D01*
X144119Y529792D01*
X143838Y530073D01*
X149067Y533447D02*
X148786Y532603D01*
X148224Y532041D01*
X147380Y531760D01*
X147099D01*
X146256Y532041D01*
X145693Y532603D01*
X145412Y533447D01*
Y533728D01*
X145693Y534571D01*
X146256Y535134D01*
X147099Y535415D01*
X147380D01*
X148224Y535134D01*
X148786Y534571D01*
X149067Y533447D01*
Y532041D01*
X148786Y530635D01*
X148224Y529792D01*
X147380Y529510D01*
X146818D01*
X145975Y529792D01*
X145693Y530354D01*
X154325Y533447D02*
X154044Y532603D01*
X153481Y532041D01*
X152638Y531760D01*
X152357D01*
X151513Y532041D01*
X150951Y532603D01*
X150670Y533447D01*
Y533728D01*
X150951Y534571D01*
X151513Y535134D01*
X152357Y535415D01*
X152638D01*
X153481Y535134D01*
X154044Y534571D01*
X154325Y533447D01*
Y532041D01*
X154044Y530635D01*
X153481Y529792D01*
X152638Y529510D01*
X152076D01*
X151232Y529792D01*
X150951Y530354D01*
X156209Y534009D02*
Y534290D01*
X156490Y534852D01*
X156771Y535134D01*
X157333Y535415D01*
X158458D01*
X159020Y535134D01*
X159301Y534852D01*
X159582Y534290D01*
Y533728D01*
X159301Y533165D01*
X158739Y532322D01*
X155927Y529510D01*
X159863D01*
X161185Y533447D02*
Y529510D01*
Y532322D02*
X162028Y533165D01*
X162591Y533447D01*
X163434D01*
X163997Y533165D01*
X164278Y532322D01*
Y529510D01*
Y532322D02*
X165121Y533165D01*
X165683Y533447D01*
X166527D01*
X167089Y533165D01*
X167370Y532322D01*
Y529510D01*
X169788Y535415D02*
X170069Y535134D01*
X170351Y535415D01*
X170069Y535696D01*
X169788Y535415D01*
X170069Y533447D02*
Y529510D01*
X171391Y535415D02*
Y529510D01*
X179235Y536539D02*
X178673Y535977D01*
X178110Y535134D01*
X177548Y534009D01*
X177267Y532603D01*
Y531479D01*
X177548Y530073D01*
X178110Y528948D01*
X178673Y528105D01*
X179235Y527542D01*
X178673Y535977D02*
X178110Y534852D01*
X177829Y534009D01*
X177548Y532603D01*
Y531479D01*
X177829Y530073D01*
X178110Y529229D01*
X178673Y528105D01*
X180360Y534290D02*
X180922Y534571D01*
X181765Y535415D01*
Y529510D01*
X184971Y530073D02*
X184689Y529792D01*
X184971Y529510D01*
X185252Y529792D01*
X184971Y530073D01*
X189919Y534571D02*
X189638Y535134D01*
X188794Y535415D01*
X188232D01*
X187389Y535134D01*
X186826Y534290D01*
X186545Y532884D01*
Y531479D01*
X186826Y530354D01*
X187389Y529792D01*
X188232Y529510D01*
X188513D01*
X189357Y529792D01*
X189919Y530354D01*
X190200Y531197D01*
Y531479D01*
X189919Y532322D01*
X189357Y532884D01*
X188513Y533165D01*
X188232D01*
X187389Y532884D01*
X186826Y532322D01*
X186545Y531479D01*
X191493Y533447D02*
Y529510D01*
Y532322D02*
X192337Y533165D01*
X192899Y533447D01*
X193743D01*
X194305Y533165D01*
X194586Y532322D01*
Y529510D01*
Y532322D02*
X195430Y533165D01*
X195992Y533447D01*
X196835D01*
X197398Y533165D01*
X197679Y532322D01*
Y529510D01*
X199534Y533447D02*
Y529510D01*
Y532322D02*
X200378Y533165D01*
X200940Y533447D01*
X201784D01*
X202346Y533165D01*
X202627Y532322D01*
Y529510D01*
Y532322D02*
X203471Y533165D01*
X204033Y533447D01*
X204876D01*
X205439Y533165D01*
X205720Y532322D01*
Y529510D01*
X207575Y536539D02*
X208138Y535977D01*
X208700Y535134D01*
X209262Y534009D01*
X209543Y532603D01*
Y531479D01*
X209262Y530073D01*
X208700Y528948D01*
X208138Y528105D01*
X207575Y527542D01*
X208138Y535977D02*
X208700Y534852D01*
X208981Y534009D01*
X209262Y532603D01*
Y531479D01*
X208981Y530073D01*
X208700Y529229D01*
X208138Y528105D01*
X233287Y532322D02*
X235817D01*
X236661Y532603D01*
X236942Y532884D01*
X237223Y533447D01*
Y534290D01*
X236942Y534852D01*
X236661Y535134D01*
X235817Y535415D01*
X233287D01*
Y529510D01*
X240513Y535415D02*
Y529510D01*
X238545Y535415D02*
X242481D01*
X243183D02*
Y529510D01*
X247120Y535415D02*
Y529510D01*
X243183Y532603D02*
X247120D01*
X273101Y535415D02*
Y529510D01*
Y535415D02*
X275631D01*
X276475Y535134D01*
X276756Y534852D01*
X277037Y534290D01*
Y533728D01*
X276756Y533165D01*
X276475Y532884D01*
X275631Y532603D01*
X273101D01*
X275069D02*
X277037Y529510D01*
X279764Y533447D02*
X279202Y533165D01*
X278640Y532603D01*
X278359Y531760D01*
Y531197D01*
X278640Y530354D01*
X279202Y529792D01*
X279764Y529510D01*
X280608D01*
X281170Y529792D01*
X281733Y530354D01*
X282014Y531197D01*
Y531760D01*
X281733Y532603D01*
X281170Y533165D01*
X280608Y533447D01*
X279764D01*
X283307D02*
Y530635D01*
X283588Y529792D01*
X284151Y529510D01*
X284994D01*
X285556Y529792D01*
X286400Y530635D01*
Y533447D02*
Y529510D01*
X287946Y533447D02*
Y529510D01*
Y532322D02*
X288790Y533165D01*
X289352Y533447D01*
X290195D01*
X290758Y533165D01*
X291039Y532322D01*
Y529510D01*
X295959Y535415D02*
Y529510D01*
Y532603D02*
X295397Y533165D01*
X294834Y533447D01*
X293991D01*
X293429Y533165D01*
X292866Y532603D01*
X292585Y531760D01*
Y531197D01*
X292866Y530354D01*
X293429Y529792D01*
X293991Y529510D01*
X294834D01*
X295397Y529792D01*
X295959Y530354D01*
X75498Y522198D02*
Y522479D01*
X75779Y523041D01*
X76060Y523322D01*
X76622Y523604D01*
X77747D01*
X78309Y523322D01*
X78590Y523041D01*
X78871Y522479D01*
Y521917D01*
X78590Y521354D01*
X78028Y520511D01*
X75216Y517699D01*
X79153D01*
X137006Y521636D02*
X136724Y520792D01*
X136162Y520230D01*
X135319Y519949D01*
X135038D01*
X134194Y520230D01*
X133632Y520792D01*
X133351Y521636D01*
Y521917D01*
X133632Y522760D01*
X134194Y523322D01*
X135038Y523604D01*
X135319D01*
X136162Y523322D01*
X136724Y522760D01*
X137006Y521636D01*
Y520230D01*
X136724Y518824D01*
X136162Y517981D01*
X135319Y517699D01*
X134756D01*
X133913Y517981D01*
X133632Y518543D01*
X140295Y523604D02*
X139452Y523322D01*
X138889Y522479D01*
X138608Y521073D01*
Y520230D01*
X138889Y518824D01*
X139452Y517981D01*
X140295Y517699D01*
X140857D01*
X141701Y517981D01*
X142263Y518824D01*
X142544Y520230D01*
Y521073D01*
X142263Y522479D01*
X141701Y523322D01*
X140857Y523604D01*
X140295D01*
X144147Y518262D02*
X143866Y517981D01*
X144147Y517699D01*
X144428Y517981D01*
X144147Y518262D01*
X149095Y523604D02*
X146284D01*
X146003Y521073D01*
X146284Y521354D01*
X147127Y521636D01*
X147971D01*
X148814Y521354D01*
X149376Y520792D01*
X149658Y519949D01*
Y519386D01*
X149376Y518543D01*
X148814Y517981D01*
X147971Y517699D01*
X147127D01*
X146284Y517981D01*
X146003Y518262D01*
X145721Y518824D01*
X154353Y523604D02*
X151541D01*
X151260Y521073D01*
X151541Y521354D01*
X152385Y521636D01*
X153228D01*
X154072Y521354D01*
X154634Y520792D01*
X154915Y519949D01*
Y519386D01*
X154634Y518543D01*
X154072Y517981D01*
X153228Y517699D01*
X152385D01*
X151541Y517981D01*
X151260Y518262D01*
X150979Y518824D01*
X156237Y522479D02*
X156799Y522760D01*
X157642Y523604D01*
Y517699D01*
X160566Y521636D02*
Y517699D01*
Y520511D02*
X161410Y521354D01*
X161972Y521636D01*
X162816D01*
X163378Y521354D01*
X163659Y520511D01*
Y517699D01*
Y520511D02*
X164503Y521354D01*
X165065Y521636D01*
X165908D01*
X166471Y521354D01*
X166752Y520511D01*
Y517699D01*
X169170Y523604D02*
X169451Y523322D01*
X169732Y523604D01*
X169451Y523885D01*
X169170Y523604D01*
X169451Y521636D02*
Y517699D01*
X170772Y523604D02*
Y517699D01*
X178616Y524728D02*
X178054Y524166D01*
X177492Y523322D01*
X176930Y522198D01*
X176648Y520792D01*
Y519667D01*
X176930Y518262D01*
X177492Y517137D01*
X178054Y516294D01*
X178616Y515731D01*
X178054Y524166D02*
X177492Y523041D01*
X177211Y522198D01*
X176930Y520792D01*
Y519667D01*
X177211Y518262D01*
X177492Y517418D01*
X178054Y516294D01*
X180022Y522198D02*
Y522479D01*
X180303Y523041D01*
X180585Y523322D01*
X181147Y523604D01*
X182272D01*
X182834Y523322D01*
X183115Y523041D01*
X183396Y522479D01*
Y521917D01*
X183115Y521354D01*
X182553Y520511D01*
X179741Y517699D01*
X183677D01*
X185280Y518262D02*
X184999Y517981D01*
X185280Y517699D01*
X185561Y517981D01*
X185280Y518262D01*
X187417Y523604D02*
X190509D01*
X188822Y521354D01*
X189666D01*
X190228Y521073D01*
X190509Y520792D01*
X190790Y519949D01*
Y519386D01*
X190509Y518543D01*
X189947Y517981D01*
X189104Y517699D01*
X188260D01*
X187417Y517981D01*
X187136Y518262D01*
X186854Y518824D01*
X192112Y521636D02*
Y517699D01*
Y520511D02*
X192955Y521354D01*
X193518Y521636D01*
X194361D01*
X194923Y521354D01*
X195205Y520511D01*
Y517699D01*
Y520511D02*
X196048Y521354D01*
X196610Y521636D01*
X197454D01*
X198016Y521354D01*
X198297Y520511D01*
Y517699D01*
X200153Y521636D02*
Y517699D01*
Y520511D02*
X200996Y521354D01*
X201559Y521636D01*
X202402D01*
X202964Y521354D01*
X203246Y520511D01*
Y517699D01*
Y520511D02*
X204089Y521354D01*
X204651Y521636D01*
X205495D01*
X206057Y521354D01*
X206338Y520511D01*
Y517699D01*
X208194Y524728D02*
X208756Y524166D01*
X209319Y523322D01*
X209881Y522198D01*
X210162Y520792D01*
Y519667D01*
X209881Y518262D01*
X209319Y517137D01*
X208756Y516294D01*
X208194Y515731D01*
X208756Y524166D02*
X209319Y523041D01*
X209600Y522198D01*
X209881Y520792D01*
Y519667D01*
X209600Y518262D01*
X209319Y517418D01*
X208756Y516294D01*
X233287Y520511D02*
X235817D01*
X236661Y520792D01*
X236942Y521073D01*
X237223Y521636D01*
Y522479D01*
X236942Y523041D01*
X236661Y523322D01*
X235817Y523604D01*
X233287D01*
Y517699D01*
X240513Y523604D02*
Y517699D01*
X238545Y523604D02*
X242481D01*
X243183D02*
Y517699D01*
X247120Y523604D02*
Y517699D01*
X243183Y520792D02*
X247120D01*
X273101Y523604D02*
Y517699D01*
Y523604D02*
X275631D01*
X276475Y523322D01*
X276756Y523041D01*
X277037Y522479D01*
Y521917D01*
X276756Y521354D01*
X276475Y521073D01*
X275631Y520792D01*
X273101D01*
X275069D02*
X277037Y517699D01*
X279764Y521636D02*
X279202Y521354D01*
X278640Y520792D01*
X278359Y519949D01*
Y519386D01*
X278640Y518543D01*
X279202Y517981D01*
X279764Y517699D01*
X280608D01*
X281170Y517981D01*
X281733Y518543D01*
X282014Y519386D01*
Y519949D01*
X281733Y520792D01*
X281170Y521354D01*
X280608Y521636D01*
X279764D01*
X283307D02*
Y518824D01*
X283588Y517981D01*
X284151Y517699D01*
X284994D01*
X285556Y517981D01*
X286400Y518824D01*
Y521636D02*
Y517699D01*
X287946Y521636D02*
Y517699D01*
Y520511D02*
X288790Y521354D01*
X289352Y521636D01*
X290195D01*
X290758Y521354D01*
X291039Y520511D01*
Y517699D01*
X295959Y523604D02*
Y517699D01*
Y520792D02*
X295397Y521354D01*
X294834Y521636D01*
X293991D01*
X293429Y521354D01*
X292866Y520792D01*
X292585Y519949D01*
Y519386D01*
X292866Y518543D01*
X293429Y517981D01*
X293991Y517699D01*
X294834D01*
X295397Y517981D01*
X295959Y518543D01*
X75216Y510668D02*
X75779Y510949D01*
X76622Y511793D01*
Y505888D01*
X79827Y510387D02*
Y510668D01*
X80108Y511230D01*
X80390Y511512D01*
X80952Y511793D01*
X82077D01*
X82639Y511512D01*
X82920Y511230D01*
X83201Y510668D01*
Y510106D01*
X82920Y509543D01*
X82358Y508700D01*
X79546Y505888D01*
X83482D01*
X133351Y510668D02*
X133913Y510949D01*
X134756Y511793D01*
Y505888D01*
X137680Y510668D02*
X138243Y510949D01*
X139086Y511793D01*
Y505888D01*
X143416Y511793D02*
X142572Y511512D01*
X142291Y510949D01*
Y510387D01*
X142572Y509825D01*
X143135Y509543D01*
X144259Y509262D01*
X145103Y508981D01*
X145665Y508419D01*
X145946Y507857D01*
Y507013D01*
X145665Y506451D01*
X145384Y506170D01*
X144541Y505888D01*
X143416D01*
X142572Y506170D01*
X142291Y506451D01*
X142010Y507013D01*
Y507857D01*
X142291Y508419D01*
X142854Y508981D01*
X143697Y509262D01*
X144822Y509543D01*
X145384Y509825D01*
X145665Y510387D01*
Y510949D01*
X145384Y511512D01*
X144541Y511793D01*
X143416D01*
X147549Y506451D02*
X147268Y506170D01*
X147549Y505888D01*
X147830Y506170D01*
X147549Y506451D01*
X149123Y510668D02*
X149686Y510949D01*
X150529Y511793D01*
Y505888D01*
X153453Y510668D02*
X154016Y510949D01*
X154859Y511793D01*
Y505888D01*
X157783Y509825D02*
Y505888D01*
Y508700D02*
X158626Y509543D01*
X159189Y509825D01*
X160032D01*
X160594Y509543D01*
X160876Y508700D01*
Y505888D01*
Y508700D02*
X161719Y509543D01*
X162281Y509825D01*
X163125D01*
X163687Y509543D01*
X163968Y508700D01*
Y505888D01*
X166386Y511793D02*
X166667Y511512D01*
X166949Y511793D01*
X166667Y512074D01*
X166386Y511793D01*
X166667Y509825D02*
Y505888D01*
X167989Y511793D02*
Y505888D01*
X175833Y512917D02*
X175271Y512355D01*
X174708Y511512D01*
X174146Y510387D01*
X173865Y508981D01*
Y507857D01*
X174146Y506451D01*
X174708Y505326D01*
X175271Y504483D01*
X175833Y503920D01*
X175271Y512355D02*
X174708Y511230D01*
X174427Y510387D01*
X174146Y508981D01*
Y507857D01*
X174427Y506451D01*
X174708Y505607D01*
X175271Y504483D01*
X177520Y511793D02*
X180613D01*
X178926Y509543D01*
X179769D01*
X180332Y509262D01*
X180613Y508981D01*
X180894Y508138D01*
Y507575D01*
X180613Y506732D01*
X180050Y506170D01*
X179207Y505888D01*
X178364D01*
X177520Y506170D01*
X177239Y506451D01*
X176958Y507013D01*
X182215Y509825D02*
Y505888D01*
Y508700D02*
X183059Y509543D01*
X183621Y509825D01*
X184465D01*
X185027Y509543D01*
X185308Y508700D01*
Y505888D01*
Y508700D02*
X186151Y509543D01*
X186714Y509825D01*
X187557D01*
X188119Y509543D01*
X188401Y508700D01*
Y505888D01*
X190256Y509825D02*
Y505888D01*
Y508700D02*
X191100Y509543D01*
X191662Y509825D01*
X192506D01*
X193068Y509543D01*
X193349Y508700D01*
Y505888D01*
Y508700D02*
X194193Y509543D01*
X194755Y509825D01*
X195598D01*
X196160Y509543D01*
X196442Y508700D01*
Y505888D01*
X198297Y512917D02*
X198860Y512355D01*
X199422Y511512D01*
X199984Y510387D01*
X200265Y508981D01*
Y507857D01*
X199984Y506451D01*
X199422Y505326D01*
X198860Y504483D01*
X198297Y503920D01*
X198860Y512355D02*
X199422Y511230D01*
X199703Y510387D01*
X199984Y508981D01*
Y507857D01*
X199703Y506451D01*
X199422Y505607D01*
X198860Y504483D01*
X233287Y511793D02*
Y505888D01*
Y511793D02*
X237223Y505888D01*
Y511793D02*
Y505888D01*
X238854Y508700D02*
X241384D01*
X242228Y508981D01*
X242509Y509262D01*
X242790Y509825D01*
Y510668D01*
X242509Y511230D01*
X242228Y511512D01*
X241384Y511793D01*
X238854D01*
Y505888D01*
X246079Y511793D02*
Y505888D01*
X244111Y511793D02*
X248047D01*
X248750D02*
Y505888D01*
X252687Y511793D02*
Y505888D01*
X248750Y508981D02*
X252687D01*
X273101Y511793D02*
Y505888D01*
Y511793D02*
X275631D01*
X276475Y511512D01*
X276756Y511230D01*
X277037Y510668D01*
Y510106D01*
X276756Y509543D01*
X276475Y509262D01*
X275631Y508981D01*
X273101D01*
X275069D02*
X277037Y505888D01*
X279764Y509825D02*
X279202Y509543D01*
X278640Y508981D01*
X278359Y508138D01*
Y507575D01*
X278640Y506732D01*
X279202Y506170D01*
X279764Y505888D01*
X280608D01*
X281170Y506170D01*
X281733Y506732D01*
X282014Y507575D01*
Y508138D01*
X281733Y508981D01*
X281170Y509543D01*
X280608Y509825D01*
X279764D01*
X283307D02*
Y507013D01*
X283588Y506170D01*
X284151Y505888D01*
X284994D01*
X285556Y506170D01*
X286400Y507013D01*
Y509825D02*
Y505888D01*
X287946Y509825D02*
Y505888D01*
Y508700D02*
X288790Y509543D01*
X289352Y509825D01*
X290195D01*
X290758Y509543D01*
X291039Y508700D01*
Y505888D01*
X295959Y511793D02*
Y505888D01*
Y508981D02*
X295397Y509543D01*
X294834Y509825D01*
X293991D01*
X293429Y509543D01*
X292866Y508981D01*
X292585Y508138D01*
Y507575D01*
X292866Y506732D01*
X293429Y506170D01*
X293991Y505888D01*
X294834D01*
X295397Y506170D01*
X295959Y506732D01*
X75498Y498576D02*
Y498857D01*
X75779Y499419D01*
X76060Y499700D01*
X76622Y499982D01*
X77747D01*
X78309Y499700D01*
X78590Y499419D01*
X78871Y498857D01*
Y498295D01*
X78590Y497732D01*
X78028Y496889D01*
X75216Y494077D01*
X79153D01*
X133351Y498857D02*
X133913Y499138D01*
X134756Y499982D01*
Y494077D01*
X137962Y498576D02*
Y498857D01*
X138243Y499419D01*
X138524Y499700D01*
X139086Y499982D01*
X140211D01*
X140773Y499700D01*
X141054Y499419D01*
X141335Y498857D01*
Y498295D01*
X141054Y497732D01*
X140492Y496889D01*
X137680Y494077D01*
X141617D01*
X146593Y498013D02*
X146312Y497170D01*
X145749Y496608D01*
X144906Y496327D01*
X144625D01*
X143781Y496608D01*
X143219Y497170D01*
X142938Y498013D01*
Y498295D01*
X143219Y499138D01*
X143781Y499700D01*
X144625Y499982D01*
X144906D01*
X145749Y499700D01*
X146312Y499138D01*
X146593Y498013D01*
Y496608D01*
X146312Y495202D01*
X145749Y494358D01*
X144906Y494077D01*
X144344D01*
X143500Y494358D01*
X143219Y494921D01*
X148477Y494640D02*
X148196Y494358D01*
X148477Y494077D01*
X148758Y494358D01*
X148477Y494640D01*
X153706Y498013D02*
X153425Y497170D01*
X152863Y496608D01*
X152019Y496327D01*
X151738D01*
X150895Y496608D01*
X150332Y497170D01*
X150051Y498013D01*
Y498295D01*
X150332Y499138D01*
X150895Y499700D01*
X151738Y499982D01*
X152019D01*
X152863Y499700D01*
X153425Y499138D01*
X153706Y498013D01*
Y496608D01*
X153425Y495202D01*
X152863Y494358D01*
X152019Y494077D01*
X151457D01*
X150613Y494358D01*
X150332Y494921D01*
X155590Y498576D02*
Y498857D01*
X155871Y499419D01*
X156152Y499700D01*
X156715Y499982D01*
X157839D01*
X158402Y499700D01*
X158683Y499419D01*
X158964Y498857D01*
Y498295D01*
X158683Y497732D01*
X158120Y496889D01*
X155309Y494077D01*
X159245D01*
X160566Y498857D02*
X161129Y499138D01*
X161972Y499982D01*
Y494077D01*
X164896Y498013D02*
Y494077D01*
Y496889D02*
X165740Y497732D01*
X166302Y498013D01*
X167145D01*
X167708Y497732D01*
X167989Y496889D01*
Y494077D01*
Y496889D02*
X168832Y497732D01*
X169395Y498013D01*
X170238D01*
X170800Y497732D01*
X171082Y496889D01*
Y494077D01*
X173500Y499982D02*
X173781Y499700D01*
X174062Y499982D01*
X173781Y500263D01*
X173500Y499982D01*
X173781Y498013D02*
Y494077D01*
X175102Y499982D02*
Y494077D01*
X182946Y501106D02*
X182384Y500544D01*
X181822Y499700D01*
X181259Y498576D01*
X180978Y497170D01*
Y496045D01*
X181259Y494640D01*
X181822Y493515D01*
X182384Y492672D01*
X182946Y492109D01*
X182384Y500544D02*
X181822Y499419D01*
X181541Y498576D01*
X181259Y497170D01*
Y496045D01*
X181541Y494640D01*
X181822Y493796D01*
X182384Y492672D01*
X184633Y499982D02*
X187726D01*
X186039Y497732D01*
X186882D01*
X187445Y497451D01*
X187726Y497170D01*
X188007Y496327D01*
Y495764D01*
X187726Y494921D01*
X187164Y494358D01*
X186320Y494077D01*
X185477D01*
X184633Y494358D01*
X184352Y494640D01*
X184071Y495202D01*
X189610Y494640D02*
X189329Y494358D01*
X189610Y494077D01*
X189891Y494358D01*
X189610Y494640D01*
X191746Y499982D02*
X194839D01*
X193152Y497732D01*
X193996D01*
X194558Y497451D01*
X194839Y497170D01*
X195120Y496327D01*
Y495764D01*
X194839Y494921D01*
X194277Y494358D01*
X193433Y494077D01*
X192590D01*
X191746Y494358D01*
X191465Y494640D01*
X191184Y495202D01*
X196442Y498013D02*
Y494077D01*
Y496889D02*
X197285Y497732D01*
X197847Y498013D01*
X198691D01*
X199253Y497732D01*
X199534Y496889D01*
Y494077D01*
Y496889D02*
X200378Y497732D01*
X200940Y498013D01*
X201784D01*
X202346Y497732D01*
X202627Y496889D01*
Y494077D01*
X204483Y498013D02*
Y494077D01*
Y496889D02*
X205326Y497732D01*
X205889Y498013D01*
X206732D01*
X207294Y497732D01*
X207575Y496889D01*
Y494077D01*
Y496889D02*
X208419Y497732D01*
X208981Y498013D01*
X209825D01*
X210387Y497732D01*
X210668Y496889D01*
Y494077D01*
X212524Y501106D02*
X213086Y500544D01*
X213648Y499700D01*
X214211Y498576D01*
X214492Y497170D01*
Y496045D01*
X214211Y494640D01*
X213648Y493515D01*
X213086Y492672D01*
X212524Y492109D01*
X213086Y500544D02*
X213648Y499419D01*
X213930Y498576D01*
X214211Y497170D01*
Y496045D01*
X213930Y494640D01*
X213648Y493796D01*
X213086Y492672D01*
X233287Y499982D02*
Y494077D01*
Y499982D02*
X237223Y494077D01*
Y499982D02*
Y494077D01*
X238854Y496889D02*
X241384D01*
X242228Y497170D01*
X242509Y497451D01*
X242790Y498013D01*
Y498857D01*
X242509Y499419D01*
X242228Y499700D01*
X241384Y499982D01*
X238854D01*
Y494077D01*
X246079Y499982D02*
Y494077D01*
X244111Y499982D02*
X248047D01*
X248750D02*
Y494077D01*
X252687Y499982D02*
Y494077D01*
X248750Y497170D02*
X252687D01*
X273101Y499982D02*
Y494077D01*
Y499982D02*
X275631D01*
X276475Y499700D01*
X276756Y499419D01*
X277037Y498857D01*
Y498295D01*
X276756Y497732D01*
X276475Y497451D01*
X275631Y497170D01*
X273101D01*
X275069D02*
X277037Y494077D01*
X279764Y498013D02*
X279202Y497732D01*
X278640Y497170D01*
X278359Y496327D01*
Y495764D01*
X278640Y494921D01*
X279202Y494358D01*
X279764Y494077D01*
X280608D01*
X281170Y494358D01*
X281733Y494921D01*
X282014Y495764D01*
Y496327D01*
X281733Y497170D01*
X281170Y497732D01*
X280608Y498013D01*
X279764D01*
X283307D02*
Y495202D01*
X283588Y494358D01*
X284151Y494077D01*
X284994D01*
X285556Y494358D01*
X286400Y495202D01*
Y498013D02*
Y494077D01*
X287946Y498013D02*
Y494077D01*
Y496889D02*
X288790Y497732D01*
X289352Y498013D01*
X290195D01*
X290758Y497732D01*
X291039Y496889D01*
Y494077D01*
X295959Y499982D02*
Y494077D01*
Y497170D02*
X295397Y497732D01*
X294834Y498013D01*
X293991D01*
X293429Y497732D01*
X292866Y497170D01*
X292585Y496327D01*
Y495764D01*
X292866Y494921D01*
X293429Y494358D01*
X293991Y494077D01*
X294834D01*
X295397Y494358D01*
X295959Y494921D01*
X78028Y488171D02*
X75216Y484234D01*
X79434D01*
X78028Y488171D02*
Y482266D01*
X83285Y488171D02*
X80474Y484234D01*
X84691D01*
X83285Y488171D02*
Y482266D01*
X87137Y488171D02*
X86294Y487889D01*
X86013Y487327D01*
Y486765D01*
X86294Y486202D01*
X86856Y485921D01*
X87981Y485640D01*
X88824Y485359D01*
X89387Y484797D01*
X89668Y484234D01*
Y483391D01*
X89387Y482829D01*
X89105Y482548D01*
X88262Y482266D01*
X87137D01*
X86294Y482548D01*
X86013Y482829D01*
X85732Y483391D01*
Y484234D01*
X86013Y484797D01*
X86575Y485359D01*
X87419Y485640D01*
X88543Y485921D01*
X89105Y486202D01*
X89387Y486765D01*
Y487327D01*
X89105Y487889D01*
X88262Y488171D01*
X87137D01*
X102974D02*
Y482266D01*
X101006Y488171D02*
X104943D01*
X107051Y486202D02*
X106489Y485921D01*
X105927Y485359D01*
X105645Y484516D01*
Y483953D01*
X105927Y483110D01*
X106489Y482548D01*
X107051Y482266D01*
X107895D01*
X108457Y482548D01*
X109019Y483110D01*
X109300Y483953D01*
Y484516D01*
X109019Y485359D01*
X108457Y485921D01*
X107895Y486202D01*
X107051D01*
X111437Y488171D02*
Y483391D01*
X111718Y482548D01*
X112281Y482266D01*
X112843D01*
X110594Y486202D02*
X112562D01*
X117060D02*
Y482266D01*
Y485359D02*
X116498Y485921D01*
X115936Y486202D01*
X115092D01*
X114530Y485921D01*
X113968Y485359D01*
X113686Y484516D01*
Y483953D01*
X113968Y483110D01*
X114530Y482548D01*
X115092Y482266D01*
X115936D01*
X116498Y482548D01*
X117060Y483110D01*
X118635Y488171D02*
Y482266D01*
D75*
X33830Y615140D02*
G03*
X33830Y615140I-2200J0D01*
G01*
Y556085D02*
G03*
X33830Y556085I-2200J0D01*
G01*
D76*
X33031Y615140D02*
G03*
X33031Y615140I-1400J0D01*
G01*
M02*
