G04 Layer_Color=8388736*
%FSLAX25Y25*%
%MOIN*%
G70*
G01*
G75*
%ADD19C,0.05906*%
%ADD31C,0.06378*%
%ADD40C,0.07099*%
%ADD41C,0.07493*%
%ADD42R,0.07493X0.07493*%
%ADD43R,0.06706X0.06706*%
%ADD44C,0.06706*%
%ADD45R,0.08674X0.08674*%
%ADD46C,0.08674*%
%ADD47C,0.05524*%
%ADD48C,0.06706*%
%ADD49R,0.06706X0.06706*%
%ADD50C,0.09068*%
%ADD51C,0.10642*%
%ADD52C,0.00800*%
%ADD53R,0.06706X0.06706*%
%ADD54R,0.06706X0.06706*%
%ADD55C,0.09580*%
%ADD56C,0.13792*%
%ADD57C,0.07178*%
%ADD58C,0.07887*%
%ADD59C,0.06800*%
%ADD60C,0.06312*%
%ADD61C,0.15761*%
%ADD62R,0.07099X0.07099*%
%ADD63R,0.00800X0.00800*%
%ADD64C,0.00800*%
%ADD65C,0.03950*%
D19*
X444488Y44842D02*
D03*
D31*
X410906Y-6142D02*
D03*
D40*
X47000Y320500D02*
D03*
X37000D02*
D03*
X27000D02*
D03*
X27933Y35721D02*
D03*
X37776D02*
D03*
X27933Y43595D02*
D03*
D41*
X6299Y170500D02*
D03*
Y160500D02*
D03*
Y243177D02*
D03*
Y253177D02*
D03*
D42*
Y150500D02*
D03*
Y233177D02*
D03*
D43*
X353425Y106500D02*
D03*
X6000Y202000D02*
D03*
X435854Y263779D02*
D03*
X157047Y352500D02*
D03*
X183386Y135500D02*
D03*
X443500D02*
D03*
X323000Y139500D02*
D03*
X48038Y59971D02*
D03*
X409488Y34843D02*
D03*
X380500Y83500D02*
D03*
X6000Y287500D02*
D03*
X98000Y246000D02*
D03*
X157047Y316500D02*
D03*
X264500Y135500D02*
D03*
X276354Y13634D02*
D03*
X114354D02*
D03*
X195354Y14634D02*
D03*
X357354Y13134D02*
D03*
X437323Y363268D02*
D03*
X356614D02*
D03*
X305827Y319961D02*
D03*
X275905Y363268D02*
D03*
X216500Y301500D02*
D03*
D44*
X363425Y106500D02*
D03*
X373425D02*
D03*
X383425D02*
D03*
X393425D02*
D03*
X16000Y202000D02*
D03*
X353000Y325500D02*
D03*
X175854Y193780D02*
D03*
X185854D02*
D03*
X195854D02*
D03*
X175854Y203780D02*
D03*
X185854D02*
D03*
X195854D02*
D03*
X175854Y213779D02*
D03*
X185854D02*
D03*
X195854D02*
D03*
X175854Y223780D02*
D03*
X185854D02*
D03*
X195854D02*
D03*
X175854Y233780D02*
D03*
X185854D02*
D03*
X195854D02*
D03*
X175854Y243779D02*
D03*
X185854D02*
D03*
X195854D02*
D03*
X205854D02*
D03*
X175854Y173779D02*
D03*
X185854D02*
D03*
X195854D02*
D03*
X205854D02*
D03*
X215854D02*
D03*
X225854D02*
D03*
X235854D02*
D03*
X245854D02*
D03*
X255854D02*
D03*
X265854D02*
D03*
X275854D02*
D03*
X285854D02*
D03*
X295854D02*
D03*
X305854D02*
D03*
X315854D02*
D03*
X325854D02*
D03*
X335854D02*
D03*
X345854D02*
D03*
X355854D02*
D03*
X365854D02*
D03*
X375854D02*
D03*
X385854D02*
D03*
X395854D02*
D03*
X405854D02*
D03*
X415854D02*
D03*
X425854D02*
D03*
X435854D02*
D03*
X175854Y263779D02*
D03*
X185854D02*
D03*
X195854D02*
D03*
X205854D02*
D03*
X215854D02*
D03*
X225854D02*
D03*
X235854D02*
D03*
X245854D02*
D03*
X255854D02*
D03*
X265854D02*
D03*
X275854D02*
D03*
X285854D02*
D03*
X295854D02*
D03*
X305854D02*
D03*
X315854D02*
D03*
X325854D02*
D03*
X335854D02*
D03*
X345854D02*
D03*
X355854D02*
D03*
X365854D02*
D03*
X375854D02*
D03*
X385854D02*
D03*
X395854D02*
D03*
X405854D02*
D03*
X415854D02*
D03*
X425854D02*
D03*
X445854Y183780D02*
D03*
Y193780D02*
D03*
Y203780D02*
D03*
Y213779D02*
D03*
Y223780D02*
D03*
Y233780D02*
D03*
Y243779D02*
D03*
Y253780D02*
D03*
X157047Y362500D02*
D03*
X147047D02*
D03*
Y352500D02*
D03*
X137047Y362500D02*
D03*
Y352500D02*
D03*
X127047Y362500D02*
D03*
Y352500D02*
D03*
X117047Y362500D02*
D03*
Y352500D02*
D03*
X107047Y362500D02*
D03*
Y352500D02*
D03*
X97047Y362500D02*
D03*
Y352500D02*
D03*
X87047Y362500D02*
D03*
Y352500D02*
D03*
X183386Y125500D02*
D03*
X173386Y135500D02*
D03*
Y125500D02*
D03*
X163386Y135500D02*
D03*
Y125500D02*
D03*
X153386Y135500D02*
D03*
Y125500D02*
D03*
X143386Y135500D02*
D03*
Y125500D02*
D03*
X353500D02*
D03*
Y135500D02*
D03*
X363500Y125500D02*
D03*
Y135500D02*
D03*
X373500Y125500D02*
D03*
Y135500D02*
D03*
X383500Y125500D02*
D03*
Y135500D02*
D03*
X393500Y125500D02*
D03*
Y135500D02*
D03*
X403500Y125500D02*
D03*
Y135500D02*
D03*
X413500Y125500D02*
D03*
Y135500D02*
D03*
X423500Y125500D02*
D03*
Y135500D02*
D03*
X433500Y125500D02*
D03*
Y135500D02*
D03*
X443500Y125500D02*
D03*
X293000Y139500D02*
D03*
X303000D02*
D03*
X313000D02*
D03*
X98000Y215500D02*
D03*
Y205500D02*
D03*
X38038Y59971D02*
D03*
X455500Y84000D02*
D03*
X90000Y66646D02*
D03*
X429500Y69524D02*
D03*
X414488Y44842D02*
D03*
X439488Y34843D02*
D03*
X434488Y44842D02*
D03*
X424488D02*
D03*
X429488Y34843D02*
D03*
X419488D02*
D03*
X370500Y83500D02*
D03*
X112500Y215500D02*
D03*
X1500Y83500D02*
D03*
X16000Y287500D02*
D03*
X149000Y236500D02*
D03*
X108000Y246000D02*
D03*
X118000D02*
D03*
X128000D02*
D03*
X138000D02*
D03*
X157047Y326500D02*
D03*
X147047D02*
D03*
Y316500D02*
D03*
X137047Y326500D02*
D03*
Y316500D02*
D03*
X127047Y326500D02*
D03*
Y316500D02*
D03*
X117047Y326500D02*
D03*
Y316500D02*
D03*
X107047Y326500D02*
D03*
Y316500D02*
D03*
X97047Y326500D02*
D03*
Y316500D02*
D03*
X87047Y326500D02*
D03*
Y316500D02*
D03*
X264500Y125500D02*
D03*
X254500Y135500D02*
D03*
Y125500D02*
D03*
X244500Y135500D02*
D03*
Y125500D02*
D03*
X234500Y135500D02*
D03*
Y125500D02*
D03*
X224500Y135500D02*
D03*
Y125500D02*
D03*
X266354Y13634D02*
D03*
X256354D02*
D03*
X94354D02*
D03*
X104354D02*
D03*
X185354Y14634D02*
D03*
X175354D02*
D03*
X337354Y13134D02*
D03*
X347354D02*
D03*
X225000Y66146D02*
D03*
X437323Y353268D02*
D03*
X427323Y363268D02*
D03*
Y353268D02*
D03*
X417323Y363268D02*
D03*
Y353268D02*
D03*
X407323Y363268D02*
D03*
Y353268D02*
D03*
X397323Y363268D02*
D03*
Y353268D02*
D03*
X356614D02*
D03*
X346614Y363268D02*
D03*
Y353268D02*
D03*
X336614Y363268D02*
D03*
Y353268D02*
D03*
X326614Y363268D02*
D03*
Y353268D02*
D03*
X316614Y363268D02*
D03*
Y353268D02*
D03*
X305827Y309961D02*
D03*
X295827Y319961D02*
D03*
Y309961D02*
D03*
X285827Y319961D02*
D03*
Y309961D02*
D03*
X275827Y319961D02*
D03*
Y309961D02*
D03*
X265827Y319961D02*
D03*
Y309961D02*
D03*
X275905Y353268D02*
D03*
X265905Y363268D02*
D03*
Y353268D02*
D03*
X255906Y363268D02*
D03*
Y353268D02*
D03*
X245905Y363268D02*
D03*
Y353268D02*
D03*
X235906Y363268D02*
D03*
Y353268D02*
D03*
X148000Y208976D02*
D03*
X138000Y198976D02*
D03*
X148000D02*
D03*
X138000Y188976D02*
D03*
X148000D02*
D03*
X138000Y178976D02*
D03*
X148000D02*
D03*
X138000Y168976D02*
D03*
X148000D02*
D03*
X186500Y301500D02*
D03*
X196500D02*
D03*
X206500D02*
D03*
D45*
X49500Y150500D02*
D03*
D46*
X69500D02*
D03*
D47*
X21500D02*
D03*
Y130500D02*
D03*
X21000Y236000D02*
D03*
Y226000D02*
D03*
X160000Y238500D02*
D03*
Y248500D02*
D03*
X332000Y315500D02*
D03*
Y325500D02*
D03*
X21000Y247500D02*
D03*
Y257500D02*
D03*
D48*
X433000Y325500D02*
D03*
X423000D02*
D03*
X413000D02*
D03*
X403000D02*
D03*
X393000D02*
D03*
X383000D02*
D03*
X373000D02*
D03*
X363000D02*
D03*
X343000D02*
D03*
X433000Y295500D02*
D03*
X423000D02*
D03*
X413000D02*
D03*
X403000D02*
D03*
X393000D02*
D03*
X383000D02*
D03*
X373000D02*
D03*
X363000D02*
D03*
X353000D02*
D03*
X88000Y259000D02*
D03*
X98000D02*
D03*
X108000D02*
D03*
X118000D02*
D03*
X128000D02*
D03*
X138000D02*
D03*
X148000D02*
D03*
X158000D02*
D03*
X88000Y289000D02*
D03*
X98000D02*
D03*
X108000D02*
D03*
X118000D02*
D03*
X128000D02*
D03*
X138000D02*
D03*
X148000D02*
D03*
X149500Y68500D02*
D03*
Y78500D02*
D03*
Y88500D02*
D03*
Y98500D02*
D03*
X119500Y68500D02*
D03*
Y78500D02*
D03*
Y88500D02*
D03*
X259500Y90000D02*
D03*
Y80000D02*
D03*
Y70000D02*
D03*
X289500Y100000D02*
D03*
Y90000D02*
D03*
Y80000D02*
D03*
Y70000D02*
D03*
D49*
X343000Y295500D02*
D03*
X158000Y289000D02*
D03*
D50*
X165669Y-4921D02*
D03*
X205039D02*
D03*
X195197D02*
D03*
X175512D02*
D03*
X94512D02*
D03*
X114197D02*
D03*
X124039D02*
D03*
X84669D02*
D03*
X327669D02*
D03*
X367039D02*
D03*
X357197D02*
D03*
X337512D02*
D03*
X256512D02*
D03*
X276197D02*
D03*
X286039D02*
D03*
X246669D02*
D03*
D51*
X185354Y34449D02*
D03*
X165669Y44291D02*
D03*
X155827Y34449D02*
D03*
X214882D02*
D03*
X205039Y44291D02*
D03*
X124039D02*
D03*
X133882Y34449D02*
D03*
X74827D02*
D03*
X84669Y44291D02*
D03*
X104354Y34449D02*
D03*
X347354D02*
D03*
X327669Y44291D02*
D03*
X317827Y34449D02*
D03*
X376882D02*
D03*
X367039Y44291D02*
D03*
X286039D02*
D03*
X295882Y34449D02*
D03*
X236827D02*
D03*
X246669Y44291D02*
D03*
X266354Y34449D02*
D03*
D52*
X155354Y14449D02*
D03*
X215354D02*
D03*
X134354D02*
D03*
X74354D02*
D03*
X317354D02*
D03*
X377354D02*
D03*
X296354D02*
D03*
X236354D02*
D03*
D53*
X98000Y225500D02*
D03*
X455500Y74000D02*
D03*
X90000Y97354D02*
D03*
X429500Y97476D02*
D03*
X112500Y225500D02*
D03*
X1500Y93500D02*
D03*
X149000Y246500D02*
D03*
X225000Y96854D02*
D03*
X138000Y208976D02*
D03*
D54*
X119500Y98500D02*
D03*
X259500Y100000D02*
D03*
D55*
X457992Y22835D02*
D03*
X395984D02*
D03*
D56*
X404488Y9843D02*
D03*
X449488D02*
D03*
D57*
X400906Y-6142D02*
D03*
X443071D02*
D03*
X453071D02*
D03*
D58*
X56000Y348000D02*
D03*
X36000D02*
D03*
X46000Y368000D02*
D03*
X196000D02*
D03*
X186000Y348000D02*
D03*
X206000D02*
D03*
D59*
X59500Y83500D02*
D03*
Y103500D02*
D03*
X39500D02*
D03*
Y83500D02*
D03*
D60*
X417000Y99500D02*
D03*
Y69500D02*
D03*
X58000Y329000D02*
D03*
Y299000D02*
D03*
X75000Y289000D02*
D03*
Y259000D02*
D03*
X241000Y97000D02*
D03*
Y67000D02*
D03*
X359000Y67500D02*
D03*
Y97500D02*
D03*
X334500Y98500D02*
D03*
Y68500D02*
D03*
X308500Y68000D02*
D03*
Y98000D02*
D03*
X320000Y99000D02*
D03*
Y69000D02*
D03*
X205000Y68000D02*
D03*
Y98000D02*
D03*
X192500D02*
D03*
Y68000D02*
D03*
X166500D02*
D03*
Y98000D02*
D03*
X180000D02*
D03*
Y68000D02*
D03*
X102500Y97500D02*
D03*
Y67500D02*
D03*
X190000Y316000D02*
D03*
X220000D02*
D03*
X190000Y328000D02*
D03*
X220000D02*
D03*
X296000Y112000D02*
D03*
X326000D02*
D03*
X295500Y124500D02*
D03*
X325500D02*
D03*
D61*
X9154Y25051D02*
D03*
X56555D02*
D03*
D62*
X37776Y43595D02*
D03*
D63*
X0Y0D02*
D03*
D64*
X17354Y64500D02*
D03*
X374104D02*
D03*
X11811Y314961D02*
D03*
X450787D02*
D03*
D65*
X171000Y160500D02*
D03*
X162500Y215000D02*
D03*
M02*
