G04 Layer_Color=128*
%FSLAX25Y25*%
%MOIN*%
G70*
G01*
G75*
%ADD70C,0.00500*%
D70*
X45622Y320500D02*
X48378D01*
X47000Y319122D02*
Y321878D01*
X35622Y320500D02*
X38378D01*
X37000Y319122D02*
Y321878D01*
X25622Y320500D02*
X28378D01*
X27000Y319122D02*
Y321878D01*
X4134Y170500D02*
X8465D01*
X6299Y168335D02*
Y172665D01*
X4134Y160500D02*
X8465D01*
X6299Y158335D02*
Y162665D01*
X4134Y150500D02*
X8465D01*
X6299Y148335D02*
Y152665D01*
X351654Y106500D02*
X355197D01*
X353425Y104728D02*
Y108272D01*
X361653Y106500D02*
X365197D01*
X363425Y104728D02*
Y108272D01*
X371654Y106500D02*
X375197D01*
X373425Y104728D02*
Y108272D01*
X381653Y106500D02*
X385197D01*
X383425Y104728D02*
Y108272D01*
X391653Y106500D02*
X395197D01*
X393425Y104728D02*
Y108272D01*
X47532Y150500D02*
X51468D01*
X49500Y148531D02*
Y152469D01*
X67532Y150500D02*
X71469D01*
X69500Y148531D02*
Y152469D01*
X4228Y202000D02*
X7772D01*
X6000Y200228D02*
Y203772D01*
X14228Y202000D02*
X17772D01*
X16000Y200228D02*
Y203772D01*
X20122Y150500D02*
X22878D01*
X21500Y149122D02*
Y151878D01*
X20122Y130500D02*
X22878D01*
X21500Y129122D02*
Y131878D01*
X19622Y236000D02*
X22378D01*
X21000Y234622D02*
Y237378D01*
X19622Y226000D02*
X22378D01*
X21000Y224622D02*
Y227378D01*
X431228Y325500D02*
X434772D01*
X433000Y323728D02*
Y327272D01*
X421228Y325500D02*
X424772D01*
X423000Y323728D02*
Y327272D01*
X411228Y325500D02*
X414772D01*
X413000Y323728D02*
Y327272D01*
X401228Y325500D02*
X404772D01*
X403000Y323728D02*
Y327272D01*
X391228Y325500D02*
X394772D01*
X393000Y323728D02*
Y327272D01*
X381228Y325500D02*
X384772D01*
X383000Y323728D02*
Y327272D01*
X371228Y325500D02*
X374772D01*
X373000Y323728D02*
Y327272D01*
X361228Y325500D02*
X364772D01*
X363000Y323728D02*
Y327272D01*
X351228Y325500D02*
X354772D01*
X353000Y323728D02*
Y327272D01*
X341228Y325500D02*
X344772D01*
X343000Y323728D02*
Y327272D01*
X431228Y295500D02*
X434772D01*
X433000Y293728D02*
Y297272D01*
X421228Y295500D02*
X424772D01*
X423000Y293728D02*
Y297272D01*
X411228Y295500D02*
X414772D01*
X413000Y293728D02*
Y297272D01*
X401228Y295500D02*
X404772D01*
X403000Y293728D02*
Y297272D01*
X391228Y295500D02*
X394772D01*
X393000Y293728D02*
Y297272D01*
X381228Y295500D02*
X384772D01*
X383000Y293728D02*
Y297272D01*
X371228Y295500D02*
X374772D01*
X373000Y293728D02*
Y297272D01*
X361228Y295500D02*
X364772D01*
X363000Y293728D02*
Y297272D01*
X351228Y295500D02*
X354772D01*
X353000Y293728D02*
Y297272D01*
X341228Y295500D02*
X344772D01*
X343000Y293728D02*
Y297272D01*
X86228Y259000D02*
X89772D01*
X88000Y257228D02*
Y260772D01*
X96228Y259000D02*
X99772D01*
X98000Y257228D02*
Y260772D01*
X106228Y259000D02*
X109772D01*
X108000Y257228D02*
Y260772D01*
X116228Y259000D02*
X119772D01*
X118000Y257228D02*
Y260772D01*
X126228Y259000D02*
X129772D01*
X128000Y257228D02*
Y260772D01*
X136228Y259000D02*
X139772D01*
X138000Y257228D02*
Y260772D01*
X146228Y259000D02*
X149772D01*
X148000Y257228D02*
Y260772D01*
X156228Y259000D02*
X159772D01*
X158000Y257228D02*
Y260772D01*
X86228Y289000D02*
X89772D01*
X88000Y287228D02*
Y290772D01*
X96228Y289000D02*
X99772D01*
X98000Y287228D02*
Y290772D01*
X106228Y289000D02*
X109772D01*
X108000Y287228D02*
Y290772D01*
X116228Y289000D02*
X119772D01*
X118000Y287228D02*
Y290772D01*
X126228Y289000D02*
X129772D01*
X128000Y287228D02*
Y290772D01*
X136228Y289000D02*
X139772D01*
X138000Y287228D02*
Y290772D01*
X146228Y289000D02*
X149772D01*
X148000Y287228D02*
Y290772D01*
X156228Y289000D02*
X159772D01*
X158000Y287228D02*
Y290772D01*
X163110Y-4921D02*
X168228D01*
X165669Y-7480D02*
Y-2362D01*
X202480Y-4921D02*
X207598D01*
X205039Y-7480D02*
Y-2362D01*
X192638Y-4921D02*
X197756D01*
X195197Y-7480D02*
Y-2362D01*
X172953Y-4921D02*
X178071D01*
X175512Y-7480D02*
Y-2362D01*
X182795Y34449D02*
X187913D01*
X185354Y31890D02*
Y37008D01*
X163110Y44291D02*
X168228D01*
X165669Y41732D02*
Y46850D01*
X153268Y34449D02*
X158386D01*
X155827Y31890D02*
Y37008D01*
X212323Y34449D02*
X217441D01*
X214882Y31890D02*
Y37008D01*
X202480Y44291D02*
X207598D01*
X205039Y41732D02*
Y46850D01*
X149449Y14449D02*
X161260D01*
X155354Y8543D02*
Y20354D01*
X209449Y14449D02*
X221260D01*
X215354Y8543D02*
Y20354D01*
X128449Y14449D02*
X140260D01*
X134354Y8543D02*
Y20354D01*
X68449Y14449D02*
X80260D01*
X74354Y8543D02*
Y20354D01*
X121480Y44291D02*
X126598D01*
X124039Y41732D02*
Y46850D01*
X131323Y34449D02*
X136441D01*
X133882Y31890D02*
Y37008D01*
X72268Y34449D02*
X77386D01*
X74827Y31890D02*
Y37008D01*
X82110Y44291D02*
X87228D01*
X84669Y41732D02*
Y46850D01*
X101795Y34449D02*
X106913D01*
X104354Y31890D02*
Y37008D01*
X91953Y-4921D02*
X97071D01*
X94512Y-7480D02*
Y-2362D01*
X111638Y-4921D02*
X116756D01*
X114197Y-7480D02*
Y-2362D01*
X121480Y-4921D02*
X126598D01*
X124039Y-7480D02*
Y-2362D01*
X82110Y-4921D02*
X87228D01*
X84669Y-7480D02*
Y-2362D01*
X174083Y193780D02*
X177626D01*
X175854Y192008D02*
Y195551D01*
X184083Y193780D02*
X187626D01*
X185854Y192008D02*
Y195551D01*
X194083Y193780D02*
X197626D01*
X195854Y192008D02*
Y195551D01*
X174083Y203780D02*
X177626D01*
X175854Y202008D02*
Y205551D01*
X184083Y203780D02*
X187626D01*
X185854Y202008D02*
Y205551D01*
X194083Y203780D02*
X197626D01*
X195854Y202008D02*
Y205551D01*
X174083Y213779D02*
X177626D01*
X175854Y212008D02*
Y215551D01*
X184083Y213779D02*
X187626D01*
X185854Y212008D02*
Y215551D01*
X194083Y213779D02*
X197626D01*
X195854Y212008D02*
Y215551D01*
X174083Y223780D02*
X177626D01*
X175854Y222008D02*
Y225551D01*
X184083Y223780D02*
X187626D01*
X185854Y222008D02*
Y225551D01*
X194083Y223780D02*
X197626D01*
X195854Y222008D02*
Y225551D01*
X174083Y233780D02*
X177626D01*
X175854Y232008D02*
Y235551D01*
X184083Y233780D02*
X187626D01*
X185854Y232008D02*
Y235551D01*
X194083Y233780D02*
X197626D01*
X195854Y232008D02*
Y235551D01*
X174083Y243779D02*
X177626D01*
X175854Y242008D02*
Y245551D01*
X184083Y243779D02*
X187626D01*
X185854Y242008D02*
Y245551D01*
X194083Y243779D02*
X197626D01*
X195854Y242008D02*
Y245551D01*
X204083Y243779D02*
X207626D01*
X205854Y242008D02*
Y245551D01*
X174083Y173779D02*
X177626D01*
X175854Y172008D02*
Y175551D01*
X184083Y173779D02*
X187626D01*
X185854Y172008D02*
Y175551D01*
X194083Y173779D02*
X197626D01*
X195854Y172008D02*
Y175551D01*
X204083Y173779D02*
X207626D01*
X205854Y172008D02*
Y175551D01*
X214083Y173779D02*
X217626D01*
X215854Y172008D02*
Y175551D01*
X224083Y173779D02*
X227626D01*
X225854Y172008D02*
Y175551D01*
X234083Y173779D02*
X237626D01*
X235854Y172008D02*
Y175551D01*
X244083Y173779D02*
X247626D01*
X245854Y172008D02*
Y175551D01*
X254083Y173779D02*
X257626D01*
X255854Y172008D02*
Y175551D01*
X264083Y173779D02*
X267626D01*
X265854Y172008D02*
Y175551D01*
X274083Y173779D02*
X277626D01*
X275854Y172008D02*
Y175551D01*
X284083Y173779D02*
X287626D01*
X285854Y172008D02*
Y175551D01*
X294083Y173779D02*
X297626D01*
X295854Y172008D02*
Y175551D01*
X304083Y173779D02*
X307626D01*
X305854Y172008D02*
Y175551D01*
X314083Y173779D02*
X317626D01*
X315854Y172008D02*
Y175551D01*
X324083Y173779D02*
X327626D01*
X325854Y172008D02*
Y175551D01*
X334083Y173779D02*
X337626D01*
X335854Y172008D02*
Y175551D01*
X344083Y173779D02*
X347626D01*
X345854Y172008D02*
Y175551D01*
X354083Y173779D02*
X357626D01*
X355854Y172008D02*
Y175551D01*
X364083Y173779D02*
X367626D01*
X365854Y172008D02*
Y175551D01*
X374083Y173779D02*
X377626D01*
X375854Y172008D02*
Y175551D01*
X384083Y173779D02*
X387626D01*
X385854Y172008D02*
Y175551D01*
X394083Y173779D02*
X397626D01*
X395854Y172008D02*
Y175551D01*
X404083Y173779D02*
X407626D01*
X405854Y172008D02*
Y175551D01*
X414083Y173779D02*
X417626D01*
X415854Y172008D02*
Y175551D01*
X424083Y173779D02*
X427626D01*
X425854Y172008D02*
Y175551D01*
X434083Y173779D02*
X437626D01*
X435854Y172008D02*
Y175551D01*
X174083Y263779D02*
X177626D01*
X175854Y262008D02*
Y265551D01*
X184083Y263779D02*
X187626D01*
X185854Y262008D02*
Y265551D01*
X194083Y263779D02*
X197626D01*
X195854Y262008D02*
Y265551D01*
X204083Y263779D02*
X207626D01*
X205854Y262008D02*
Y265551D01*
X214083Y263779D02*
X217626D01*
X215854Y262008D02*
Y265551D01*
X224083Y263779D02*
X227626D01*
X225854Y262008D02*
Y265551D01*
X234083Y263779D02*
X237626D01*
X235854Y262008D02*
Y265551D01*
X244083Y263779D02*
X247626D01*
X245854Y262008D02*
Y265551D01*
X254083Y263779D02*
X257626D01*
X255854Y262008D02*
Y265551D01*
X264083Y263779D02*
X267626D01*
X265854Y262008D02*
Y265551D01*
X274083Y263779D02*
X277626D01*
X275854Y262008D02*
Y265551D01*
X284083Y263779D02*
X287626D01*
X285854Y262008D02*
Y265551D01*
X294083Y263779D02*
X297626D01*
X295854Y262008D02*
Y265551D01*
X304083Y263779D02*
X307626D01*
X305854Y262008D02*
Y265551D01*
X314083Y263779D02*
X317626D01*
X315854Y262008D02*
Y265551D01*
X324083Y263779D02*
X327626D01*
X325854Y262008D02*
Y265551D01*
X334083Y263779D02*
X337626D01*
X335854Y262008D02*
Y265551D01*
X344083Y263779D02*
X347626D01*
X345854Y262008D02*
Y265551D01*
X354083Y263779D02*
X357626D01*
X355854Y262008D02*
Y265551D01*
X364083Y263779D02*
X367626D01*
X365854Y262008D02*
Y265551D01*
X374083Y263779D02*
X377626D01*
X375854Y262008D02*
Y265551D01*
X384083Y263779D02*
X387626D01*
X385854Y262008D02*
Y265551D01*
X394083Y263779D02*
X397626D01*
X395854Y262008D02*
Y265551D01*
X404083Y263779D02*
X407626D01*
X405854Y262008D02*
Y265551D01*
X414083Y263779D02*
X417626D01*
X415854Y262008D02*
Y265551D01*
X424083Y263779D02*
X427626D01*
X425854Y262008D02*
Y265551D01*
X434083Y263779D02*
X437626D01*
X435854Y262008D02*
Y265551D01*
X444083Y183780D02*
X447626D01*
X445854Y182008D02*
Y185551D01*
X444083Y193780D02*
X447626D01*
X445854Y192008D02*
Y195551D01*
X444083Y203780D02*
X447626D01*
X445854Y202008D02*
Y205551D01*
X444083Y213779D02*
X447626D01*
X445854Y212008D02*
Y215551D01*
X444083Y223780D02*
X447626D01*
X445854Y222008D02*
Y225551D01*
X444083Y233780D02*
X447626D01*
X445854Y232008D02*
Y235551D01*
X444083Y243779D02*
X447626D01*
X445854Y242008D02*
Y245551D01*
X444083Y253780D02*
X447626D01*
X445854Y252008D02*
Y255551D01*
X155276Y362500D02*
X158819D01*
X157047Y360728D02*
Y364272D01*
X155276Y352500D02*
X158819D01*
X157047Y350728D02*
Y354272D01*
X145276Y362500D02*
X148819D01*
X147047Y360728D02*
Y364272D01*
X145276Y352500D02*
X148819D01*
X147047Y350728D02*
Y354272D01*
X135276Y362500D02*
X138819D01*
X137047Y360728D02*
Y364272D01*
X135276Y352500D02*
X138819D01*
X137047Y350728D02*
Y354272D01*
X125276Y362500D02*
X128819D01*
X127047Y360728D02*
Y364272D01*
X125276Y352500D02*
X128819D01*
X127047Y350728D02*
Y354272D01*
X115276Y362500D02*
X118819D01*
X117047Y360728D02*
Y364272D01*
X115276Y352500D02*
X118819D01*
X117047Y350728D02*
Y354272D01*
X105276Y362500D02*
X108819D01*
X107047Y360728D02*
Y364272D01*
X105276Y352500D02*
X108819D01*
X107047Y350728D02*
Y354272D01*
X95276Y362500D02*
X98819D01*
X97047Y360728D02*
Y364272D01*
X95276Y352500D02*
X98819D01*
X97047Y350728D02*
Y354272D01*
X85276Y362500D02*
X88819D01*
X87047Y360728D02*
Y364272D01*
X85276Y352500D02*
X88819D01*
X87047Y350728D02*
Y354272D01*
X181614Y135500D02*
X185158D01*
X183386Y133728D02*
Y137272D01*
X181614Y125500D02*
X185158D01*
X183386Y123728D02*
Y127272D01*
X171614Y135500D02*
X175157D01*
X173386Y133728D02*
Y137272D01*
X171614Y125500D02*
X175157D01*
X173386Y123728D02*
Y127272D01*
X161614Y135500D02*
X165157D01*
X163386Y133728D02*
Y137272D01*
X161614Y125500D02*
X165157D01*
X163386Y123728D02*
Y127272D01*
X151614Y135500D02*
X155157D01*
X153386Y133728D02*
Y137272D01*
X151614Y125500D02*
X155157D01*
X153386Y123728D02*
Y127272D01*
X141614Y135500D02*
X145158D01*
X143386Y133728D02*
Y137272D01*
X141614Y125500D02*
X145158D01*
X143386Y123728D02*
Y127272D01*
X351728Y125500D02*
X355272D01*
X353500Y123728D02*
Y127272D01*
X351728Y135500D02*
X355272D01*
X353500Y133728D02*
Y137272D01*
X361728Y125500D02*
X365272D01*
X363500Y123728D02*
Y127272D01*
X361728Y135500D02*
X365272D01*
X363500Y133728D02*
Y137272D01*
X371728Y125500D02*
X375272D01*
X373500Y123728D02*
Y127272D01*
X371728Y135500D02*
X375272D01*
X373500Y133728D02*
Y137272D01*
X381728Y125500D02*
X385272D01*
X383500Y123728D02*
Y127272D01*
X381728Y135500D02*
X385272D01*
X383500Y133728D02*
Y137272D01*
X391728Y125500D02*
X395272D01*
X393500Y123728D02*
Y127272D01*
X391728Y135500D02*
X395272D01*
X393500Y133728D02*
Y137272D01*
X401728Y125500D02*
X405272D01*
X403500Y123728D02*
Y127272D01*
X401728Y135500D02*
X405272D01*
X403500Y133728D02*
Y137272D01*
X411728Y125500D02*
X415272D01*
X413500Y123728D02*
Y127272D01*
X411728Y135500D02*
X415272D01*
X413500Y133728D02*
Y137272D01*
X421728Y125500D02*
X425272D01*
X423500Y123728D02*
Y127272D01*
X421728Y135500D02*
X425272D01*
X423500Y133728D02*
Y137272D01*
X431728Y125500D02*
X435272D01*
X433500Y123728D02*
Y127272D01*
X431728Y135500D02*
X435272D01*
X433500Y133728D02*
Y137272D01*
X441728Y125500D02*
X445272D01*
X443500Y123728D02*
Y127272D01*
X441728Y135500D02*
X445272D01*
X443500Y133728D02*
Y137272D01*
X291228Y139500D02*
X294772D01*
X293000Y137728D02*
Y141272D01*
X301228Y139500D02*
X304772D01*
X303000Y137728D02*
Y141272D01*
X311228Y139500D02*
X314772D01*
X313000Y137728D02*
Y141272D01*
X321228Y139500D02*
X324772D01*
X323000Y137728D02*
Y141272D01*
X96228Y225500D02*
X99772D01*
X98000Y223728D02*
Y227272D01*
X96228Y215500D02*
X99772D01*
X98000Y213728D02*
Y217272D01*
X96228Y205500D02*
X99772D01*
X98000Y203728D02*
Y207272D01*
X36266Y59971D02*
X39809D01*
X38038Y58199D02*
Y61743D01*
X46266Y59971D02*
X49809D01*
X48038Y58199D02*
Y61743D01*
X453728Y84000D02*
X457272D01*
X455500Y82228D02*
Y85772D01*
X453728Y74000D02*
X457272D01*
X455500Y72228D02*
Y75772D01*
X88228Y97354D02*
X91772D01*
X90000Y95583D02*
Y99126D01*
X88228Y66646D02*
X91772D01*
X90000Y64874D02*
Y68417D01*
X427728Y97476D02*
X431272D01*
X429500Y95705D02*
Y99248D01*
X427728Y69524D02*
X431272D01*
X429500Y67752D02*
Y71295D01*
X147728Y68500D02*
X151272D01*
X149500Y66728D02*
Y70272D01*
X147728Y78500D02*
X151272D01*
X149500Y76728D02*
Y80272D01*
X147728Y88500D02*
X151272D01*
X149500Y86728D02*
Y90272D01*
X147728Y98500D02*
X151272D01*
X149500Y96728D02*
Y100272D01*
X117728Y68500D02*
X121272D01*
X119500Y66728D02*
Y70272D01*
X117728Y78500D02*
X121272D01*
X119500Y76728D02*
Y80272D01*
X117728Y88500D02*
X121272D01*
X119500Y86728D02*
Y90272D01*
X117728Y98500D02*
X121272D01*
X119500Y96728D02*
Y100272D01*
X454843Y22835D02*
X461142D01*
X457992Y19685D02*
Y25984D01*
X392835Y22835D02*
X399134D01*
X395984Y19685D02*
Y25984D01*
X442717Y44842D02*
X446260D01*
X444488Y43071D02*
Y46614D01*
X412716Y44842D02*
X416260D01*
X414488Y43071D02*
Y46614D01*
X407717Y34843D02*
X411260D01*
X409488Y33071D02*
Y36614D01*
X437716Y34843D02*
X441260D01*
X439488Y33071D02*
Y36614D01*
X432717Y44842D02*
X436260D01*
X434488Y43071D02*
Y46614D01*
X422717Y44842D02*
X426260D01*
X424488Y43071D02*
Y46614D01*
X427716Y34843D02*
X431260D01*
X429488Y33071D02*
Y36614D01*
X417717Y34843D02*
X421260D01*
X419488Y33071D02*
Y36614D01*
X397992Y9843D02*
X410984D01*
X404488Y3347D02*
Y16339D01*
X442992Y9843D02*
X455984D01*
X449488Y3347D02*
Y16339D01*
X398937Y-6142D02*
X402874D01*
X400906Y-8110D02*
Y-4173D01*
X408937Y-6142D02*
X412874D01*
X410906Y-8110D02*
Y-4173D01*
X441102Y-6142D02*
X445039D01*
X443071Y-8110D02*
Y-4173D01*
X451102Y-6142D02*
X455039D01*
X453071Y-8110D02*
Y-4173D01*
X54031Y348000D02*
X57968D01*
X56000Y346031D02*
Y349969D01*
X34032Y348000D02*
X37969D01*
X36000Y346031D02*
Y349969D01*
X44032Y368000D02*
X47969D01*
X46000Y366032D02*
Y369969D01*
X58000Y83500D02*
X61000D01*
X59500Y82000D02*
Y85000D01*
X58000Y103500D02*
X61000D01*
X59500Y102000D02*
Y105000D01*
X38000Y103500D02*
X41000D01*
X39500Y102000D02*
Y105000D01*
X38000Y83500D02*
X41000D01*
X39500Y82000D02*
Y85000D01*
X415327Y99500D02*
X418673D01*
X417000Y97827D02*
Y101173D01*
X415327Y69500D02*
X418673D01*
X417000Y67827D02*
Y71173D01*
X4626Y25051D02*
X13681D01*
X9154Y20524D02*
Y29579D01*
X26122Y35721D02*
X29744D01*
X27933Y33909D02*
Y37532D01*
X35965Y35721D02*
X39587D01*
X37776Y33909D02*
Y37532D01*
X26122Y43595D02*
X29744D01*
X27933Y41783D02*
Y45406D01*
X35965Y43595D02*
X39587D01*
X37776Y41783D02*
Y45406D01*
X52028Y25051D02*
X61083D01*
X56555Y20524D02*
Y29579D01*
X378728Y83500D02*
X382272D01*
X380500Y81728D02*
Y85272D01*
X368728Y83500D02*
X372272D01*
X370500Y81728D02*
Y85272D01*
X158622Y238500D02*
X161378D01*
X160000Y237122D02*
Y239878D01*
X158622Y248500D02*
X161378D01*
X160000Y247122D02*
Y249878D01*
X330622Y315500D02*
X333378D01*
X332000Y314122D02*
Y316878D01*
X330622Y325500D02*
X333378D01*
X332000Y324122D02*
Y326878D01*
X110728Y215500D02*
X114272D01*
X112500Y213728D02*
Y217272D01*
X110728Y225500D02*
X114272D01*
X112500Y223728D02*
Y227272D01*
X-272Y83500D02*
X3272D01*
X1500Y81728D02*
Y85272D01*
X-272Y93500D02*
X3272D01*
X1500Y91728D02*
Y95272D01*
X4134Y233177D02*
X8465D01*
X6299Y231012D02*
Y235343D01*
X4134Y243177D02*
X8465D01*
X6299Y241012D02*
Y245342D01*
X4134Y253177D02*
X8465D01*
X6299Y251012D02*
Y255343D01*
X19622Y247500D02*
X22378D01*
X21000Y246122D02*
Y248878D01*
X19622Y257500D02*
X22378D01*
X21000Y256122D02*
Y258878D01*
X4228Y287500D02*
X7772D01*
X6000Y285728D02*
Y289272D01*
X14228Y287500D02*
X17772D01*
X16000Y285728D02*
Y289272D01*
X56327Y329000D02*
X59673D01*
X58000Y327327D02*
Y330673D01*
X56327Y299000D02*
X59673D01*
X58000Y297327D02*
Y300673D01*
X73327Y289000D02*
X76673D01*
X75000Y287327D02*
Y290673D01*
X73327Y259000D02*
X76673D01*
X75000Y257327D02*
Y260673D01*
X194032Y368000D02*
X197968D01*
X196000Y366032D02*
Y369969D01*
X184031Y348000D02*
X187969D01*
X186000Y346031D02*
Y349969D01*
X204031Y348000D02*
X207968D01*
X206000Y346031D02*
Y349969D01*
X147228Y236500D02*
X150772D01*
X149000Y234728D02*
Y238272D01*
X147228Y246500D02*
X150772D01*
X149000Y244728D02*
Y248272D01*
X96228Y246000D02*
X99772D01*
X98000Y244228D02*
Y247772D01*
X106228Y246000D02*
X109772D01*
X108000Y244228D02*
Y247772D01*
X116228Y246000D02*
X119772D01*
X118000Y244228D02*
Y247772D01*
X126228Y246000D02*
X129772D01*
X128000Y244228D02*
Y247772D01*
X136228Y246000D02*
X139772D01*
X138000Y244228D02*
Y247772D01*
X155276Y326500D02*
X158819D01*
X157047Y324728D02*
Y328272D01*
X155276Y316500D02*
X158819D01*
X157047Y314728D02*
Y318272D01*
X145276Y326500D02*
X148819D01*
X147047Y324728D02*
Y328272D01*
X145276Y316500D02*
X148819D01*
X147047Y314728D02*
Y318272D01*
X135276Y326500D02*
X138819D01*
X137047Y324728D02*
Y328272D01*
X135276Y316500D02*
X138819D01*
X137047Y314728D02*
Y318272D01*
X125276Y326500D02*
X128819D01*
X127047Y324728D02*
Y328272D01*
X125276Y316500D02*
X128819D01*
X127047Y314728D02*
Y318272D01*
X115276Y326500D02*
X118819D01*
X117047Y324728D02*
Y328272D01*
X115276Y316500D02*
X118819D01*
X117047Y314728D02*
Y318272D01*
X105276Y326500D02*
X108819D01*
X107047Y324728D02*
Y328272D01*
X105276Y316500D02*
X108819D01*
X107047Y314728D02*
Y318272D01*
X95276Y326500D02*
X98819D01*
X97047Y324728D02*
Y328272D01*
X95276Y316500D02*
X98819D01*
X97047Y314728D02*
Y318272D01*
X85276Y326500D02*
X88819D01*
X87047Y324728D02*
Y328272D01*
X85276Y316500D02*
X88819D01*
X87047Y314728D02*
Y318272D01*
X262728Y135500D02*
X266272D01*
X264500Y133728D02*
Y137272D01*
X262728Y125500D02*
X266272D01*
X264500Y123728D02*
Y127272D01*
X252728Y135500D02*
X256272D01*
X254500Y133728D02*
Y137272D01*
X252728Y125500D02*
X256272D01*
X254500Y123728D02*
Y127272D01*
X242728Y135500D02*
X246272D01*
X244500Y133728D02*
Y137272D01*
X242728Y125500D02*
X246272D01*
X244500Y123728D02*
Y127272D01*
X232728Y135500D02*
X236272D01*
X234500Y133728D02*
Y137272D01*
X232728Y125500D02*
X236272D01*
X234500Y123728D02*
Y127272D01*
X222728Y135500D02*
X226272D01*
X224500Y133728D02*
Y137272D01*
X222728Y125500D02*
X226272D01*
X224500Y123728D02*
Y127272D01*
X239327Y97000D02*
X242673D01*
X241000Y95327D02*
Y98673D01*
X239327Y67000D02*
X242673D01*
X241000Y65327D02*
Y68673D01*
X357327Y67500D02*
X360673D01*
X359000Y65827D02*
Y69173D01*
X357327Y97500D02*
X360673D01*
X359000Y95827D02*
Y99173D01*
X332827Y98500D02*
X336173D01*
X334500Y96827D02*
Y100173D01*
X332827Y68500D02*
X336173D01*
X334500Y66827D02*
Y70173D01*
X306827Y68000D02*
X310173D01*
X308500Y66327D02*
Y69673D01*
X306827Y98000D02*
X310173D01*
X308500Y96327D02*
Y99673D01*
X318327Y99000D02*
X321673D01*
X320000Y97327D02*
Y100673D01*
X318327Y69000D02*
X321673D01*
X320000Y67327D02*
Y70673D01*
X203327Y68000D02*
X206673D01*
X205000Y66327D02*
Y69673D01*
X203327Y98000D02*
X206673D01*
X205000Y96327D02*
Y99673D01*
X190827Y98000D02*
X194173D01*
X192500Y96327D02*
Y99673D01*
X190827Y68000D02*
X194173D01*
X192500Y66327D02*
Y69673D01*
X164827Y68000D02*
X168173D01*
X166500Y66327D02*
Y69673D01*
X164827Y98000D02*
X168173D01*
X166500Y96327D02*
Y99673D01*
X178327Y98000D02*
X181673D01*
X180000Y96327D02*
Y99673D01*
X178327Y68000D02*
X181673D01*
X180000Y66327D02*
Y69673D01*
X274583Y13634D02*
X278126D01*
X276354Y11862D02*
Y15405D01*
X264583Y13634D02*
X268126D01*
X266354Y11862D02*
Y15405D01*
X254583Y13634D02*
X258126D01*
X256354Y11862D02*
Y15405D01*
X92583Y13634D02*
X96126D01*
X94354Y11862D02*
Y15405D01*
X102583Y13634D02*
X106126D01*
X104354Y11862D02*
Y15405D01*
X112583Y13634D02*
X116126D01*
X114354Y11862D02*
Y15405D01*
X193583Y14634D02*
X197126D01*
X195354Y12862D02*
Y16406D01*
X183583Y14634D02*
X187126D01*
X185354Y12862D02*
Y16406D01*
X173583Y14634D02*
X177126D01*
X175354Y12862D02*
Y16406D01*
X335583Y13134D02*
X339126D01*
X337354Y11362D02*
Y14906D01*
X345583Y13134D02*
X349126D01*
X347354Y11362D02*
Y14906D01*
X355583Y13134D02*
X359126D01*
X357354Y11362D02*
Y14906D01*
X223228Y96854D02*
X226772D01*
X225000Y95083D02*
Y98626D01*
X223228Y66146D02*
X226772D01*
X225000Y64374D02*
Y67917D01*
X100827Y97500D02*
X104173D01*
X102500Y95827D02*
Y99173D01*
X100827Y67500D02*
X104173D01*
X102500Y65827D02*
Y69173D01*
X325110Y-4921D02*
X330228D01*
X327669Y-7480D02*
Y-2362D01*
X364480Y-4921D02*
X369598D01*
X367039Y-7480D02*
Y-2362D01*
X354638Y-4921D02*
X359756D01*
X357197Y-7480D02*
Y-2362D01*
X334953Y-4921D02*
X340071D01*
X337512Y-7480D02*
Y-2362D01*
X344795Y34449D02*
X349913D01*
X347354Y31890D02*
Y37008D01*
X325110Y44291D02*
X330228D01*
X327669Y41732D02*
Y46850D01*
X315268Y34449D02*
X320386D01*
X317827Y31890D02*
Y37008D01*
X374323Y34449D02*
X379441D01*
X376882Y31890D02*
Y37008D01*
X364480Y44291D02*
X369598D01*
X367039Y41732D02*
Y46850D01*
X311449Y14449D02*
X323260D01*
X317354Y8543D02*
Y20354D01*
X371449Y14449D02*
X383260D01*
X377354Y8543D02*
Y20354D01*
X290449Y14449D02*
X302260D01*
X296354Y8543D02*
Y20354D01*
X230449Y14449D02*
X242260D01*
X236354Y8543D02*
Y20354D01*
X283480Y44291D02*
X288598D01*
X286039Y41732D02*
Y46850D01*
X293323Y34449D02*
X298441D01*
X295882Y31890D02*
Y37008D01*
X234268Y34449D02*
X239386D01*
X236827Y31890D02*
Y37008D01*
X244110Y44291D02*
X249228D01*
X246669Y41732D02*
Y46850D01*
X263795Y34449D02*
X268913D01*
X266354Y31890D02*
Y37008D01*
X253953Y-4921D02*
X259071D01*
X256512Y-7480D02*
Y-2362D01*
X273638Y-4921D02*
X278756D01*
X276197Y-7480D02*
Y-2362D01*
X283480Y-4921D02*
X288598D01*
X286039Y-7480D02*
Y-2362D01*
X244110Y-4921D02*
X249228D01*
X246669Y-7480D02*
Y-2362D01*
X257728Y100000D02*
X261272D01*
X259500Y98228D02*
Y101772D01*
X257728Y90000D02*
X261272D01*
X259500Y88228D02*
Y91772D01*
X257728Y80000D02*
X261272D01*
X259500Y78228D02*
Y81772D01*
X257728Y70000D02*
X261272D01*
X259500Y68228D02*
Y71772D01*
X287728Y100000D02*
X291272D01*
X289500Y98228D02*
Y101772D01*
X287728Y90000D02*
X291272D01*
X289500Y88228D02*
Y91772D01*
X287728Y80000D02*
X291272D01*
X289500Y78228D02*
Y81772D01*
X287728Y70000D02*
X291272D01*
X289500Y68228D02*
Y71772D01*
X435551Y363268D02*
X439094D01*
X437323Y361496D02*
Y365039D01*
X435551Y353268D02*
X439094D01*
X437323Y351496D02*
Y355039D01*
X425551Y363268D02*
X429095D01*
X427323Y361496D02*
Y365039D01*
X425551Y353268D02*
X429095D01*
X427323Y351496D02*
Y355039D01*
X415551Y363268D02*
X419095D01*
X417323Y361496D02*
Y365039D01*
X415551Y353268D02*
X419095D01*
X417323Y351496D02*
Y355039D01*
X405551Y363268D02*
X409094D01*
X407323Y361496D02*
Y365039D01*
X405551Y353268D02*
X409094D01*
X407323Y351496D02*
Y355039D01*
X395551Y363268D02*
X399095D01*
X397323Y361496D02*
Y365039D01*
X395551Y353268D02*
X399095D01*
X397323Y351496D02*
Y355039D01*
X354842Y363268D02*
X358386D01*
X356614Y361496D02*
Y365039D01*
X354842Y353268D02*
X358386D01*
X356614Y351496D02*
Y355039D01*
X344843Y363268D02*
X348386D01*
X346614Y361496D02*
Y365039D01*
X344843Y353268D02*
X348386D01*
X346614Y351496D02*
Y355039D01*
X334842Y363268D02*
X338386D01*
X336614Y361496D02*
Y365039D01*
X334842Y353268D02*
X338386D01*
X336614Y351496D02*
Y355039D01*
X324843Y363268D02*
X328386D01*
X326614Y361496D02*
Y365039D01*
X324843Y353268D02*
X328386D01*
X326614Y351496D02*
Y355039D01*
X314843Y363268D02*
X318386D01*
X316614Y361496D02*
Y365039D01*
X314843Y353268D02*
X318386D01*
X316614Y351496D02*
Y355039D01*
X304055Y319961D02*
X307598D01*
X305827Y318189D02*
Y321732D01*
X304055Y309961D02*
X307598D01*
X305827Y308189D02*
Y311732D01*
X294055Y319961D02*
X297598D01*
X295827Y318189D02*
Y321732D01*
X294055Y309961D02*
X297598D01*
X295827Y308189D02*
Y311732D01*
X284055Y319961D02*
X287598D01*
X285827Y318189D02*
Y321732D01*
X284055Y309961D02*
X287598D01*
X285827Y308189D02*
Y311732D01*
X274055Y319961D02*
X277598D01*
X275827Y318189D02*
Y321732D01*
X274055Y309961D02*
X277598D01*
X275827Y308189D02*
Y311732D01*
X264055Y319961D02*
X267598D01*
X265827Y318189D02*
Y321732D01*
X264055Y309961D02*
X267598D01*
X265827Y308189D02*
Y311732D01*
X274134Y363268D02*
X277677D01*
X275905Y361496D02*
Y365039D01*
X274134Y353268D02*
X277677D01*
X275905Y351496D02*
Y355039D01*
X264134Y363268D02*
X267677D01*
X265905Y361496D02*
Y365039D01*
X264134Y353268D02*
X267677D01*
X265905Y351496D02*
Y355039D01*
X254134Y363268D02*
X257677D01*
X255906Y361496D02*
Y365039D01*
X254134Y353268D02*
X257677D01*
X255906Y351496D02*
Y355039D01*
X244134Y363268D02*
X247677D01*
X245905Y361496D02*
Y365039D01*
X244134Y353268D02*
X247677D01*
X245905Y351496D02*
Y355039D01*
X234134Y363268D02*
X237677D01*
X235906Y361496D02*
Y365039D01*
X234134Y353268D02*
X237677D01*
X235906Y351496D02*
Y355039D01*
X136228Y208976D02*
X139772D01*
X138000Y207205D02*
Y210748D01*
X146228Y208976D02*
X149772D01*
X148000Y207205D02*
Y210748D01*
X136228Y198976D02*
X139772D01*
X138000Y197205D02*
Y200748D01*
X146228Y198976D02*
X149772D01*
X148000Y197205D02*
Y200748D01*
X136228Y188976D02*
X139772D01*
X138000Y187205D02*
Y190748D01*
X146228Y188976D02*
X149772D01*
X148000Y187205D02*
Y190748D01*
X136228Y178976D02*
X139772D01*
X138000Y177205D02*
Y180748D01*
X146228Y178976D02*
X149772D01*
X148000Y177205D02*
Y180748D01*
X136228Y168976D02*
X139772D01*
X138000Y167205D02*
Y170748D01*
X146228Y168976D02*
X149772D01*
X148000Y167205D02*
Y170748D01*
X184728Y301500D02*
X188272D01*
X186500Y299728D02*
Y303272D01*
X194728Y301500D02*
X198272D01*
X196500Y299728D02*
Y303272D01*
X204728Y301500D02*
X208272D01*
X206500Y299728D02*
Y303272D01*
X214728Y301500D02*
X218272D01*
X216500Y299728D02*
Y303272D01*
X188327Y316000D02*
X191673D01*
X190000Y314327D02*
Y317673D01*
X218327Y316000D02*
X221673D01*
X220000Y314327D02*
Y317673D01*
X188327Y328000D02*
X191673D01*
X190000Y326327D02*
Y329673D01*
X218327Y328000D02*
X221673D01*
X220000Y326327D02*
Y329673D01*
X294327Y112000D02*
X297673D01*
X296000Y110327D02*
Y113673D01*
X324327Y112000D02*
X327673D01*
X326000Y110327D02*
Y113673D01*
X293827Y124500D02*
X297173D01*
X295500Y122827D02*
Y126173D01*
X323827Y124500D02*
X327173D01*
X325500Y122827D02*
Y126173D01*
X-1969Y0D02*
X1969D01*
X0Y-1969D02*
Y1969D01*
X11449Y64500D02*
X23260D01*
X17354Y58595D02*
Y70406D01*
X368199Y64500D02*
X380010D01*
X374104Y58595D02*
Y70406D01*
X5906Y314961D02*
X17717D01*
X11811Y309055D02*
Y320866D01*
X444882Y314961D02*
X456693D01*
X450787Y309055D02*
Y320866D01*
X170311Y160500D02*
X171689D01*
X171000Y159811D02*
Y161189D01*
X161811Y215000D02*
X163189D01*
X162500Y214311D02*
Y215689D01*
M02*
