M48
;Layer_Color=9474304
;FILE_FORMAT=2:5
INCH,LZ
;TYPE=PLATED
T1F00S00C0.01378
T2F00S00C0.02756
T3F00S00C0.03000
T4F00S00C0.03346
T5F00S00C0.03543
T6F00S00C0.03622
T7F00S00C0.03937
T8F00S00C0.04331
T9F00S00C0.05118
T10F00S00C0.06299
T11F00S00C0.09055
;TYPE=NON_PLATED
T12F00S00C0.03937
T13F00S00C0.11811
T14F00S00C0.12992
%
T01
X0171Y01605
X01625Y0215
T02
X00215Y01305
Y01505
X0332Y03155
Y03255
X016Y02485
Y02385
X0021Y0236
Y0226
Y02475
Y02575
X0027Y03205
X0037
X0047
T03
X00395Y00835
X00595
Y01035
X00395
T04
X01025Y00675
Y00975
X01665Y0098
X018
X01925
X0205
Y0068
X01925
X018
X01665
X0241Y0067
Y0097
X03085Y0098
X032Y0099
X03345Y00985
X0326Y0112
X03255Y01245
X02955
X0296Y0112
X03085Y0068
X032Y0069
X03345Y00685
X0359Y00675
Y00975
X0417Y00995
Y00695
X022Y0316
Y0328
X019
Y0316
X0075Y0289
Y0259
X0058Y0299
Y0329
T05
X0409488Y0034843
X0419488
X0429488
X0439488
X0444488Y0044842
X0434488
X0424488
X0414488
X0357354Y0013134
X0347354
X0337354
X0276354Y0013634
X0266354
X0256354
X0195354Y0014634
X0185354
X0175354
X0114354Y0013634
X0104354
X0094354
X0048038Y0059971
X0038038
X00015Y00835
Y00935
X0006Y0202
X0016
X0098Y02055
X0138Y0208976
X0148
Y0198976
X0138
Y0188976
X0148
Y0178976
X0138
Y0168976
X0148
X0175854Y0173779
X0185854
X0195854
X0205854
X0215854
X0195854Y019378
X0185854
X0175854
Y020378
X0185854
X0195854
X0183386Y01355
Y01255
X0173386
Y01355
X0163386
Y01255
X0153386
Y01355
X0143386
Y01255
X01495Y00985
Y00885
Y00785
Y00685
X01195
Y00785
Y00885
Y00985
X009Y0097354
Y0066646
X0225Y0066146
Y0096854
X02245Y01255
X02345
X02445
X02545
X02645
Y01355
X02545
X02445
X02345
X02245
X0225854Y0173779
X0235854
X0245854
X0255854
X0265854
X0275854
X0285854
X0295854
X0305854
X0315854
X0325854
X0335854
X0345854
X0355854
X0365854
X03635Y01355
X03535
Y01255
X03635
X03735
Y01355
X0373425Y01065
X0363425
X0353425
X03705Y00835
X02895Y008
Y009
Y01
X02595
Y009
Y008
Y007
X02895
X0293Y01395
X0303
X0313
X0323
X03835Y01355
Y01255
X03935
Y01355
X04035
Y01255
X04135
Y01355
X04235
Y01255
X04335
Y01355
X04435
Y01255
X04295Y0097476
Y0069524
X04555Y0074
Y0084
X03805Y00835
X0383425Y01065
X0393425
X0395854Y0173779
X0385854
X0375854
X0405854
X0415854
X0425854
X0435854
X0445854Y018378
Y019378
Y020378
Y0213779
Y022378
Y023378
Y0243779
Y025378
X0435854Y0263779
X0425854
X0415854
X0405854
X0395854
X0385854
X0375854
X0383Y02955
X0393
X0403
X0413
X0423
X0433
Y03255
X0423
X0413
X0403
X0393
X0383
X0397323Y0353268
X0407323
X0417323
X0427323
X0437323
Y0363268
X0427323
X0417323
X0407323
X0397323
X0356614
Y0353268
X0346614
Y0363268
X0336614
Y0353268
X0326614
Y0363268
X0316614
Y0353268
X0275905
Y0363268
X0265905
Y0353268
X0255906
Y0363268
X0245905
Y0353268
X0235906
Y0363268
X0265827Y0319961
X0275827
X0285827
X0295827
X0305827
Y0309961
X0295827
X0285827
X0275827
X0265827
X0265854Y0263779
X0255854
X0245854
X0235854
X0225854
X0275854
X0285854
X0295854
X0305854
X0315854
X0325854
X0335854
X0345854
X0355854
X0365854
X0363Y02955
X0373
X0353
X0343
Y03255
X0353
X0363
X0373
X02165Y03015
X02065
X01965
X01865
X0185854Y0263779
X0175854
Y0243779
Y023378
Y022378
Y0213779
X0185854
X0195854
Y022378
X0185854
Y023378
X0195854
Y0243779
X0185854
X0205854
Y0263779
X0195854
X0215854
X0158Y0259
X0148
X0138
X0128
X0118
X0108
X0098
X0088
X0098Y0246
X0108
X0118
X0128
X0138
X0149Y02465
Y02365
X01125Y02255
Y02155
X0098
Y02255
Y0289
X0088
X0108
X0118
X0128
X0138
X0148
X0158
X0157047Y03165
Y03265
X0147047
Y03165
X0137047
Y03265
X0127047
Y03165
X0117047
Y03265
X0107047
Y03165
X0097047
Y03265
X0087047
Y03165
Y03525
X0097047
X0107047
X0117047
X0127047
X0137047
X0147047
X0157047
Y03625
X0147047
X0137047
X0127047
X0117047
X0107047
X0097047
X0087047
X0016Y02875
X0006
T06
X0027933Y0035721
Y0043595
X0037776
Y0035721
T07
X0400906Y-0006142
X0410906
X0443071
X0453071
X00495Y01505
X00695
X0186Y0348
X0206
X0056
X0036
X0046Y0368
X0196
T08
X0006299Y01505
Y01605
Y01705
Y0233177
Y0243177
Y0253177
T09
X0376882Y0034449
X0367039Y0044291
X0347354Y0034449
X0327669Y0044291
X0317827Y0034449
X0295882
X0286039Y0044291
X0266354Y0034449
X0236827
X0246669Y0044291
Y-0004921
X0256512
X0276197
X0286039
X0327669
X0337512
X0357197
X0367039
X0205039
X0195197
X0175512
X0165669
X0124039
X0114197
X0094512
X0084669
X0074827Y0034449
X0084669Y0044291
X0104354Y0034449
X0124039Y0044291
X0133882Y0034449
X0155827
X0165669Y0044291
X0185354Y0034449
X0214882
X0205039Y0044291
T10
X0395984Y0022835
X0457992
T11
X0009154Y0025051
X0056555
T12
X0Y0
T13
X0377354Y0014449
X0317354
X0296354
X0236354
X0215354
X0155354
X0134354
X0074354
X0017354Y00645
X0374104
X0450787Y0314961
X0011811
T14
X0404488Y0009843
X0449488
M30
