G04 Layer_Color=16711935*
%FSLAX25Y25*%
%MOIN*%
G70*
G01*
G75*
%ADD66C,0.00079*%
%ADD67C,0.00197*%
%ADD68C,0.00394*%
%ADD69C,0.00118*%
D66*
X24780Y202000D02*
G03*
X24780Y202000I-13780J0D01*
G01*
Y287500D02*
G03*
X24780Y287500I-13780J0D01*
G01*
D67*
X174854Y288779D02*
X453965D01*
X165854Y153779D02*
Y288779D01*
Y153779D02*
X453965D01*
Y288779D01*
X165854D02*
X174854D01*
D68*
X9035Y-15500D02*
X56673D01*
D69*
X10604Y-14220D02*
Y-13236D01*
X11096D01*
X11260Y-13400D01*
Y-13728D01*
X11096Y-13892D01*
X10604D01*
X12244Y-13400D02*
X12080Y-13236D01*
X11752D01*
X11588Y-13400D01*
Y-14056D01*
X11752Y-14220D01*
X12080D01*
X12244Y-14056D01*
X12572Y-13236D02*
Y-14220D01*
X13064D01*
X13228Y-14056D01*
Y-13892D01*
X13064Y-13728D01*
X12572D01*
X13064D01*
X13228Y-13564D01*
Y-13400D01*
X13064Y-13236D01*
X12572D01*
X15196D02*
X14540D01*
Y-14220D01*
X15196D01*
X14540Y-13728D02*
X14868D01*
X16180Y-13236D02*
Y-14220D01*
X15688D01*
X15524Y-14056D01*
Y-13728D01*
X15688Y-13564D01*
X16180D01*
X16836Y-14548D02*
X17000D01*
X17164Y-14384D01*
Y-13564D01*
X16672D01*
X16508Y-13728D01*
Y-14056D01*
X16672Y-14220D01*
X17164D01*
X17984D02*
X17656D01*
X17492Y-14056D01*
Y-13728D01*
X17656Y-13564D01*
X17984D01*
X18148Y-13728D01*
Y-13892D01*
X17492D01*
M02*
